<?xml version="1.0" standalone="no"?>
<!DOCTYPE svg PUBLIC
   "-//W3C//DTD SVG 1.1/EN"
   "http://www.w3.org/Graphics/SVG/1.1/DTD/svg11.dtd">

<svg width="600" height="600" version="1.1"
     xmlns="http://www.w3.org/2000/svg">
  <title>a boring SVG shape</title>
  <desc>
    Lua generator commit: 2472d776
    Generated from hex: c3987757 b40aae2c
    2 2 shape=5 turn=0 invert=1
    1 1 shape=11 turn=3 invert=0
    3 1 shape=11 turn=4 invert=0
    3 3 shape=11 turn=5 invert=0
    1 3 shape=11 turn=6 invert=0
    2 1 shape=14 turn=0 invert=1
    3 2 shape=14 turn=1 invert=1
    2 3 shape=14 turn=2 invert=1
    1 2 shape=14 turn=3 invert=1
    0 0 shape=13 turn=1 invert=0
    4 0 shape=13 turn=2 invert=0
    4 4 shape=13 turn=3 invert=0
    0 4 shape=13 turn=4 invert=0
    2 0 shape=13 turn=2 invert=1
    4 2 shape=13 turn=3 invert=1
    2 4 shape=13 turn=4 invert=1
    0 2 shape=13 turn=5 invert=1
    1 0 shape=11 turn=1 invert=0
    3 0 shape=11 turn=2 invert=0
    4 1 shape=11 turn=2 invert=0
    4 3 shape=11 turn=3 invert=0
    3 4 shape=11 turn=3 invert=0
    1 4 shape=11 turn=4 invert=0
    0 3 shape=11 turn=4 invert=0
    0 1 shape=11 turn=1 invert=0
  </desc>
  <path d="M 300 240 L 360 300 L 300 360 L 240 300 Z M 240 240 L 240 360 L 360 360 L 360 240 Z" fill="#c07060" />
  <path d="M 120 240 L 120 180 L 180 180 L 180 240 Z" fill="#c07060" />
  <path d="M 360 120 L 420 120 L 420 180 L 360 180 Z" fill="#c07060" />
  <path d="M 480 360 L 480 420 L 420 420 L 420 360 Z" fill="#c07060" />
  <path d="M 240 480 L 180 480 L 180 420 L 240 420 Z" fill="#c07060" />
  <path d="M 240 120 L 360 120 L 270 150 L 240 240 Z M 240 120 L 240 240 L 360 240 L 360 120 Z" fill="#c07060" />
  <path d="M 480 240 L 480 360 L 450 270 L 360 240 Z M 480 240 L 360 240 L 360 360 L 480 360 Z" fill="#c07060" />
  <path d="M 360 480 L 240 480 L 330 450 L 360 360 Z M 360 480 L 360 360 L 240 360 L 240 480 Z" fill="#c07060" />
  <path d="M 120 360 L 120 240 L 150 330 L 240 360 Z M 120 360 L 240 360 L 240 240 L 120 240 Z" fill="#c07060" />
  <path d="M 120 120 L 30 90 L 0 0 L 90 30 Z" fill="#c07060" />
  <path d="M 480 120 L 510 30 L 600 0 L 570 90 Z" fill="#c07060" />
  <path d="M 480 480 L 570 510 L 600 600 L 510 570 Z" fill="#c07060" />
  <path d="M 120 480 L 90 570 L 0 600 L 30 510 Z" fill="#c07060" />
  <path d="M 240 120 L 270 30 L 360 0 L 330 90 Z M 360 120 L 360 0 L 240 0 L 240 120 Z" fill="#c07060" />
  <path d="M 480 240 L 570 270 L 600 360 L 510 330 Z M 480 360 L 600 360 L 600 240 L 480 240 Z" fill="#c07060" />
  <path d="M 360 480 L 330 570 L 240 600 L 270 510 Z M 240 480 L 240 600 L 360 600 L 360 480 Z" fill="#c07060" />
  <path d="M 120 360 L 30 330 L 0 240 L 90 270 Z M 120 240 L 0 240 L 0 360 L 120 360 Z" fill="#c07060" />
  <path d="M 240 0 L 240 60 L 180 60 L 180 0 Z" fill="#c07060" />
  <path d="M 480 120 L 420 120 L 420 60 L 480 60 Z" fill="#c07060" />
  <path d="M 600 240 L 540 240 L 540 180 L 600 180 Z" fill="#c07060" />
  <path d="M 480 480 L 480 420 L 540 420 L 540 480 Z" fill="#c07060" />
  <path d="M 360 600 L 360 540 L 420 540 L 420 600 Z" fill="#c07060" />
  <path d="M 120 480 L 180 480 L 180 540 L 120 540 Z" fill="#c07060" />
  <path d="M 0 360 L 60 360 L 60 420 L 0 420 Z" fill="#c07060" />
  <path d="M 120 120 L 120 180 L 60 180 L 60 120 Z" fill="#c07060" />
</svg>
