<?xml version="1.0" standalone="no"?>
<!DOCTYPE svg PUBLIC
   "-//W3C//DTD SVG 1.1/EN"
   "http://www.w3.org/Graphics/SVG/1.1/DTD/svg11.dtd">

<svg width="480" height="480" version="1.1"
     xmlns="http://www.w3.org/2000/svg">
  <title>a boring SVG shape</title>
  <desc>
    Lua generator commit: 2472d776
    Generated from hex: 987757b4 0aae2c02
    1 1 shape=5 turn=1 invert=1
    2 1 shape=5 turn=2 invert=1
    2 2 shape=5 turn=3 invert=1
    1 2 shape=5 turn=4 invert=1
    0 0 shape=16 turn=1 invert=0
    3 0 shape=16 turn=2 invert=0
    3 3 shape=16 turn=3 invert=0
    0 3 shape=16 turn=4 invert=0
    1 0 shape=14 turn=2 invert=1
    2 0 shape=14 turn=3 invert=1
    3 1 shape=14 turn=3 invert=1
    3 2 shape=14 turn=4 invert=1
    2 3 shape=14 turn=4 invert=1
    1 3 shape=14 turn=5 invert=1
    0 2 shape=14 turn=5 invert=1
    0 1 shape=14 turn=2 invert=1
  </desc>
  <path d="M 240 180 L 180 240 L 120 180 L 180 120 Z M 240 120 L 120 120 L 120 240 L 240 240 Z" fill="#908070" />
  <path d="M 300 240 L 240 180 L 300 120 L 360 180 Z M 360 240 L 360 120 L 240 120 L 240 240 Z" fill="#908070" />
  <path d="M 240 300 L 300 240 L 360 300 L 300 360 Z M 240 360 L 360 360 L 360 240 L 240 240 Z" fill="#908070" />
  <path d="M 180 240 L 240 300 L 180 360 L 120 300 Z M 120 240 L 120 360 L 240 360 L 240 240 Z" fill="#908070" />
  <path d="M 120 120 L 30 90 L 0 0 L 120 120 L 90 30 L 0 0 L 120 0 Z" fill="#908070" />
  <path d="M 360 120 L 390 30 L 480 0 L 360 120 L 450 90 L 480 0 L 480 120 Z" fill="#908070" />
  <path d="M 360 360 L 450 390 L 480 480 L 360 360 L 390 450 L 480 480 L 360 480 Z" fill="#908070" />
  <path d="M 120 360 L 90 450 L 0 480 L 120 360 L 30 390 L 0 480 L 0 360 Z" fill="#908070" />
  <path d="M 240 120 L 120 120 L 210 90 L 240 0 Z M 240 120 L 240 0 L 120 0 L 120 120 Z" fill="#908070" />
  <path d="M 240 120 L 240 0 L 270 90 L 360 120 Z M 240 120 L 360 120 L 360 0 L 240 0 Z" fill="#908070" />
  <path d="M 360 240 L 360 120 L 390 210 L 480 240 Z M 360 240 L 480 240 L 480 120 L 360 120 Z" fill="#908070" />
  <path d="M 360 240 L 480 240 L 390 270 L 360 360 Z M 360 240 L 360 360 L 480 360 L 480 240 Z" fill="#908070" />
  <path d="M 240 360 L 360 360 L 270 390 L 240 480 Z M 240 360 L 240 480 L 360 480 L 360 360 Z" fill="#908070" />
  <path d="M 240 360 L 240 480 L 210 390 L 120 360 Z M 240 360 L 120 360 L 120 480 L 240 480 Z" fill="#908070" />
  <path d="M 120 240 L 120 360 L 90 270 L 0 240 Z M 120 240 L 0 240 L 0 360 L 120 360 Z" fill="#908070" />
  <path d="M 120 240 L 0 240 L 90 210 L 120 120 Z M 120 240 L 120 120 L 0 120 L 0 240 Z" fill="#908070" />
</svg>
