<?xml version="1.0" standalone="no"?>
<!DOCTYPE svg PUBLIC
   "-//W3C//DTD SVG 1.1/EN"
   "http://www.w3.org/Graphics/SVG/1.1/DTD/svg11.dtd">

<svg width="480" height="480" version="1.1"
     xmlns="http://www.w3.org/2000/svg">
  <title>a boring SVG shape</title>
  <desc>
    Lua generator commit: 2472d776
    Generated from hex: 757b40aa e2c02cb1
    1 1 shape=11 turn=1 invert=0
    2 1 shape=11 turn=2 invert=0
    2 2 shape=11 turn=3 invert=0
    1 2 shape=11 turn=4 invert=0
    0 0 shape=2 turn=0 invert=0
    3 0 shape=2 turn=1 invert=0
    3 3 shape=2 turn=2 invert=0
    0 3 shape=2 turn=3 invert=0
    1 0 shape=14 turn=3 invert=0
    2 0 shape=12 turn=1 invert=0
    3 1 shape=14 turn=4 invert=0
    3 2 shape=12 turn=2 invert=0
    2 3 shape=14 turn=5 invert=0
    1 3 shape=12 turn=3 invert=0
    0 2 shape=14 turn=6 invert=0
    0 1 shape=12 turn=4 invert=0
  </desc>
  <path d="M 240 120 L 240 180 L 180 180 L 180 120 Z" fill="#705070" />
  <path d="M 360 240 L 300 240 L 300 180 L 360 180 Z" fill="#705070" />
  <path d="M 240 360 L 240 300 L 300 300 L 300 360 Z" fill="#705070" />
  <path d="M 120 240 L 180 240 L 180 300 L 120 300 Z" fill="#705070" />
  <path d="M 120 0 L 0 120 L 30 30 Z" fill="#705070" />
  <path d="M 480 120 L 360 0 L 450 30 Z" fill="#705070" />
  <path d="M 360 480 L 480 360 L 450 450 Z" fill="#705070" />
  <path d="M 0 360 L 120 480 L 30 450 Z" fill="#705070" />
  <path d="M 120 120 L 120 0 L 150 90 L 240 120 Z" fill="#705070" />
  <path d="M 360 0 L 360 120 L 240 0 Z" fill="#705070" />
  <path d="M 360 120 L 480 120 L 390 150 L 360 240 Z" fill="#705070" />
  <path d="M 480 360 L 360 360 L 480 240 Z" fill="#705070" />
  <path d="M 360 360 L 360 480 L 330 390 L 240 360 Z" fill="#705070" />
  <path d="M 120 480 L 120 360 L 240 480 Z" fill="#705070" />
  <path d="M 120 360 L 0 360 L 90 330 L 120 240 Z" fill="#705070" />
  <path d="M 0 120 L 120 120 L 0 240 Z" fill="#705070" />
</svg>
