<?xml version="1.0" standalone="no"?>
<!DOCTYPE svg PUBLIC
   "-//W3C//DTD SVG 1.1/EN"
   "http://www.w3.org/Graphics/SVG/1.1/DTD/svg11.dtd">

<svg width="360" height="360" version="1.1"
     xmlns="http://www.w3.org/2000/svg">
  <title>a boring SVG shape</title>
  <desc>
    Lua generator commit: 2472d776
    Generated from hex: 7b40aae2 c02cb120
    1 1 shape=1 turn=0 invert=0
    0 0 shape=13 turn=2 invert=1
    2 0 shape=13 turn=3 invert=1
    2 2 shape=13 turn=4 invert=1
    0 2 shape=13 turn=5 invert=1
    1 0 shape=11 turn=1 invert=0
    2 1 shape=11 turn=2 invert=0
    1 2 shape=11 turn=3 invert=0
    0 1 shape=11 turn=4 invert=0
  </desc>
  <path d="M 120 120 L 240 120 L 240 240 L 120 240 Z" fill="#786800" />
  <path d="M 0 120 L 30 30 L 120 0 L 90 90 Z M 120 120 L 120 0 L 0 0 L 0 120 Z" fill="#786800" />
  <path d="M 240 0 L 330 30 L 360 120 L 270 90 Z M 240 120 L 360 120 L 360 0 L 240 0 Z" fill="#786800" />
  <path d="M 360 240 L 330 330 L 240 360 L 270 270 Z M 240 240 L 240 360 L 360 360 L 360 240 Z" fill="#786800" />
  <path d="M 120 360 L 30 330 L 0 240 L 90 270 Z M 120 240 L 0 240 L 0 360 L 120 360 Z" fill="#786800" />
  <path d="M 240 0 L 240 60 L 180 60 L 180 0 Z" fill="#786800" />
  <path d="M 360 240 L 300 240 L 300 180 L 360 180 Z" fill="#786800" />
  <path d="M 120 360 L 120 300 L 180 300 L 180 360 Z" fill="#786800" />
  <path d="M 0 120 L 60 120 L 60 180 L 0 180 Z" fill="#786800" />
</svg>
