<?xml version="1.0" standalone="no"?>
<!DOCTYPE svg PUBLIC
   "-//W3C//DTD SVG 1.1/EN"
   "http://www.w3.org/Graphics/SVG/1.1/DTD/svg11.dtd">

<svg width="480" height="480" version="1.1"
     xmlns="http://www.w3.org/2000/svg">
  <title>a boring SVG shape</title>
  <desc>
    Lua generator commit: 2472d776
    Generated from hex: b40aae2c 02cb1200
    1 1 shape=13 turn=1 invert=0
    2 1 shape=13 turn=2 invert=0
    2 2 shape=13 turn=3 invert=0
    1 2 shape=13 turn=4 invert=0
    0 0 shape=13 turn=2 invert=1
    3 0 shape=13 turn=3 invert=1
    3 3 shape=13 turn=4 invert=1
    0 3 shape=13 turn=5 invert=1
    1 0 shape=11 turn=1 invert=0
    2 0 shape=11 turn=2 invert=0
    3 1 shape=11 turn=2 invert=0
    3 2 shape=11 turn=3 invert=0
    2 3 shape=11 turn=3 invert=0
    1 3 shape=11 turn=4 invert=0
    0 2 shape=11 turn=4 invert=0
    0 1 shape=11 turn=1 invert=0
  </desc>
  <path d="M 240 240 L 150 210 L 120 120 L 210 150 Z" fill="#b04000" />
  <path d="M 240 240 L 270 150 L 360 120 L 330 210 Z" fill="#b04000" />
  <path d="M 240 240 L 330 270 L 360 360 L 270 330 Z" fill="#b04000" />
  <path d="M 240 240 L 210 330 L 120 360 L 150 270 Z" fill="#b04000" />
  <path d="M 0 120 L 30 30 L 120 0 L 90 90 Z M 120 120 L 120 0 L 0 0 L 0 120 Z" fill="#b04000" />
  <path d="M 360 0 L 450 30 L 480 120 L 390 90 Z M 360 120 L 480 120 L 480 0 L 360 0 Z" fill="#b04000" />
  <path d="M 480 360 L 450 450 L 360 480 L 390 390 Z M 360 360 L 360 480 L 480 480 L 480 360 Z" fill="#b04000" />
  <path d="M 120 480 L 30 450 L 0 360 L 90 390 Z M 120 360 L 0 360 L 0 480 L 120 480 Z" fill="#b04000" />
  <path d="M 240 0 L 240 60 L 180 60 L 180 0 Z" fill="#b04000" />
  <path d="M 360 120 L 300 120 L 300 60 L 360 60 Z" fill="#b04000" />
  <path d="M 480 240 L 420 240 L 420 180 L 480 180 Z" fill="#b04000" />
  <path d="M 360 360 L 360 300 L 420 300 L 420 360 Z" fill="#b04000" />
  <path d="M 240 480 L 240 420 L 300 420 L 300 480 Z" fill="#b04000" />
  <path d="M 120 360 L 180 360 L 180 420 L 120 420 Z" fill="#b04000" />
  <path d="M 0 240 L 60 240 L 60 300 L 0 300 Z" fill="#b04000" />
  <path d="M 120 120 L 120 180 L 60 180 L 60 120 Z" fill="#b04000" />
</svg>
