<?xml version="1.0" standalone="no"?>
<!DOCTYPE svg PUBLIC
   "-//W3C//DTD SVG 1.1/EN"
   "http://www.w3.org/Graphics/SVG/1.1/DTD/svg11.dtd">

<svg width="600" height="600" version="1.1"
     xmlns="http://www.w3.org/2000/svg">
  <title>a boring SVG shape</title>
  <desc>
    Lua generator commit: 2472d776
    Generated from hex: 3987757b 40aae2c0
    2 2 shape=5 turn=0 invert=0
    1 1 shape=16 turn=1 invert=0
    3 1 shape=16 turn=2 invert=0
    3 3 shape=16 turn=3 invert=0
    1 3 shape=16 turn=4 invert=0
    2 1 shape=14 turn=2 invert=1
    3 2 shape=14 turn=3 invert=1
    2 3 shape=14 turn=4 invert=1
    1 2 shape=14 turn=5 invert=1
    0 0 shape=1 turn=2 invert=0
    4 0 shape=1 turn=3 invert=0
    4 4 shape=1 turn=4 invert=0
    0 4 shape=1 turn=5 invert=0
    2 0 shape=6 turn=2 invert=0
    4 2 shape=6 turn=3 invert=0
    2 4 shape=6 turn=4 invert=0
    0 2 shape=6 turn=5 invert=0
    1 0 shape=12 turn=1 invert=0
    3 0 shape=12 turn=2 invert=0
    4 1 shape=12 turn=2 invert=0
    4 3 shape=12 turn=3 invert=0
    3 4 shape=12 turn=3 invert=0
    1 4 shape=12 turn=4 invert=0
    0 3 shape=12 turn=4 invert=0
    0 1 shape=12 turn=1 invert=0
  </desc>
  <path d="M 300 240 L 360 300 L 300 360 L 240 300 Z" fill="#383018" />
  <path d="M 240 240 L 150 210 L 120 120 L 240 240 L 210 150 L 120 120 L 240 120 Z" fill="#383018" />
  <path d="M 360 240 L 390 150 L 480 120 L 360 240 L 450 210 L 480 120 L 480 240 Z" fill="#383018" />
  <path d="M 360 360 L 450 390 L 480 480 L 360 360 L 390 450 L 480 480 L 360 480 Z" fill="#383018" />
  <path d="M 240 360 L 210 450 L 120 480 L 240 360 L 150 390 L 120 480 L 120 360 Z" fill="#383018" />
  <path d="M 360 240 L 240 240 L 330 210 L 360 120 Z M 360 240 L 360 120 L 240 120 L 240 240 Z" fill="#383018" />
  <path d="M 360 360 L 360 240 L 390 330 L 480 360 Z M 360 360 L 480 360 L 480 240 L 360 240 Z" fill="#383018" />
  <path d="M 240 360 L 360 360 L 270 390 L 240 480 Z M 240 360 L 240 480 L 360 480 L 360 360 Z" fill="#383018" />
  <path d="M 240 240 L 240 360 L 210 270 L 120 240 Z M 240 240 L 120 240 L 120 360 L 240 360 Z" fill="#383018" />
  <path d="M 120 120 L 0 120 L 0 0 L 120 0 Z" fill="#383018" />
  <path d="M 480 120 L 480 0 L 600 0 L 600 120 Z" fill="#383018" />
  <path d="M 480 480 L 600 480 L 600 600 L 480 600 Z" fill="#383018" />
  <path d="M 120 480 L 120 600 L 0 600 L 0 480 Z" fill="#383018" />
  <path d="M 360 120 L 240 60 L 240 0 L 300 0 Z" fill="#383018" />
  <path d="M 480 360 L 540 240 L 600 240 L 600 300 Z" fill="#383018" />
  <path d="M 240 480 L 360 540 L 360 600 L 300 600 Z" fill="#383018" />
  <path d="M 120 240 L 60 360 L 0 360 L 0 300 Z" fill="#383018" />
  <path d="M 240 0 L 240 120 L 120 0 Z" fill="#383018" />
  <path d="M 480 120 L 360 120 L 480 0 Z" fill="#383018" />
  <path d="M 600 240 L 480 240 L 600 120 Z" fill="#383018" />
  <path d="M 480 480 L 480 360 L 600 480 Z" fill="#383018" />
  <path d="M 360 600 L 360 480 L 480 600 Z" fill="#383018" />
  <path d="M 120 480 L 240 480 L 120 600 Z" fill="#383018" />
  <path d="M 0 360 L 120 360 L 0 480 Z" fill="#383018" />
  <path d="M 120 120 L 120 240 L 0 120 Z" fill="#383018" />
</svg>
