<?xml version="1.0" standalone="no"?>
<!DOCTYPE svg PUBLIC
   "-//W3C//DTD SVG 1.1/EN"
   "http://www.w3.org/Graphics/SVG/1.1/DTD/svg11.dtd">

<svg width="600" height="600" version="1.1"
     xmlns="http://www.w3.org/2000/svg">
  <title>a boring SVG shape</title>
  <desc>
    Lua generator commit: 2472d776
    Generated from hex: b40aae2c 02cb1200
    2 2 shape=1 turn=0 invert=1
    1 1 shape=6 turn=2 invert=0
    3 1 shape=6 turn=3 invert=0
    3 3 shape=6 turn=4 invert=0
    1 3 shape=6 turn=5 invert=0
    2 1 shape=12 turn=1 invert=0
    3 2 shape=12 turn=2 invert=0
    2 3 shape=12 turn=3 invert=0
    1 2 shape=12 turn=4 invert=0
    0 0 shape=1 turn=0 invert=0
    4 0 shape=1 turn=1 invert=0
    4 4 shape=1 turn=2 invert=0
    0 4 shape=1 turn=3 invert=0
    2 0 shape=5 turn=1 invert=0
    4 2 shape=5 turn=2 invert=0
    2 4 shape=5 turn=3 invert=0
    0 2 shape=5 turn=4 invert=0
    1 0 shape=13 turn=1 invert=0
    3 0 shape=13 turn=2 invert=0
    4 1 shape=13 turn=2 invert=0
    4 3 shape=13 turn=3 invert=0
    3 4 shape=13 turn=3 invert=0
    1 4 shape=13 turn=4 invert=0
    0 3 shape=13 turn=4 invert=0
    0 1 shape=13 turn=1 invert=0
  </desc>
  <path d="M 240 240 L 360 240 L 360 360 L 240 360 Z M 240 240 L 240 360 L 360 360 L 360 240 Z" fill="#b08028" />
  <path d="M 240 240 L 120 180 L 120 120 L 180 120 Z" fill="#b08028" />
  <path d="M 360 240 L 420 120 L 480 120 L 480 180 Z" fill="#b08028" />
  <path d="M 360 360 L 480 420 L 480 480 L 420 480 Z" fill="#b08028" />
  <path d="M 240 360 L 180 480 L 120 480 L 120 420 Z" fill="#b08028" />
  <path d="M 360 120 L 360 240 L 240 120 Z" fill="#b08028" />
  <path d="M 480 360 L 360 360 L 480 240 Z" fill="#b08028" />
  <path d="M 240 480 L 240 360 L 360 480 Z" fill="#b08028" />
  <path d="M 120 240 L 240 240 L 120 360 Z" fill="#b08028" />
  <path d="M 0 0 L 120 0 L 120 120 L 0 120 Z" fill="#b08028" />
  <path d="M 600 0 L 600 120 L 480 120 L 480 0 Z" fill="#b08028" />
  <path d="M 600 600 L 480 600 L 480 480 L 600 480 Z" fill="#b08028" />
  <path d="M 0 600 L 0 480 L 120 480 L 120 600 Z" fill="#b08028" />
  <path d="M 360 60 L 300 120 L 240 60 L 300 0 Z" fill="#b08028" />
  <path d="M 540 360 L 480 300 L 540 240 L 600 300 Z" fill="#b08028" />
  <path d="M 240 540 L 300 480 L 360 540 L 300 600 Z" fill="#b08028" />
  <path d="M 60 240 L 120 300 L 60 360 L 0 300 Z" fill="#b08028" />
  <path d="M 240 120 L 150 90 L 120 0 L 210 30 Z" fill="#b08028" />
  <path d="M 360 120 L 390 30 L 480 0 L 450 90 Z" fill="#b08028" />
  <path d="M 480 240 L 510 150 L 600 120 L 570 210 Z" fill="#b08028" />
  <path d="M 480 360 L 570 390 L 600 480 L 510 450 Z" fill="#b08028" />
  <path d="M 360 480 L 450 510 L 480 600 L 390 570 Z" fill="#b08028" />
  <path d="M 240 480 L 210 570 L 120 600 L 150 510 Z" fill="#b08028" />
  <path d="M 120 360 L 90 450 L 0 480 L 30 390 Z" fill="#b08028" />
  <path d="M 120 240 L 30 210 L 0 120 L 90 150 Z" fill="#b08028" />
</svg>
