<?xml version="1.0" standalone="no"?>
<!DOCTYPE svg PUBLIC
   "-//W3C//DTD SVG 1.1/EN"
   "http://www.w3.org/Graphics/SVG/1.1/DTD/svg11.dtd">

<svg width="600" height="600" version="1.1"
     xmlns="http://www.w3.org/2000/svg">
  <title>a boring SVG shape</title>
  <desc>
    Lua generator commit: 2472d776
    Generated from hex: 5ac10498 a98a9069
    2 2 shape=1 turn=0 invert=0
    1 1 shape=4 turn=0 invert=1
    3 1 shape=4 turn=1 invert=1
    3 3 shape=4 turn=2 invert=1
    1 3 shape=4 turn=3 invert=1
    2 1 shape=2 turn=2 invert=0
    3 2 shape=2 turn=3 invert=0
    2 3 shape=2 turn=4 invert=0
    1 2 shape=2 turn=5 invert=0
    0 0 shape=10 turn=3 invert=0
    4 0 shape=10 turn=4 invert=0
    4 4 shape=10 turn=5 invert=0
    0 4 shape=10 turn=6 invert=0
    2 0 shape=1 turn=1 invert=0
    4 2 shape=1 turn=2 invert=0
    2 4 shape=1 turn=3 invert=0
    0 2 shape=1 turn=4 invert=0
    1 0 shape=11 turn=1 invert=0
    3 0 shape=11 turn=2 invert=0
    4 1 shape=11 turn=2 invert=0
    4 3 shape=11 turn=3 invert=0
    3 4 shape=11 turn=3 invert=0
    1 4 shape=11 turn=4 invert=0
    0 3 shape=11 turn=4 invert=0
    0 1 shape=11 turn=1 invert=0
  </desc>
  <path d="M 240 240 L 360 240 L 360 360 L 240 360 Z" fill="#585800" />
  <path d="M 240 120 L 240 240 L 120 240 L 180 210 L 150 150 L 210 180 Z M 120 120 L 120 240 L 240 240 L 240 120 Z" fill="#585800" />
  <path d="M 480 240 L 360 240 L 360 120 L 390 180 L 450 150 L 420 210 Z M 480 120 L 360 120 L 360 240 L 480 240 Z" fill="#585800" />
  <path d="M 360 480 L 360 360 L 480 360 L 420 390 L 450 450 L 390 420 Z M 480 480 L 480 360 L 360 360 L 360 480 Z" fill="#585800" />
  <path d="M 120 360 L 240 360 L 240 480 L 210 420 L 150 450 L 180 390 Z M 120 480 L 240 480 L 240 360 L 120 360 Z" fill="#585800" />
  <path d="M 240 240 L 360 120 L 330 210 Z" fill="#585800" />
  <path d="M 360 240 L 480 360 L 390 330 Z" fill="#585800" />
  <path d="M 360 360 L 240 480 L 270 390 Z" fill="#585800" />
  <path d="M 240 360 L 120 240 L 210 270 Z" fill="#585800" />
  <path d="M 0 0 L 120 120 L 60 120 L 60 60 L 0 60 Z" fill="#585800" />
  <path d="M 600 0 L 480 120 L 480 60 L 540 60 L 540 0 Z" fill="#585800" />
  <path d="M 600 600 L 480 480 L 540 480 L 540 540 L 600 540 Z" fill="#585800" />
  <path d="M 0 600 L 120 480 L 120 540 L 60 540 L 60 600 Z" fill="#585800" />
  <path d="M 360 0 L 360 120 L 240 120 L 240 0 Z" fill="#585800" />
  <path d="M 600 360 L 480 360 L 480 240 L 600 240 Z" fill="#585800" />
  <path d="M 240 600 L 240 480 L 360 480 L 360 600 Z" fill="#585800" />
  <path d="M 0 240 L 120 240 L 120 360 L 0 360 Z" fill="#585800" />
  <path d="M 240 0 L 240 60 L 180 60 L 180 0 Z" fill="#585800" />
  <path d="M 480 120 L 420 120 L 420 60 L 480 60 Z" fill="#585800" />
  <path d="M 600 240 L 540 240 L 540 180 L 600 180 Z" fill="#585800" />
  <path d="M 480 480 L 480 420 L 540 420 L 540 480 Z" fill="#585800" />
  <path d="M 360 600 L 360 540 L 420 540 L 420 600 Z" fill="#585800" />
  <path d="M 120 480 L 180 480 L 180 540 L 120 540 Z" fill="#585800" />
  <path d="M 0 360 L 60 360 L 60 420 L 0 420 Z" fill="#585800" />
  <path d="M 120 120 L 120 180 L 60 180 L 60 120 Z" fill="#585800" />
</svg>
