<?xml version="1.0" standalone="no"?>
<!DOCTYPE svg PUBLIC
   "-//W3C//DTD SVG 1.1/EN"
   "http://www.w3.org/Graphics/SVG/1.1/DTD/svg11.dtd">

<svg width="480" height="480" version="1.1"
     xmlns="http://www.w3.org/2000/svg">
  <title>a boring SVG shape</title>
  <desc>
    Lua generator commit: 2472d776
    Generated from hex: 1a2ad55f 5ac10498
    1 1 shape=16 turn=2 invert=1
    2 1 shape=16 turn=3 invert=1
    2 2 shape=16 turn=4 invert=1
    1 2 shape=16 turn=5 invert=1
    0 0 shape=11 turn=1 invert=0
    3 0 shape=11 turn=2 invert=0
    3 3 shape=11 turn=3 invert=0
    0 3 shape=11 turn=4 invert=0
    1 0 shape=12 turn=1 invert=0
    2 0 shape=2 turn=2 invert=1
    3 1 shape=12 turn=2 invert=0
    3 2 shape=2 turn=3 invert=1
    2 3 shape=12 turn=3 invert=0
    1 3 shape=2 turn=4 invert=1
    0 2 shape=12 turn=4 invert=0
    0 1 shape=2 turn=5 invert=1
  </desc>
  <path d="M 120 240 L 150 150 L 240 120 L 120 240 L 210 210 L 240 120 L 240 240 Z M 240 240 L 240 120 L 120 120 L 120 240 Z" fill="#10a020" />
  <path d="M 240 120 L 330 150 L 360 240 L 240 120 L 270 210 L 360 240 L 240 240 Z M 240 240 L 360 240 L 360 120 L 240 120 Z" fill="#10a020" />
  <path d="M 360 240 L 330 330 L 240 360 L 360 240 L 270 270 L 240 360 L 240 240 Z M 240 240 L 240 360 L 360 360 L 360 240 Z" fill="#10a020" />
  <path d="M 240 360 L 150 330 L 120 240 L 240 360 L 210 270 L 120 240 L 240 240 Z M 240 240 L 120 240 L 120 360 L 240 360 Z" fill="#10a020" />
  <path d="M 120 0 L 120 60 L 60 60 L 60 0 Z" fill="#10a020" />
  <path d="M 480 120 L 420 120 L 420 60 L 480 60 Z" fill="#10a020" />
  <path d="M 360 480 L 360 420 L 420 420 L 420 480 Z" fill="#10a020" />
  <path d="M 0 360 L 60 360 L 60 420 L 0 420 Z" fill="#10a020" />
  <path d="M 240 0 L 240 120 L 120 0 Z" fill="#10a020" />
  <path d="M 240 120 L 360 0 L 330 90 Z M 360 120 L 360 0 L 240 0 L 240 120 Z" fill="#10a020" />
  <path d="M 480 240 L 360 240 L 480 120 Z" fill="#10a020" />
  <path d="M 360 240 L 480 360 L 390 330 Z M 360 360 L 480 360 L 480 240 L 360 240 Z" fill="#10a020" />
  <path d="M 240 480 L 240 360 L 360 480 Z" fill="#10a020" />
  <path d="M 240 360 L 120 480 L 150 390 Z M 120 360 L 120 480 L 240 480 L 240 360 Z" fill="#10a020" />
  <path d="M 0 240 L 120 240 L 0 360 Z" fill="#10a020" />
  <path d="M 120 240 L 0 120 L 90 150 Z M 120 120 L 0 120 L 0 240 L 120 240 Z" fill="#10a020" />
</svg>
