<?xml version="1.0" standalone="no"?>
<!DOCTYPE svg PUBLIC
   "-//W3C//DTD SVG 1.1/EN"
   "http://www.w3.org/Graphics/SVG/1.1/DTD/svg11.dtd">

<svg width="360" height="360" version="1.1"
     xmlns="http://www.w3.org/2000/svg">
  <title>a boring SVG shape</title>
  <desc>
    Lua generator commit: 2472d776
    Generated from hex: f5ac1049 8a98a906
    1 1 shape=5 turn=0 invert=0
    0 0 shape=10 turn=0 invert=0
    2 0 shape=10 turn=1 invert=0
    2 2 shape=10 turn=2 invert=0
    0 2 shape=10 turn=3 invert=0
    1 0 shape=5 turn=0 invert=0
    2 1 shape=5 turn=1 invert=0
    1 2 shape=5 turn=2 invert=0
    0 1 shape=5 turn=3 invert=0
  </desc>
  <path d="M 180 120 L 240 180 L 180 240 L 120 180 Z" fill="#f0b0b0" />
  <path d="M 120 0 L 0 120 L 0 60 L 60 60 L 60 0 Z" fill="#f0b0b0" />
  <path d="M 360 120 L 240 0 L 300 0 L 300 60 L 360 60 Z" fill="#f0b0b0" />
  <path d="M 240 360 L 360 240 L 360 300 L 300 300 L 300 360 Z" fill="#f0b0b0" />
  <path d="M 0 240 L 120 360 L 60 360 L 60 300 L 0 300 Z" fill="#f0b0b0" />
  <path d="M 180 0 L 240 60 L 180 120 L 120 60 Z" fill="#f0b0b0" />
  <path d="M 360 180 L 300 240 L 240 180 L 300 120 Z" fill="#f0b0b0" />
  <path d="M 180 360 L 120 300 L 180 240 L 240 300 Z" fill="#f0b0b0" />
  <path d="M 0 180 L 60 120 L 120 180 L 60 240 Z" fill="#f0b0b0" />
</svg>
