<?xml version="1.0" standalone="no"?>
<!DOCTYPE svg PUBLIC
   "-//W3C//DTD SVG 1.1/EN"
   "http://www.w3.org/Graphics/SVG/1.1/DTD/svg11.dtd">

<svg width="600" height="600" version="1.1"
     xmlns="http://www.w3.org/2000/svg">
  <title>a boring SVG shape</title>
  <desc>
    Lua generator commit: 2472d776
    Generated from hex: 66b6a2eb 0a62e04c
    2 2 shape=5 turn=0 invert=0
    1 1 shape=14 turn=2 invert=1
    3 1 shape=14 turn=3 invert=1
    3 3 shape=14 turn=4 invert=1
    1 3 shape=14 turn=5 invert=1
    2 1 shape=9 turn=1 invert=0
    3 2 shape=9 turn=2 invert=0
    2 3 shape=9 turn=3 invert=0
    1 2 shape=9 turn=4 invert=0
    0 0 shape=13 turn=2 invert=0
    4 0 shape=13 turn=3 invert=0
    4 4 shape=13 turn=4 invert=0
    0 4 shape=13 turn=5 invert=0
    2 0 shape=1 turn=2 invert=0
    4 2 shape=1 turn=3 invert=0
    2 4 shape=1 turn=4 invert=0
    0 2 shape=1 turn=5 invert=0
    1 0 shape=12 turn=0 invert=0
    3 0 shape=12 turn=1 invert=0
    4 1 shape=12 turn=1 invert=0
    4 3 shape=12 turn=2 invert=0
    3 4 shape=12 turn=2 invert=0
    1 4 shape=12 turn=3 invert=0
    0 3 shape=12 turn=3 invert=0
    0 1 shape=12 turn=0 invert=0
  </desc>
  <path d="M 300 240 L 360 300 L 300 360 L 240 300 Z" fill="#60d0d8" />
  <path d="M 240 240 L 120 240 L 210 210 L 240 120 Z M 240 240 L 240 120 L 120 120 L 120 240 Z" fill="#60d0d8" />
  <path d="M 360 240 L 360 120 L 390 210 L 480 240 Z M 360 240 L 480 240 L 480 120 L 360 120 Z" fill="#60d0d8" />
  <path d="M 360 360 L 480 360 L 390 390 L 360 480 Z M 360 360 L 360 480 L 480 480 L 480 360 Z" fill="#60d0d8" />
  <path d="M 240 360 L 240 480 L 210 390 L 120 360 Z M 240 360 L 120 360 L 120 480 L 240 480 Z" fill="#60d0d8" />
  <path d="M 360 180 L 360 240 L 300 240 L 240 180 L 300 120 L 300 180 Z" fill="#60d0d8" />
  <path d="M 420 360 L 360 360 L 360 300 L 420 240 L 480 300 L 420 300 Z" fill="#60d0d8" />
  <path d="M 240 420 L 240 360 L 300 360 L 360 420 L 300 480 L 300 420 Z" fill="#60d0d8" />
  <path d="M 180 240 L 240 240 L 240 300 L 180 360 L 120 300 L 180 300 Z" fill="#60d0d8" />
  <path d="M 0 120 L 30 30 L 120 0 L 90 90 Z" fill="#60d0d8" />
  <path d="M 480 0 L 570 30 L 600 120 L 510 90 Z" fill="#60d0d8" />
  <path d="M 600 480 L 570 570 L 480 600 L 510 510 Z" fill="#60d0d8" />
  <path d="M 120 600 L 30 570 L 0 480 L 90 510 Z" fill="#60d0d8" />
  <path d="M 360 120 L 240 120 L 240 0 L 360 0 Z" fill="#60d0d8" />
  <path d="M 480 360 L 480 240 L 600 240 L 600 360 Z" fill="#60d0d8" />
  <path d="M 240 480 L 360 480 L 360 600 L 240 600 Z" fill="#60d0d8" />
  <path d="M 120 240 L 120 360 L 0 360 L 0 240 Z" fill="#60d0d8" />
  <path d="M 120 0 L 240 0 L 120 120 Z" fill="#60d0d8" />
  <path d="M 480 0 L 480 120 L 360 0 Z" fill="#60d0d8" />
  <path d="M 600 120 L 600 240 L 480 120 Z" fill="#60d0d8" />
  <path d="M 600 480 L 480 480 L 600 360 Z" fill="#60d0d8" />
  <path d="M 480 600 L 360 600 L 480 480 Z" fill="#60d0d8" />
  <path d="M 120 600 L 120 480 L 240 600 Z" fill="#60d0d8" />
  <path d="M 0 480 L 0 360 L 120 480 Z" fill="#60d0d8" />
  <path d="M 0 120 L 120 120 L 0 240 Z" fill="#60d0d8" />
</svg>
