<?xml version="1.0" standalone="no"?>
<!DOCTYPE svg PUBLIC
   "-//W3C//DTD SVG 1.1/EN"
   "http://www.w3.org/Graphics/SVG/1.1/DTD/svg11.dtd">

<svg width="480" height="480" version="1.1"
     xmlns="http://www.w3.org/2000/svg">
  <title>a boring SVG shape</title>
  <desc>
    Lua generator commit: 2472d776
    Generated from hex: ad11123e 66b6a2eb
    1 1 shape=15 turn=1 invert=1
    2 1 shape=15 turn=2 invert=1
    2 2 shape=15 turn=3 invert=1
    1 2 shape=15 turn=4 invert=1
    0 0 shape=5 turn=1 invert=0
    3 0 shape=5 turn=2 invert=0
    3 3 shape=5 turn=3 invert=0
    0 3 shape=5 turn=4 invert=0
    1 0 shape=5 turn=2 invert=0
    2 0 shape=9 turn=3 invert=0
    3 1 shape=5 turn=3 invert=0
    3 2 shape=9 turn=4 invert=0
    2 3 shape=5 turn=4 invert=0
    1 3 shape=9 turn=5 invert=0
    0 2 shape=5 turn=5 invert=0
    0 1 shape=9 turn=6 invert=0
  </desc>
  <path d="M 240 240 L 120 240 L 120 120 L 150 180 L 240 120 L 180 210 Z M 240 120 L 120 120 L 120 240 L 240 240 Z" fill="#a0d010" />
  <path d="M 240 240 L 240 120 L 360 120 L 300 150 L 360 240 L 270 180 Z M 360 240 L 360 120 L 240 120 L 240 240 Z" fill="#a0d010" />
  <path d="M 240 240 L 360 240 L 360 360 L 330 300 L 240 360 L 300 270 Z M 240 360 L 360 360 L 360 240 L 240 240 Z" fill="#a0d010" />
  <path d="M 240 240 L 240 360 L 120 360 L 180 330 L 120 240 L 210 300 Z M 120 240 L 120 360 L 240 360 L 240 240 Z" fill="#a0d010" />
  <path d="M 120 60 L 60 120 L 0 60 L 60 0 Z" fill="#a0d010" />
  <path d="M 420 120 L 360 60 L 420 0 L 480 60 Z" fill="#a0d010" />
  <path d="M 360 420 L 420 360 L 480 420 L 420 480 Z" fill="#a0d010" />
  <path d="M 60 360 L 120 420 L 60 480 L 0 420 Z" fill="#a0d010" />
  <path d="M 180 120 L 120 60 L 180 0 L 240 60 Z" fill="#a0d010" />
  <path d="M 240 60 L 240 0 L 300 0 L 360 60 L 300 120 L 300 60 Z" fill="#a0d010" />
  <path d="M 360 180 L 420 120 L 480 180 L 420 240 Z" fill="#a0d010" />
  <path d="M 420 240 L 480 240 L 480 300 L 420 360 L 360 300 L 420 300 Z" fill="#a0d010" />
  <path d="M 300 360 L 360 420 L 300 480 L 240 420 Z" fill="#a0d010" />
  <path d="M 240 420 L 240 480 L 180 480 L 120 420 L 180 360 L 180 420 Z" fill="#a0d010" />
  <path d="M 120 300 L 60 360 L 0 300 L 60 240 Z" fill="#a0d010" />
  <path d="M 60 240 L 0 240 L 0 180 L 60 120 L 120 180 L 60 180 Z" fill="#a0d010" />
</svg>
