<?xml version="1.0" standalone="no"?>
<!DOCTYPE svg PUBLIC
   "-//W3C//DTD SVG 1.1/EN"
   "http://www.w3.org/Graphics/SVG/1.1/DTD/svg11.dtd">

<svg width="480" height="480" version="1.1"
     xmlns="http://www.w3.org/2000/svg">
  <title>a boring SVG shape</title>
  <desc>
    Lua generator commit: 2472d776
    Generated from hex: e66b6a2e b0a62e04
    1 1 shape=15 turn=1 invert=0
    2 1 shape=15 turn=2 invert=0
    2 2 shape=15 turn=3 invert=0
    1 2 shape=15 turn=4 invert=0
    0 0 shape=5 turn=2 invert=1
    3 0 shape=5 turn=3 invert=1
    3 3 shape=5 turn=4 invert=1
    0 3 shape=5 turn=5 invert=1
    1 0 shape=14 turn=1 invert=0
    2 0 shape=14 turn=2 invert=0
    3 1 shape=14 turn=2 invert=0
    3 2 shape=14 turn=3 invert=0
    2 3 shape=14 turn=3 invert=0
    1 3 shape=14 turn=4 invert=0
    0 2 shape=14 turn=4 invert=0
    0 1 shape=14 turn=1 invert=0
  </desc>
  <path d="M 240 240 L 120 240 L 120 120 L 150 180 L 240 120 L 180 210 Z" fill="#e06060" />
  <path d="M 240 240 L 240 120 L 360 120 L 300 150 L 360 240 L 270 180 Z" fill="#e06060" />
  <path d="M 240 240 L 360 240 L 360 360 L 330 300 L 240 360 L 300 270 Z" fill="#e06060" />
  <path d="M 240 240 L 240 360 L 120 360 L 180 330 L 120 240 L 210 300 Z" fill="#e06060" />
  <path d="M 60 120 L 0 60 L 60 0 L 120 60 Z M 120 120 L 120 0 L 0 0 L 0 120 Z" fill="#e06060" />
  <path d="M 360 60 L 420 0 L 480 60 L 420 120 Z M 360 120 L 480 120 L 480 0 L 360 0 Z" fill="#e06060" />
  <path d="M 420 360 L 480 420 L 420 480 L 360 420 Z M 360 360 L 360 480 L 480 480 L 480 360 Z" fill="#e06060" />
  <path d="M 120 420 L 60 480 L 0 420 L 60 360 Z M 120 360 L 0 360 L 0 480 L 120 480 Z" fill="#e06060" />
  <path d="M 240 0 L 240 120 L 210 30 L 120 0 Z" fill="#e06060" />
  <path d="M 360 120 L 240 120 L 330 90 L 360 0 Z" fill="#e06060" />
  <path d="M 480 240 L 360 240 L 450 210 L 480 120 Z" fill="#e06060" />
  <path d="M 360 360 L 360 240 L 390 330 L 480 360 Z" fill="#e06060" />
  <path d="M 240 480 L 240 360 L 270 450 L 360 480 Z" fill="#e06060" />
  <path d="M 120 360 L 240 360 L 150 390 L 120 480 Z" fill="#e06060" />
  <path d="M 0 240 L 120 240 L 30 270 L 0 360 Z" fill="#e06060" />
  <path d="M 120 120 L 120 240 L 90 150 L 0 120 Z" fill="#e06060" />
</svg>
