<?xml version="1.0" standalone="no"?>
<!DOCTYPE svg PUBLIC
   "-//W3C//DTD SVG 1.1/EN"
   "http://www.w3.org/Graphics/SVG/1.1/DTD/svg11.dtd">

<svg width="600" height="600" version="1.1"
     xmlns="http://www.w3.org/2000/svg">
  <title>a boring SVG shape</title>
  <desc>
    Lua generator commit: 2472d776
    Generated from hex: 3e66b6a2 eb0a62e0
    2 2 shape=1 turn=0 invert=0
    1 1 shape=5 turn=2 invert=1
    3 1 shape=5 turn=3 invert=1
    3 3 shape=5 turn=4 invert=1
    1 3 shape=5 turn=5 invert=1
    2 1 shape=14 turn=1 invert=0
    3 2 shape=14 turn=2 invert=0
    2 3 shape=14 turn=3 invert=0
    1 2 shape=14 turn=4 invert=0
    0 0 shape=1 turn=3 invert=0
    4 0 shape=1 turn=4 invert=0
    4 4 shape=1 turn=5 invert=0
    0 4 shape=1 turn=6 invert=0
    2 0 shape=6 turn=2 invert=0
    4 2 shape=6 turn=3 invert=0
    2 4 shape=6 turn=4 invert=0
    0 2 shape=6 turn=5 invert=0
    1 0 shape=10 turn=1 invert=0
    3 0 shape=10 turn=2 invert=0
    4 1 shape=10 turn=2 invert=0
    4 3 shape=10 turn=3 invert=0
    3 4 shape=10 turn=3 invert=0
    1 4 shape=10 turn=4 invert=0
    0 3 shape=10 turn=4 invert=0
    0 1 shape=10 turn=1 invert=0
  </desc>
  <path d="M 240 240 L 360 240 L 360 360 L 240 360 Z" fill="#38c898" />
  <path d="M 180 240 L 120 180 L 180 120 L 240 180 Z M 240 240 L 240 120 L 120 120 L 120 240 Z" fill="#38c898" />
  <path d="M 360 180 L 420 120 L 480 180 L 420 240 Z M 360 240 L 480 240 L 480 120 L 360 120 Z" fill="#38c898" />
  <path d="M 420 360 L 480 420 L 420 480 L 360 420 Z M 360 360 L 360 480 L 480 480 L 480 360 Z" fill="#38c898" />
  <path d="M 240 420 L 180 480 L 120 420 L 180 360 Z M 240 360 L 120 360 L 120 480 L 240 480 Z" fill="#38c898" />
  <path d="M 360 120 L 360 240 L 330 150 L 240 120 Z" fill="#38c898" />
  <path d="M 480 360 L 360 360 L 450 330 L 480 240 Z" fill="#38c898" />
  <path d="M 240 480 L 240 360 L 270 450 L 360 480 Z" fill="#38c898" />
  <path d="M 120 240 L 240 240 L 150 270 L 120 360 Z" fill="#38c898" />
  <path d="M 0 120 L 0 0 L 120 0 L 120 120 Z" fill="#38c898" />
  <path d="M 480 0 L 600 0 L 600 120 L 480 120 Z" fill="#38c898" />
  <path d="M 600 480 L 600 600 L 480 600 L 480 480 Z" fill="#38c898" />
  <path d="M 120 600 L 0 600 L 0 480 L 120 480 Z" fill="#38c898" />
  <path d="M 360 120 L 240 60 L 240 0 L 300 0 Z" fill="#38c898" />
  <path d="M 480 360 L 540 240 L 600 240 L 600 300 Z" fill="#38c898" />
  <path d="M 240 480 L 360 540 L 360 600 L 300 600 Z" fill="#38c898" />
  <path d="M 120 240 L 60 360 L 0 360 L 0 300 Z" fill="#38c898" />
  <path d="M 240 120 L 120 0 L 180 0 L 180 60 L 240 60 Z" fill="#38c898" />
  <path d="M 360 120 L 480 0 L 480 60 L 420 60 L 420 120 Z" fill="#38c898" />
  <path d="M 480 240 L 600 120 L 600 180 L 540 180 L 540 240 Z" fill="#38c898" />
  <path d="M 480 360 L 600 480 L 540 480 L 540 420 L 480 420 Z" fill="#38c898" />
  <path d="M 360 480 L 480 600 L 420 600 L 420 540 L 360 540 Z" fill="#38c898" />
  <path d="M 240 480 L 120 600 L 120 540 L 180 540 L 180 480 Z" fill="#38c898" />
  <path d="M 120 360 L 0 480 L 0 420 L 60 420 L 60 360 Z" fill="#38c898" />
  <path d="M 120 240 L 0 120 L 60 120 L 60 180 L 120 180 Z" fill="#38c898" />
</svg>
