<?xml version="1.0" standalone="no"?>
<!DOCTYPE svg PUBLIC
   "-//W3C//DTD SVG 1.1/EN"
   "http://www.w3.org/Graphics/SVG/1.1/DTD/svg11.dtd">

<svg width="480" height="480" version="1.1"
     xmlns="http://www.w3.org/2000/svg">
  <title>a boring SVG shape</title>
  <desc>
    Lua generator commit: 2472d776
    Generated from hex: 89c94f86 ac3929ca
    1 1 shape=7 turn=0 invert=0
    2 1 shape=7 turn=1 invert=0
    2 2 shape=7 turn=2 invert=0
    1 2 shape=7 turn=3 invert=0
    0 0 shape=16 turn=0 invert=1
    3 0 shape=16 turn=1 invert=1
    3 3 shape=16 turn=2 invert=1
    0 3 shape=16 turn=3 invert=1
    1 0 shape=6 turn=1 invert=0
    2 0 shape=15 turn=2 invert=0
    3 1 shape=6 turn=2 invert=0
    3 2 shape=15 turn=3 invert=0
    2 3 shape=6 turn=3 invert=0
    1 3 shape=15 turn=4 invert=0
    0 2 shape=6 turn=4 invert=0
    0 1 shape=15 turn=5 invert=0
  </desc>
  <path d="M 120 120 L 180 120 L 240 180 L 240 240 Z" fill="#8090c0" />
  <path d="M 360 120 L 360 180 L 300 240 L 240 240 Z" fill="#8090c0" />
  <path d="M 360 360 L 300 360 L 240 300 L 240 240 Z" fill="#8090c0" />
  <path d="M 120 360 L 120 300 L 180 240 L 240 240 Z" fill="#8090c0" />
  <path d="M 120 0 L 90 90 L 0 120 L 120 0 L 30 30 L 0 120 L 0 0 Z M 0 0 L 0 120 L 120 120 L 120 0 Z" fill="#8090c0" />
  <path d="M 480 120 L 390 90 L 360 0 L 480 120 L 450 30 L 360 0 L 480 0 Z M 480 0 L 360 0 L 360 120 L 480 120 Z" fill="#8090c0" />
  <path d="M 360 480 L 390 390 L 480 360 L 360 480 L 450 450 L 480 360 L 480 480 Z M 480 480 L 480 360 L 360 360 L 360 480 Z" fill="#8090c0" />
  <path d="M 0 360 L 90 390 L 120 480 L 0 360 L 30 450 L 120 480 L 0 480 Z M 0 480 L 120 480 L 120 360 L 0 360 Z" fill="#8090c0" />
  <path d="M 240 0 L 180 120 L 120 120 L 120 60 Z" fill="#8090c0" />
  <path d="M 240 120 L 240 0 L 360 0 L 300 30 L 360 120 L 270 60 Z" fill="#8090c0" />
  <path d="M 480 240 L 360 180 L 360 120 L 420 120 Z" fill="#8090c0" />
  <path d="M 360 240 L 480 240 L 480 360 L 450 300 L 360 360 L 420 270 Z" fill="#8090c0" />
  <path d="M 240 480 L 300 360 L 360 360 L 360 420 Z" fill="#8090c0" />
  <path d="M 240 360 L 240 480 L 120 480 L 180 450 L 120 360 L 210 420 Z" fill="#8090c0" />
  <path d="M 0 240 L 120 300 L 120 360 L 60 360 Z" fill="#8090c0" />
  <path d="M 120 240 L 0 240 L 0 120 L 30 180 L 120 120 L 60 210 Z" fill="#8090c0" />
</svg>
