<?xml version="1.0" standalone="no"?>
<!DOCTYPE svg PUBLIC
   "-//W3C//DTD SVG 1.1/EN"
   "http://www.w3.org/Graphics/SVG/1.1/DTD/svg11.dtd">

<svg width="480" height="480" version="1.1"
     xmlns="http://www.w3.org/2000/svg">
  <title>a boring SVG shape</title>
  <desc>
    Lua generator commit: 2472d776
    Generated from hex: ac3929ca 8b9e07a9
    1 1 shape=11 turn=2 invert=0
    2 1 shape=11 turn=3 invert=0
    2 2 shape=11 turn=4 invert=0
    1 2 shape=11 turn=5 invert=0
    0 0 shape=4 turn=2 invert=1
    3 0 shape=4 turn=3 invert=1
    3 3 shape=4 turn=4 invert=1
    0 3 shape=4 turn=5 invert=1
    1 0 shape=5 turn=3 invert=0
    2 0 shape=2 turn=3 invert=0
    3 1 shape=5 turn=4 invert=0
    3 2 shape=2 turn=4 invert=0
    2 3 shape=5 turn=5 invert=0
    1 3 shape=2 turn=5 invert=0
    0 2 shape=5 turn=6 invert=0
    0 1 shape=2 turn=6 invert=0
  </desc>
  <path d="M 240 240 L 180 240 L 180 180 L 240 180 Z" fill="#a0c030" />
  <path d="M 240 240 L 240 180 L 300 180 L 300 240 Z" fill="#a0c030" />
  <path d="M 240 240 L 300 240 L 300 300 L 240 300 Z" fill="#a0c030" />
  <path d="M 240 240 L 240 300 L 180 300 L 180 240 Z" fill="#a0c030" />
  <path d="M 0 120 L 0 0 L 120 0 L 60 30 L 90 90 L 30 60 Z M 120 120 L 120 0 L 0 0 L 0 120 Z" fill="#a0c030" />
  <path d="M 360 0 L 480 0 L 480 120 L 450 60 L 390 90 L 420 30 Z M 360 120 L 480 120 L 480 0 L 360 0 Z" fill="#a0c030" />
  <path d="M 480 360 L 480 480 L 360 480 L 420 450 L 390 390 L 450 420 Z M 360 360 L 360 480 L 480 480 L 480 360 Z" fill="#a0c030" />
  <path d="M 120 480 L 0 480 L 0 360 L 30 420 L 90 390 L 60 450 Z M 120 360 L 0 360 L 0 480 L 120 480 Z" fill="#a0c030" />
  <path d="M 120 60 L 180 0 L 240 60 L 180 120 Z" fill="#a0c030" />
  <path d="M 240 0 L 360 120 L 270 90 Z" fill="#a0c030" />
  <path d="M 420 120 L 480 180 L 420 240 L 360 180 Z" fill="#a0c030" />
  <path d="M 480 240 L 360 360 L 390 270 Z" fill="#a0c030" />
  <path d="M 360 420 L 300 480 L 240 420 L 300 360 Z" fill="#a0c030" />
  <path d="M 240 480 L 120 360 L 210 390 Z" fill="#a0c030" />
  <path d="M 60 360 L 0 300 L 60 240 L 120 300 Z" fill="#a0c030" />
  <path d="M 0 240 L 120 120 L 90 210 Z" fill="#a0c030" />
</svg>
