<?xml version="1.0" standalone="no"?>
<!DOCTYPE svg PUBLIC
   "-//W3C//DTD SVG 1.1/EN"
   "http://www.w3.org/Graphics/SVG/1.1/DTD/svg11.dtd">

<svg width="480" height="480" version="1.1"
     xmlns="http://www.w3.org/2000/svg">
  <title>a boring SVG shape</title>
  <desc>
    Lua generator commit: 2472d776
    Generated from hex: a8b9e07a 94a7452c
    1 1 shape=11 turn=3 invert=1
    2 1 shape=11 turn=4 invert=1
    2 2 shape=11 turn=5 invert=1
    1 2 shape=11 turn=6 invert=1
    0 0 shape=1 turn=2 invert=0
    3 0 shape=1 turn=3 invert=0
    3 3 shape=1 turn=4 invert=0
    0 3 shape=1 turn=5 invert=0
    1 0 shape=8 turn=3 invert=0
    2 0 shape=6 turn=2 invert=0
    3 1 shape=8 turn=4 invert=0
    3 2 shape=6 turn=3 invert=0
    2 3 shape=8 turn=5 invert=0
    1 3 shape=6 turn=4 invert=0
    0 2 shape=8 turn=6 invert=0
    0 1 shape=6 turn=5 invert=0
  </desc>
  <path d="M 120 240 L 120 180 L 180 180 L 180 240 Z M 120 240 L 240 240 L 240 120 L 120 120 Z" fill="#a080b0" />
  <path d="M 240 120 L 300 120 L 300 180 L 240 180 Z M 240 120 L 240 240 L 360 240 L 360 120 Z" fill="#a080b0" />
  <path d="M 360 240 L 360 300 L 300 300 L 300 240 Z M 360 240 L 240 240 L 240 360 L 360 360 Z" fill="#a080b0" />
  <path d="M 240 360 L 180 360 L 180 300 L 240 300 Z M 240 360 L 240 240 L 120 240 L 120 360 Z" fill="#a080b0" />
  <path d="M 120 120 L 0 120 L 0 0 L 120 0 Z" fill="#a080b0" />
  <path d="M 360 120 L 360 0 L 480 0 L 480 120 Z" fill="#a080b0" />
  <path d="M 360 360 L 480 360 L 480 480 L 360 480 Z" fill="#a080b0" />
  <path d="M 120 360 L 120 480 L 0 480 L 0 360 Z" fill="#a080b0" />
  <path d="M 120 120 L 120 60 L 180 60 L 180 0 L 240 60 L 180 120 Z" fill="#a080b0" />
  <path d="M 360 120 L 240 60 L 240 0 L 300 0 Z" fill="#a080b0" />
  <path d="M 360 120 L 420 120 L 420 180 L 480 180 L 420 240 L 360 180 Z" fill="#a080b0" />
  <path d="M 360 360 L 420 240 L 480 240 L 480 300 Z" fill="#a080b0" />
  <path d="M 360 360 L 360 420 L 300 420 L 300 480 L 240 420 L 300 360 Z" fill="#a080b0" />
  <path d="M 120 360 L 240 420 L 240 480 L 180 480 Z" fill="#a080b0" />
  <path d="M 120 360 L 60 360 L 60 300 L 0 300 L 60 240 L 120 300 Z" fill="#a080b0" />
  <path d="M 120 120 L 60 240 L 0 240 L 0 180 Z" fill="#a080b0" />
</svg>
