<?xml version="1.0" standalone="no"?>
<!DOCTYPE svg PUBLIC
   "-//W3C//DTD SVG 1.1/EN"
   "http://www.w3.org/Graphics/SVG/1.1/DTD/svg11.dtd">

<svg width="360" height="360" version="1.1"
     xmlns="http://www.w3.org/2000/svg">
  <title>a boring SVG shape</title>
  <desc>
    Lua generator commit: 2472d776
    Generated from hex: a8b9e07a 94a7452c
    1 1 shape=1 turn=0 invert=0
    0 0 shape=16 turn=0 invert=0
    2 0 shape=16 turn=1 invert=0
    2 2 shape=16 turn=2 invert=0
    0 2 shape=16 turn=3 invert=0
    1 0 shape=9 turn=3 invert=1
    2 1 shape=9 turn=4 invert=1
    1 2 shape=9 turn=5 invert=1
    0 1 shape=9 turn=6 invert=1
  </desc>
  <path d="M 120 120 L 240 120 L 240 240 L 120 240 Z" fill="#a810e0" />
  <path d="M 120 0 L 90 90 L 0 120 L 120 0 L 30 30 L 0 120 L 0 0 Z" fill="#a810e0" />
  <path d="M 360 120 L 270 90 L 240 0 L 360 120 L 330 30 L 240 0 L 360 0 Z" fill="#a810e0" />
  <path d="M 240 360 L 270 270 L 360 240 L 240 360 L 330 330 L 360 240 L 360 360 Z" fill="#a810e0" />
  <path d="M 0 240 L 90 270 L 120 360 L 0 240 L 30 330 L 120 360 L 0 360 Z" fill="#a810e0" />
  <path d="M 120 60 L 120 0 L 180 0 L 240 60 L 180 120 L 180 60 Z M 120 120 L 240 120 L 240 0 L 120 0 Z" fill="#a810e0" />
  <path d="M 300 120 L 360 120 L 360 180 L 300 240 L 240 180 L 300 180 Z M 240 120 L 240 240 L 360 240 L 360 120 Z" fill="#a810e0" />
  <path d="M 240 300 L 240 360 L 180 360 L 120 300 L 180 240 L 180 300 Z M 240 240 L 120 240 L 120 360 L 240 360 Z" fill="#a810e0" />
  <path d="M 60 240 L 0 240 L 0 180 L 60 120 L 120 180 L 60 180 Z M 120 240 L 120 120 L 0 120 L 0 240 Z" fill="#a810e0" />
</svg>
