<?xml version="1.0" standalone="no"?>
<!DOCTYPE svg PUBLIC
   "-//W3C//DTD SVG 1.1/EN"
   "http://www.w3.org/Graphics/SVG/1.1/DTD/svg11.dtd">

<svg width="600" height="600" version="1.1"
     xmlns="http://www.w3.org/2000/svg">
  <title>a boring SVG shape</title>
  <desc>
    Lua generator commit: 2472d776
    Generated from hex: 86ac3929 ca8b9e07
    2 2 shape=5 turn=0 invert=0
    1 1 shape=6 turn=1 invert=0
    3 1 shape=6 turn=2 invert=0
    3 3 shape=6 turn=3 invert=0
    1 3 shape=6 turn=4 invert=0
    2 1 shape=15 turn=0 invert=0
    3 2 shape=15 turn=1 invert=0
    2 3 shape=15 turn=2 invert=0
    1 2 shape=15 turn=3 invert=0
    0 0 shape=8 turn=0 invert=0
    4 0 shape=8 turn=1 invert=0
    4 4 shape=8 turn=2 invert=0
    0 4 shape=8 turn=3 invert=0
    2 0 shape=13 turn=1 invert=1
    4 2 shape=13 turn=2 invert=1
    2 4 shape=13 turn=3 invert=1
    0 2 shape=13 turn=4 invert=1
    1 0 shape=15 turn=1 invert=0
    3 0 shape=15 turn=2 invert=0
    4 1 shape=15 turn=2 invert=0
    4 3 shape=15 turn=3 invert=0
    3 4 shape=15 turn=3 invert=0
    1 4 shape=15 turn=4 invert=0
    0 3 shape=15 turn=4 invert=0
    0 1 shape=15 turn=1 invert=0
  </desc>
  <path d="M 300 240 L 360 300 L 300 360 L 240 300 Z" fill="#80d0b0" />
  <path d="M 240 120 L 180 240 L 120 240 L 120 180 Z" fill="#80d0b0" />
  <path d="M 480 240 L 360 180 L 360 120 L 420 120 Z" fill="#80d0b0" />
  <path d="M 360 480 L 420 360 L 480 360 L 480 420 Z" fill="#80d0b0" />
  <path d="M 120 360 L 240 420 L 240 480 L 180 480 Z" fill="#80d0b0" />
  <path d="M 360 120 L 360 240 L 240 240 L 300 210 L 240 120 L 330 180 Z" fill="#80d0b0" />
  <path d="M 480 360 L 360 360 L 360 240 L 390 300 L 480 240 L 420 330 Z" fill="#80d0b0" />
  <path d="M 240 480 L 240 360 L 360 360 L 300 390 L 360 480 L 270 420 Z" fill="#80d0b0" />
  <path d="M 120 240 L 240 240 L 240 360 L 210 300 L 120 360 L 180 270 Z" fill="#80d0b0" />
  <path d="M 0 0 L 60 0 L 60 60 L 120 60 L 60 120 L 0 60 Z" fill="#80d0b0" />
  <path d="M 600 0 L 600 60 L 540 60 L 540 120 L 480 60 L 540 0 Z" fill="#80d0b0" />
  <path d="M 600 600 L 540 600 L 540 540 L 480 540 L 540 480 L 600 540 Z" fill="#80d0b0" />
  <path d="M 0 600 L 0 540 L 60 540 L 60 480 L 120 540 L 60 600 Z" fill="#80d0b0" />
  <path d="M 360 120 L 270 90 L 240 0 L 330 30 Z M 360 0 L 240 0 L 240 120 L 360 120 Z" fill="#80d0b0" />
  <path d="M 480 360 L 510 270 L 600 240 L 570 330 Z M 600 360 L 600 240 L 480 240 L 480 360 Z" fill="#80d0b0" />
  <path d="M 240 480 L 330 510 L 360 600 L 270 570 Z M 240 600 L 360 600 L 360 480 L 240 480 Z" fill="#80d0b0" />
  <path d="M 120 240 L 90 330 L 0 360 L 30 270 Z M 0 240 L 0 360 L 120 360 L 120 240 Z" fill="#80d0b0" />
  <path d="M 240 120 L 120 120 L 120 0 L 150 60 L 240 0 L 180 90 Z" fill="#80d0b0" />
  <path d="M 360 120 L 360 0 L 480 0 L 420 30 L 480 120 L 390 60 Z" fill="#80d0b0" />
  <path d="M 480 240 L 480 120 L 600 120 L 540 150 L 600 240 L 510 180 Z" fill="#80d0b0" />
  <path d="M 480 360 L 600 360 L 600 480 L 570 420 L 480 480 L 540 390 Z" fill="#80d0b0" />
  <path d="M 360 480 L 480 480 L 480 600 L 450 540 L 360 600 L 420 510 Z" fill="#80d0b0" />
  <path d="M 240 480 L 240 600 L 120 600 L 180 570 L 120 480 L 210 540 Z" fill="#80d0b0" />
  <path d="M 120 360 L 120 480 L 0 480 L 60 450 L 0 360 L 90 420 Z" fill="#80d0b0" />
  <path d="M 120 240 L 0 240 L 0 120 L 30 180 L 120 120 L 60 210 Z" fill="#80d0b0" />
</svg>
