<?xml version="1.0" standalone="no"?>
<!DOCTYPE svg PUBLIC
   "-//W3C//DTD SVG 1.1/EN"
   "http://www.w3.org/Graphics/SVG/1.1/DTD/svg11.dtd">

<svg width="480" height="480" version="1.1"
     xmlns="http://www.w3.org/2000/svg">
  <title>a boring SVG shape</title>
  <desc>
    Lua generator commit: 2472d776
    Generated from hex: 6ac3929c a8b9e07a
    1 1 shape=13 turn=0 invert=1
    2 1 shape=13 turn=1 invert=1
    2 2 shape=13 turn=2 invert=1
    1 2 shape=13 turn=3 invert=1
    0 0 shape=6 turn=1 invert=0
    3 0 shape=6 turn=2 invert=0
    3 3 shape=6 turn=3 invert=0
    0 3 shape=6 turn=4 invert=0
    1 0 shape=15 turn=0 invert=0
    2 0 shape=15 turn=1 invert=0
    3 1 shape=15 turn=1 invert=0
    3 2 shape=15 turn=2 invert=0
    2 3 shape=15 turn=2 invert=0
    1 3 shape=15 turn=3 invert=0
    0 2 shape=15 turn=3 invert=0
    0 1 shape=15 turn=0 invert=0
  </desc>
  <path d="M 240 120 L 210 210 L 120 240 L 150 150 Z M 120 120 L 120 240 L 240 240 L 240 120 Z" fill="#60a0c0" />
  <path d="M 360 240 L 270 210 L 240 120 L 330 150 Z M 360 120 L 240 120 L 240 240 L 360 240 Z" fill="#60a0c0" />
  <path d="M 240 360 L 270 270 L 360 240 L 330 330 Z M 360 360 L 360 240 L 240 240 L 240 360 Z" fill="#60a0c0" />
  <path d="M 120 240 L 210 270 L 240 360 L 150 330 Z M 120 360 L 240 360 L 240 240 L 120 240 Z" fill="#60a0c0" />
  <path d="M 120 0 L 60 120 L 0 120 L 0 60 Z" fill="#60a0c0" />
  <path d="M 480 120 L 360 60 L 360 0 L 420 0 Z" fill="#60a0c0" />
  <path d="M 360 480 L 420 360 L 480 360 L 480 420 Z" fill="#60a0c0" />
  <path d="M 0 360 L 120 420 L 120 480 L 60 480 Z" fill="#60a0c0" />
  <path d="M 240 0 L 240 120 L 120 120 L 180 90 L 120 0 L 210 60 Z" fill="#60a0c0" />
  <path d="M 360 120 L 240 120 L 240 0 L 270 60 L 360 0 L 300 90 Z" fill="#60a0c0" />
  <path d="M 480 240 L 360 240 L 360 120 L 390 180 L 480 120 L 420 210 Z" fill="#60a0c0" />
  <path d="M 360 360 L 360 240 L 480 240 L 420 270 L 480 360 L 390 300 Z" fill="#60a0c0" />
  <path d="M 240 480 L 240 360 L 360 360 L 300 390 L 360 480 L 270 420 Z" fill="#60a0c0" />
  <path d="M 120 360 L 240 360 L 240 480 L 210 420 L 120 480 L 180 390 Z" fill="#60a0c0" />
  <path d="M 0 240 L 120 240 L 120 360 L 90 300 L 0 360 L 60 270 Z" fill="#60a0c0" />
  <path d="M 120 120 L 120 240 L 0 240 L 60 210 L 0 120 L 90 180 Z" fill="#60a0c0" />
</svg>
