<?xml version="1.0" standalone="no"?>
<!DOCTYPE svg PUBLIC
   "-//W3C//DTD SVG 1.1/EN"
   "http://www.w3.org/Graphics/SVG/1.1/DTD/svg11.dtd">

<svg width="480" height="480" version="1.1"
     xmlns="http://www.w3.org/2000/svg">
  <title>a boring SVG shape</title>
  <desc>
    Lua generator commit: 2472d776
    Generated from hex: 9c94f86a c3929ca8
    1 1 shape=11 turn=3 invert=0
    2 1 shape=11 turn=4 invert=0
    2 2 shape=11 turn=5 invert=0
    1 2 shape=11 turn=6 invert=0
    0 0 shape=1 turn=3 invert=1
    3 0 shape=1 turn=4 invert=1
    3 3 shape=1 turn=5 invert=1
    0 3 shape=1 turn=6 invert=1
    1 0 shape=4 turn=2 invert=1
    2 0 shape=5 turn=3 invert=0
    3 1 shape=4 turn=3 invert=1
    3 2 shape=5 turn=4 invert=0
    2 3 shape=4 turn=4 invert=1
    1 3 shape=5 turn=5 invert=0
    0 2 shape=4 turn=5 invert=1
    0 1 shape=5 turn=6 invert=0
  </desc>
  <path d="M 120 240 L 120 180 L 180 180 L 180 240 Z" fill="#90c090" />
  <path d="M 240 120 L 300 120 L 300 180 L 240 180 Z" fill="#90c090" />
  <path d="M 360 240 L 360 300 L 300 300 L 300 240 Z" fill="#90c090" />
  <path d="M 240 360 L 180 360 L 180 300 L 240 300 Z" fill="#90c090" />
  <path d="M 0 120 L 0 0 L 120 0 L 120 120 Z M 0 120 L 120 120 L 120 0 L 0 0 Z" fill="#90c090" />
  <path d="M 360 0 L 480 0 L 480 120 L 360 120 Z M 360 0 L 360 120 L 480 120 L 480 0 Z" fill="#90c090" />
  <path d="M 480 360 L 480 480 L 360 480 L 360 360 Z M 480 360 L 360 360 L 360 480 L 480 480 Z" fill="#90c090" />
  <path d="M 120 480 L 0 480 L 0 360 L 120 360 Z M 120 480 L 120 360 L 0 360 L 0 480 Z" fill="#90c090" />
  <path d="M 120 120 L 120 0 L 240 0 L 180 30 L 210 90 L 150 60 Z M 240 120 L 240 0 L 120 0 L 120 120 Z" fill="#90c090" />
  <path d="M 240 60 L 300 0 L 360 60 L 300 120 Z" fill="#90c090" />
  <path d="M 360 120 L 480 120 L 480 240 L 450 180 L 390 210 L 420 150 Z M 360 240 L 480 240 L 480 120 L 360 120 Z" fill="#90c090" />
  <path d="M 420 240 L 480 300 L 420 360 L 360 300 Z" fill="#90c090" />
  <path d="M 360 360 L 360 480 L 240 480 L 300 450 L 270 390 L 330 420 Z M 240 360 L 240 480 L 360 480 L 360 360 Z" fill="#90c090" />
  <path d="M 240 420 L 180 480 L 120 420 L 180 360 Z" fill="#90c090" />
  <path d="M 120 360 L 0 360 L 0 240 L 30 300 L 90 270 L 60 330 Z M 120 240 L 0 240 L 0 360 L 120 360 Z" fill="#90c090" />
  <path d="M 60 240 L 0 180 L 60 120 L 120 180 Z" fill="#90c090" />
</svg>
