<?xml version="1.0" standalone="no"?>
<!DOCTYPE svg PUBLIC
   "-//W3C//DTD SVG 1.1/EN"
   "http://www.w3.org/Graphics/SVG/1.1/DTD/svg11.dtd">

<svg width="600" height="600" version="1.1"
     xmlns="http://www.w3.org/2000/svg">
  <title>a boring SVG shape</title>
  <desc>
    Lua generator commit: 2472d776
    Generated from hex: 89c94f86 ac3929ca
    2 2 shape=1 turn=0 invert=1
    1 1 shape=1 turn=3 invert=1
    3 1 shape=1 turn=4 invert=1
    3 3 shape=1 turn=5 invert=1
    1 3 shape=1 turn=6 invert=1
    2 1 shape=4 turn=2 invert=1
    3 2 shape=4 turn=3 invert=1
    2 3 shape=4 turn=4 invert=1
    1 2 shape=4 turn=5 invert=1
    0 0 shape=11 turn=2 invert=0
    4 0 shape=11 turn=3 invert=0
    4 4 shape=11 turn=4 invert=0
    0 4 shape=11 turn=5 invert=0
    2 0 shape=4 turn=2 invert=1
    4 2 shape=4 turn=3 invert=1
    2 4 shape=4 turn=4 invert=1
    0 2 shape=4 turn=5 invert=1
    1 0 shape=5 turn=3 invert=0
    3 0 shape=5 turn=4 invert=0
    4 1 shape=5 turn=4 invert=0
    4 3 shape=5 turn=5 invert=0
    3 4 shape=5 turn=5 invert=0
    1 4 shape=5 turn=6 invert=0
    0 3 shape=5 turn=6 invert=0
    0 1 shape=5 turn=3 invert=0
  </desc>
  <path d="M 240 240 L 360 240 L 360 360 L 240 360 Z M 240 240 L 240 360 L 360 360 L 360 240 Z" fill="#883820" />
  <path d="M 120 240 L 120 120 L 240 120 L 240 240 Z M 120 240 L 240 240 L 240 120 L 120 120 Z" fill="#883820" />
  <path d="M 360 120 L 480 120 L 480 240 L 360 240 Z M 360 120 L 360 240 L 480 240 L 480 120 Z" fill="#883820" />
  <path d="M 480 360 L 480 480 L 360 480 L 360 360 Z M 480 360 L 360 360 L 360 480 L 480 480 Z" fill="#883820" />
  <path d="M 240 480 L 120 480 L 120 360 L 240 360 Z M 240 480 L 240 360 L 120 360 L 120 480 Z" fill="#883820" />
  <path d="M 240 240 L 240 120 L 360 120 L 300 150 L 330 210 L 270 180 Z M 360 240 L 360 120 L 240 120 L 240 240 Z" fill="#883820" />
  <path d="M 360 240 L 480 240 L 480 360 L 450 300 L 390 330 L 420 270 Z M 360 360 L 480 360 L 480 240 L 360 240 Z" fill="#883820" />
  <path d="M 360 360 L 360 480 L 240 480 L 300 450 L 270 390 L 330 420 Z M 240 360 L 240 480 L 360 480 L 360 360 Z" fill="#883820" />
  <path d="M 240 360 L 120 360 L 120 240 L 150 300 L 210 270 L 180 330 Z M 240 240 L 120 240 L 120 360 L 240 360 Z" fill="#883820" />
  <path d="M 120 120 L 60 120 L 60 60 L 120 60 Z" fill="#883820" />
  <path d="M 480 120 L 480 60 L 540 60 L 540 120 Z" fill="#883820" />
  <path d="M 480 480 L 540 480 L 540 540 L 480 540 Z" fill="#883820" />
  <path d="M 120 480 L 120 540 L 60 540 L 60 480 Z" fill="#883820" />
  <path d="M 240 120 L 240 0 L 360 0 L 300 30 L 330 90 L 270 60 Z M 360 120 L 360 0 L 240 0 L 240 120 Z" fill="#883820" />
  <path d="M 480 240 L 600 240 L 600 360 L 570 300 L 510 330 L 540 270 Z M 480 360 L 600 360 L 600 240 L 480 240 Z" fill="#883820" />
  <path d="M 360 480 L 360 600 L 240 600 L 300 570 L 270 510 L 330 540 Z M 240 480 L 240 600 L 360 600 L 360 480 Z" fill="#883820" />
  <path d="M 120 360 L 0 360 L 0 240 L 30 300 L 90 270 L 60 330 Z M 120 240 L 0 240 L 0 360 L 120 360 Z" fill="#883820" />
  <path d="M 120 60 L 180 0 L 240 60 L 180 120 Z" fill="#883820" />
  <path d="M 420 0 L 480 60 L 420 120 L 360 60 Z" fill="#883820" />
  <path d="M 540 120 L 600 180 L 540 240 L 480 180 Z" fill="#883820" />
  <path d="M 600 420 L 540 480 L 480 420 L 540 360 Z" fill="#883820" />
  <path d="M 480 540 L 420 600 L 360 540 L 420 480 Z" fill="#883820" />
  <path d="M 180 600 L 120 540 L 180 480 L 240 540 Z" fill="#883820" />
  <path d="M 60 480 L 0 420 L 60 360 L 120 420 Z" fill="#883820" />
  <path d="M 0 180 L 60 120 L 120 180 L 60 240 Z" fill="#883820" />
</svg>
