<?xml version="1.0" standalone="no"?>
<!DOCTYPE svg PUBLIC
   "-//W3C//DTD SVG 1.1/EN"
   "http://www.w3.org/Graphics/SVG/1.1/DTD/svg11.dtd">

<svg width="480" height="480" version="1.1"
     xmlns="http://www.w3.org/2000/svg">
  <title>a boring SVG shape</title>
  <desc>
    Lua generator commit: 2472d776
    Generated from hex: 3929ca8b 9e07a94a
    1 1 shape=12 turn=0 invert=0
    2 1 shape=12 turn=1 invert=0
    2 2 shape=12 turn=2 invert=0
    1 2 shape=12 turn=3 invert=0
    0 0 shape=6 turn=0 invert=1
    3 0 shape=6 turn=1 invert=1
    3 3 shape=6 turn=2 invert=1
    0 3 shape=6 turn=3 invert=1
    1 0 shape=8 turn=1 invert=0
    2 0 shape=10 turn=2 invert=0
    3 1 shape=8 turn=2 invert=0
    3 2 shape=10 turn=3 invert=0
    2 3 shape=8 turn=3 invert=0
    1 3 shape=10 turn=4 invert=0
    0 2 shape=8 turn=4 invert=0
    0 1 shape=10 turn=5 invert=0
  </desc>
  <path d="M 120 120 L 240 120 L 120 240 Z" fill="#309020" />
  <path d="M 360 120 L 360 240 L 240 120 Z" fill="#309020" />
  <path d="M 360 360 L 240 360 L 360 240 Z" fill="#309020" />
  <path d="M 120 360 L 120 240 L 240 360 Z" fill="#309020" />
  <path d="M 0 0 L 120 60 L 120 120 L 60 120 Z M 0 0 L 0 120 L 120 120 L 120 0 Z" fill="#309020" />
  <path d="M 480 0 L 420 120 L 360 120 L 360 60 Z M 480 0 L 360 0 L 360 120 L 480 120 Z" fill="#309020" />
  <path d="M 480 480 L 360 420 L 360 360 L 420 360 Z M 480 480 L 480 360 L 360 360 L 360 480 Z" fill="#309020" />
  <path d="M 0 480 L 60 360 L 120 360 L 120 420 Z M 0 480 L 120 480 L 120 360 L 0 360 Z" fill="#309020" />
  <path d="M 240 0 L 240 60 L 180 60 L 180 120 L 120 60 L 180 0 Z" fill="#309020" />
  <path d="M 240 120 L 360 0 L 360 60 L 300 60 L 300 120 Z" fill="#309020" />
  <path d="M 480 240 L 420 240 L 420 180 L 360 180 L 420 120 L 480 180 Z" fill="#309020" />
  <path d="M 360 240 L 480 360 L 420 360 L 420 300 L 360 300 Z" fill="#309020" />
  <path d="M 240 480 L 240 420 L 300 420 L 300 360 L 360 420 L 300 480 Z" fill="#309020" />
  <path d="M 240 360 L 120 480 L 120 420 L 180 420 L 180 360 Z" fill="#309020" />
  <path d="M 0 240 L 60 240 L 60 300 L 120 300 L 60 360 L 0 300 Z" fill="#309020" />
  <path d="M 120 240 L 0 120 L 60 120 L 60 180 L 120 180 Z" fill="#309020" />
</svg>
