<?xml version="1.0" standalone="no"?>
<!DOCTYPE svg PUBLIC
   "-//W3C//DTD SVG 1.1/EN"
   "http://www.w3.org/Graphics/SVG/1.1/DTD/svg11.dtd">

<svg width="600" height="600" version="1.1"
     xmlns="http://www.w3.org/2000/svg">
  <title>a boring SVG shape</title>
  <desc>
    Lua generator commit: 2472d776
    Generated from hex: 4f86ac39 29ca8b9e
    2 2 shape=5 turn=0 invert=0
    1 1 shape=8 turn=0 invert=0
    3 1 shape=8 turn=1 invert=0
    3 3 shape=8 turn=2 invert=0
    1 3 shape=8 turn=3 invert=0
    2 1 shape=12 turn=1 invert=0
    3 2 shape=12 turn=2 invert=0
    2 3 shape=12 turn=3 invert=0
    1 2 shape=12 turn=4 invert=0
    0 0 shape=15 turn=0 invert=1
    4 0 shape=15 turn=1 invert=1
    4 4 shape=15 turn=2 invert=1
    0 4 shape=15 turn=3 invert=1
    2 0 shape=8 turn=0 invert=1
    4 2 shape=8 turn=1 invert=1
    2 4 shape=8 turn=2 invert=1
    0 2 shape=8 turn=3 invert=1
    1 0 shape=11 turn=1 invert=0
    3 0 shape=11 turn=2 invert=0
    4 1 shape=11 turn=2 invert=0
    4 3 shape=11 turn=3 invert=0
    3 4 shape=11 turn=3 invert=0
    1 4 shape=11 turn=4 invert=0
    0 3 shape=11 turn=4 invert=0
    0 1 shape=11 turn=1 invert=0
  </desc>
  <path d="M 300 240 L 360 300 L 300 360 L 240 300 Z" fill="#48f018" />
  <path d="M 120 120 L 180 120 L 180 180 L 240 180 L 180 240 L 120 180 Z" fill="#48f018" />
  <path d="M 480 120 L 480 180 L 420 180 L 420 240 L 360 180 L 420 120 Z" fill="#48f018" />
  <path d="M 480 480 L 420 480 L 420 420 L 360 420 L 420 360 L 480 420 Z" fill="#48f018" />
  <path d="M 120 480 L 120 420 L 180 420 L 180 360 L 240 420 L 180 480 Z" fill="#48f018" />
  <path d="M 360 120 L 360 240 L 240 120 Z" fill="#48f018" />
  <path d="M 480 360 L 360 360 L 480 240 Z" fill="#48f018" />
  <path d="M 240 480 L 240 360 L 360 480 Z" fill="#48f018" />
  <path d="M 120 240 L 240 240 L 120 360 Z" fill="#48f018" />
  <path d="M 120 0 L 120 120 L 0 120 L 60 90 L 0 0 L 90 60 Z M 0 0 L 0 120 L 120 120 L 120 0 Z" fill="#48f018" />
  <path d="M 600 120 L 480 120 L 480 0 L 510 60 L 600 0 L 540 90 Z M 600 0 L 480 0 L 480 120 L 600 120 Z" fill="#48f018" />
  <path d="M 480 600 L 480 480 L 600 480 L 540 510 L 600 600 L 510 540 Z M 600 600 L 600 480 L 480 480 L 480 600 Z" fill="#48f018" />
  <path d="M 0 480 L 120 480 L 120 600 L 90 540 L 0 600 L 60 510 Z M 0 600 L 120 600 L 120 480 L 0 480 Z" fill="#48f018" />
  <path d="M 240 0 L 300 0 L 300 60 L 360 60 L 300 120 L 240 60 Z M 240 0 L 240 120 L 360 120 L 360 0 Z" fill="#48f018" />
  <path d="M 600 240 L 600 300 L 540 300 L 540 360 L 480 300 L 540 240 Z M 600 240 L 480 240 L 480 360 L 600 360 Z" fill="#48f018" />
  <path d="M 360 600 L 300 600 L 300 540 L 240 540 L 300 480 L 360 540 Z M 360 600 L 360 480 L 240 480 L 240 600 Z" fill="#48f018" />
  <path d="M 0 360 L 0 300 L 60 300 L 60 240 L 120 300 L 60 360 Z M 0 360 L 120 360 L 120 240 L 0 240 Z" fill="#48f018" />
  <path d="M 240 0 L 240 60 L 180 60 L 180 0 Z" fill="#48f018" />
  <path d="M 480 120 L 420 120 L 420 60 L 480 60 Z" fill="#48f018" />
  <path d="M 600 240 L 540 240 L 540 180 L 600 180 Z" fill="#48f018" />
  <path d="M 480 480 L 480 420 L 540 420 L 540 480 Z" fill="#48f018" />
  <path d="M 360 600 L 360 540 L 420 540 L 420 600 Z" fill="#48f018" />
  <path d="M 120 480 L 180 480 L 180 540 L 120 540 Z" fill="#48f018" />
  <path d="M 0 360 L 60 360 L 60 420 L 0 420 Z" fill="#48f018" />
  <path d="M 120 120 L 120 180 L 60 180 L 60 120 Z" fill="#48f018" />
</svg>
