<?xml version="1.0" standalone="no"?>
<!DOCTYPE svg PUBLIC
   "-//W3C//DTD SVG 1.1/EN"
   "http://www.w3.org/Graphics/SVG/1.1/DTD/svg11.dtd">

<svg width="480" height="480" version="1.1"
     xmlns="http://www.w3.org/2000/svg">
  <title>a boring SVG shape</title>
  <desc>
    Lua generator commit: 2472d776
    Generated from hex: c94f86ac 3929ca8b
    1 1 shape=13 turn=1 invert=0
    2 1 shape=13 turn=2 invert=0
    2 2 shape=13 turn=3 invert=0
    1 2 shape=13 turn=4 invert=0
    0 0 shape=14 turn=0 invert=0
    3 0 shape=14 turn=1 invert=0
    3 3 shape=14 turn=2 invert=0
    0 3 shape=14 turn=3 invert=0
    1 0 shape=15 turn=1 invert=1
    2 0 shape=11 turn=2 invert=0
    3 1 shape=15 turn=2 invert=1
    3 2 shape=11 turn=3 invert=0
    2 3 shape=15 turn=3 invert=1
    1 3 shape=11 turn=4 invert=0
    0 2 shape=15 turn=4 invert=1
    0 1 shape=11 turn=5 invert=0
  </desc>
  <path d="M 240 240 L 150 210 L 120 120 L 210 150 Z" fill="#c09040" />
  <path d="M 240 240 L 270 150 L 360 120 L 330 210 Z" fill="#c09040" />
  <path d="M 240 240 L 330 270 L 360 360 L 270 330 Z" fill="#c09040" />
  <path d="M 240 240 L 210 330 L 120 360 L 150 270 Z" fill="#c09040" />
  <path d="M 0 0 L 120 0 L 30 30 L 0 120 Z" fill="#c09040" />
  <path d="M 480 0 L 480 120 L 450 30 L 360 0 Z" fill="#c09040" />
  <path d="M 480 480 L 360 480 L 450 450 L 480 360 Z" fill="#c09040" />
  <path d="M 0 480 L 0 360 L 30 450 L 120 480 Z" fill="#c09040" />
  <path d="M 240 120 L 120 120 L 120 0 L 150 60 L 240 0 L 180 90 Z M 240 0 L 120 0 L 120 120 L 240 120 Z" fill="#c09040" />
  <path d="M 360 120 L 300 120 L 300 60 L 360 60 Z" fill="#c09040" />
  <path d="M 360 240 L 360 120 L 480 120 L 420 150 L 480 240 L 390 180 Z M 480 240 L 480 120 L 360 120 L 360 240 Z" fill="#c09040" />
  <path d="M 360 360 L 360 300 L 420 300 L 420 360 Z" fill="#c09040" />
  <path d="M 240 360 L 360 360 L 360 480 L 330 420 L 240 480 L 300 390 Z M 240 480 L 360 480 L 360 360 L 240 360 Z" fill="#c09040" />
  <path d="M 120 360 L 180 360 L 180 420 L 120 420 Z" fill="#c09040" />
  <path d="M 120 240 L 120 360 L 0 360 L 60 330 L 0 240 L 90 300 Z M 0 240 L 0 360 L 120 360 L 120 240 Z" fill="#c09040" />
  <path d="M 120 120 L 120 180 L 60 180 L 60 120 Z" fill="#c09040" />
</svg>
