<?xml version="1.0" standalone="no"?>
<!DOCTYPE svg PUBLIC
   "-//W3C//DTD SVG 1.1/EN"
   "http://www.w3.org/Graphics/SVG/1.1/DTD/svg11.dtd">

<svg width="360" height="360" version="1.1"
     xmlns="http://www.w3.org/2000/svg">
  <title>a boring SVG shape</title>
  <desc>
    Lua generator commit: 2472d776
    Generated from hex: 860095ed fa0ca95a
    1 1 shape=5 turn=0 invert=1
    0 0 shape=14 turn=1 invert=1
    2 0 shape=14 turn=2 invert=1
    2 2 shape=14 turn=3 invert=1
    0 2 shape=14 turn=4 invert=1
    1 0 shape=6 turn=1 invert=0
    2 1 shape=6 turn=2 invert=0
    1 2 shape=6 turn=3 invert=0
    0 1 shape=6 turn=4 invert=0
  </desc>
  <path d="M 180 120 L 240 180 L 180 240 L 120 180 Z M 120 120 L 120 240 L 240 240 L 240 120 Z" fill="#80c000" />
  <path d="M 120 0 L 120 120 L 90 30 L 0 0 Z M 120 0 L 0 0 L 0 120 L 120 120 Z" fill="#80c000" />
  <path d="M 360 120 L 240 120 L 330 90 L 360 0 Z M 360 120 L 360 0 L 240 0 L 240 120 Z" fill="#80c000" />
  <path d="M 240 360 L 240 240 L 270 330 L 360 360 Z M 240 360 L 360 360 L 360 240 L 240 240 Z" fill="#80c000" />
  <path d="M 0 240 L 120 240 L 30 270 L 0 360 Z M 0 240 L 0 360 L 120 360 L 120 240 Z" fill="#80c000" />
  <path d="M 240 0 L 180 120 L 120 120 L 120 60 Z" fill="#80c000" />
  <path d="M 360 240 L 240 180 L 240 120 L 300 120 Z" fill="#80c000" />
  <path d="M 120 360 L 180 240 L 240 240 L 240 300 Z" fill="#80c000" />
  <path d="M 0 120 L 120 180 L 120 240 L 60 240 Z" fill="#80c000" />
</svg>
