<?xml version="1.0" standalone="no"?>
<!DOCTYPE svg PUBLIC
   "-//W3C//DTD SVG 1.1/EN"
   "http://www.w3.org/Graphics/SVG/1.1/DTD/svg11.dtd">

<svg width="360" height="360" version="1.1"
     xmlns="http://www.w3.org/2000/svg">
  <title>a boring SVG shape</title>
  <desc>
    Lua generator commit: 2472d776
    Generated from hex: 9661430c f899ab86
    1 1 shape=1 turn=0 invert=1
    0 0 shape=2 turn=3 invert=0
    2 0 shape=2 turn=4 invert=0
    2 2 shape=2 turn=5 invert=0
    0 2 shape=2 turn=6 invert=0
    1 0 shape=1 turn=2 invert=1
    2 1 shape=1 turn=3 invert=1
    1 2 shape=1 turn=4 invert=1
    0 1 shape=1 turn=5 invert=1
  </desc>
  <path d="M 120 120 L 240 120 L 240 240 L 120 240 Z M 120 120 L 120 240 L 240 240 L 240 120 Z" fill="#90c880" />
  <path d="M 0 0 L 120 120 L 30 90 Z" fill="#90c880" />
  <path d="M 360 0 L 240 120 L 270 30 Z" fill="#90c880" />
  <path d="M 360 360 L 240 240 L 330 270 Z" fill="#90c880" />
  <path d="M 0 360 L 120 240 L 90 330 Z" fill="#90c880" />
  <path d="M 240 120 L 120 120 L 120 0 L 240 0 Z M 240 120 L 240 0 L 120 0 L 120 120 Z" fill="#90c880" />
  <path d="M 240 240 L 240 120 L 360 120 L 360 240 Z M 240 240 L 360 240 L 360 120 L 240 120 Z" fill="#90c880" />
  <path d="M 120 240 L 240 240 L 240 360 L 120 360 Z M 120 240 L 120 360 L 240 360 L 240 240 Z" fill="#90c880" />
  <path d="M 120 120 L 120 240 L 0 240 L 0 120 Z M 120 120 L 0 120 L 0 240 L 120 240 Z" fill="#90c880" />
</svg>
