<?xml version="1.0" standalone="no"?>
<!DOCTYPE svg PUBLIC
   "-//W3C//DTD SVG 1.1/EN"
   "http://www.w3.org/Graphics/SVG/1.1/DTD/svg11.dtd">

<svg width="600" height="600" version="1.1"
     xmlns="http://www.w3.org/2000/svg">
  <title>a boring SVG shape</title>
  <desc>
    Lua generator commit: 2472d776
    Generated from hex: 1430cf89 9ab86009
    2 2 shape=5 turn=0 invert=0
    1 1 shape=2 turn=3 invert=1
    3 1 shape=2 turn=4 invert=1
    3 3 shape=2 turn=5 invert=1
    1 3 shape=2 turn=6 invert=1
    2 1 shape=4 turn=1 invert=1
    3 2 shape=4 turn=2 invert=1
    2 3 shape=4 turn=3 invert=1
    1 2 shape=4 turn=4 invert=1
    0 0 shape=10 turn=0 invert=0
    4 0 shape=10 turn=1 invert=0
    4 4 shape=10 turn=2 invert=0
    0 4 shape=10 turn=3 invert=0
    2 0 shape=1 turn=2 invert=0
    4 2 shape=1 turn=3 invert=0
    2 4 shape=1 turn=4 invert=0
    0 2 shape=1 turn=5 invert=0
    1 0 shape=2 turn=3 invert=0
    3 0 shape=2 turn=4 invert=0
    4 1 shape=2 turn=4 invert=0
    4 3 shape=2 turn=5 invert=0
    3 4 shape=2 turn=5 invert=0
    1 4 shape=2 turn=6 invert=0
    0 3 shape=2 turn=6 invert=0
    0 1 shape=2 turn=3 invert=0
  </desc>
  <path d="M 300 240 L 360 300 L 300 360 L 240 300 Z" fill="#1080c0" />
  <path d="M 120 120 L 240 240 L 150 210 Z M 120 240 L 240 240 L 240 120 L 120 120 Z" fill="#1080c0" />
  <path d="M 480 120 L 360 240 L 390 150 Z M 360 120 L 360 240 L 480 240 L 480 120 Z" fill="#1080c0" />
  <path d="M 480 480 L 360 360 L 450 390 Z M 480 360 L 360 360 L 360 480 L 480 480 Z" fill="#1080c0" />
  <path d="M 120 480 L 240 360 L 210 450 Z M 240 480 L 240 360 L 120 360 L 120 480 Z" fill="#1080c0" />
  <path d="M 360 240 L 240 240 L 240 120 L 270 180 L 330 150 L 300 210 Z M 360 120 L 240 120 L 240 240 L 360 240 Z" fill="#1080c0" />
  <path d="M 360 360 L 360 240 L 480 240 L 420 270 L 450 330 L 390 300 Z M 480 360 L 480 240 L 360 240 L 360 360 Z" fill="#1080c0" />
  <path d="M 240 360 L 360 360 L 360 480 L 330 420 L 270 450 L 300 390 Z M 240 480 L 360 480 L 360 360 L 240 360 Z" fill="#1080c0" />
  <path d="M 240 240 L 240 360 L 120 360 L 180 330 L 150 270 L 210 300 Z M 120 240 L 120 360 L 240 360 L 240 240 Z" fill="#1080c0" />
  <path d="M 120 0 L 0 120 L 0 60 L 60 60 L 60 0 Z" fill="#1080c0" />
  <path d="M 600 120 L 480 0 L 540 0 L 540 60 L 600 60 Z" fill="#1080c0" />
  <path d="M 480 600 L 600 480 L 600 540 L 540 540 L 540 600 Z" fill="#1080c0" />
  <path d="M 0 480 L 120 600 L 60 600 L 60 540 L 0 540 Z" fill="#1080c0" />
  <path d="M 360 120 L 240 120 L 240 0 L 360 0 Z" fill="#1080c0" />
  <path d="M 480 360 L 480 240 L 600 240 L 600 360 Z" fill="#1080c0" />
  <path d="M 240 480 L 360 480 L 360 600 L 240 600 Z" fill="#1080c0" />
  <path d="M 120 240 L 120 360 L 0 360 L 0 240 Z" fill="#1080c0" />
  <path d="M 120 0 L 240 120 L 150 90 Z" fill="#1080c0" />
  <path d="M 480 0 L 360 120 L 390 30 Z" fill="#1080c0" />
  <path d="M 600 120 L 480 240 L 510 150 Z" fill="#1080c0" />
  <path d="M 600 480 L 480 360 L 570 390 Z" fill="#1080c0" />
  <path d="M 480 600 L 360 480 L 450 510 Z" fill="#1080c0" />
  <path d="M 120 600 L 240 480 L 210 570 Z" fill="#1080c0" />
  <path d="M 0 480 L 120 360 L 90 450 Z" fill="#1080c0" />
  <path d="M 0 120 L 120 240 L 30 210 Z" fill="#1080c0" />
</svg>
