<?xml version="1.0" standalone="no"?>
<!DOCTYPE svg PUBLIC
   "-//W3C//DTD SVG 1.1/EN"
   "http://www.w3.org/Graphics/SVG/1.1/DTD/svg11.dtd">

<svg width="480" height="480" version="1.1"
     xmlns="http://www.w3.org/2000/svg">
  <title>a boring SVG shape</title>
  <desc>
    Lua generator commit: 2472d776
    Generated from hex: 0cf899ab 860095ed
    1 1 shape=12 turn=1 invert=0
    2 1 shape=12 turn=2 invert=0
    2 2 shape=12 turn=3 invert=0
    1 2 shape=12 turn=4 invert=0
    0 0 shape=4 turn=1 invert=1
    3 0 shape=4 turn=2 invert=1
    3 3 shape=4 turn=3 invert=1
    0 3 shape=4 turn=4 invert=1
    1 0 shape=3 turn=3 invert=0
    2 0 shape=3 turn=4 invert=0
    3 1 shape=3 turn=4 invert=0
    3 2 shape=3 turn=5 invert=0
    2 3 shape=3 turn=5 invert=0
    1 3 shape=3 turn=6 invert=0
    0 2 shape=3 turn=6 invert=0
    0 1 shape=3 turn=3 invert=0
  </desc>
  <path d="M 240 120 L 240 240 L 120 120 Z" fill="#00c0f0" />
  <path d="M 360 240 L 240 240 L 360 120 Z" fill="#00c0f0" />
  <path d="M 240 360 L 240 240 L 360 360 Z" fill="#00c0f0" />
  <path d="M 120 240 L 240 240 L 120 360 Z" fill="#00c0f0" />
  <path d="M 120 120 L 0 120 L 0 0 L 30 60 L 90 30 L 60 90 Z M 120 0 L 0 0 L 0 120 L 120 120 Z" fill="#00c0f0" />
  <path d="M 360 120 L 360 0 L 480 0 L 420 30 L 450 90 L 390 60 Z M 480 120 L 480 0 L 360 0 L 360 120 Z" fill="#00c0f0" />
  <path d="M 360 360 L 480 360 L 480 480 L 450 420 L 390 450 L 420 390 Z M 360 480 L 480 480 L 480 360 L 360 360 Z" fill="#00c0f0" />
  <path d="M 120 360 L 120 480 L 0 480 L 60 450 L 30 390 L 90 420 Z M 0 360 L 0 480 L 120 480 L 120 360 Z" fill="#00c0f0" />
  <path d="M 120 120 L 120 60 L 180 0 L 240 60 L 180 120 Z" fill="#00c0f0" />
  <path d="M 240 0 L 300 0 L 360 60 L 300 120 L 240 60 Z" fill="#00c0f0" />
  <path d="M 360 120 L 420 120 L 480 180 L 420 240 L 360 180 Z" fill="#00c0f0" />
  <path d="M 480 240 L 480 300 L 420 360 L 360 300 L 420 240 Z" fill="#00c0f0" />
  <path d="M 360 360 L 360 420 L 300 480 L 240 420 L 300 360 Z" fill="#00c0f0" />
  <path d="M 240 480 L 180 480 L 120 420 L 180 360 L 240 420 Z" fill="#00c0f0" />
  <path d="M 120 360 L 60 360 L 0 300 L 60 240 L 120 300 Z" fill="#00c0f0" />
  <path d="M 0 240 L 0 180 L 60 120 L 120 180 L 60 240 Z" fill="#00c0f0" />
</svg>
