<?xml version="1.0" standalone="no"?>
<!DOCTYPE svg PUBLIC
   "-//W3C//DTD SVG 1.1/EN"
   "http://www.w3.org/Graphics/SVG/1.1/DTD/svg11.dtd">

<svg width="360" height="360" version="1.1"
     xmlns="http://www.w3.org/2000/svg">
  <title>a boring SVG shape</title>
  <desc>
    Lua generator commit: 2472d776
    Generated from hex: 1430cf89 9ab86009
    1 1 shape=5 turn=0 invert=0
    0 0 shape=2 turn=3 invert=1
    2 0 shape=2 turn=4 invert=1
    2 2 shape=2 turn=5 invert=1
    0 2 shape=2 turn=6 invert=1
    1 0 shape=4 turn=1 invert=1
    2 1 shape=4 turn=2 invert=1
    1 2 shape=4 turn=3 invert=1
    0 1 shape=4 turn=4 invert=1
  </desc>
  <path d="M 180 120 L 240 180 L 180 240 L 120 180 Z" fill="#1080c0" />
  <path d="M 0 0 L 120 120 L 30 90 Z M 0 120 L 120 120 L 120 0 L 0 0 Z" fill="#1080c0" />
  <path d="M 360 0 L 240 120 L 270 30 Z M 240 0 L 240 120 L 360 120 L 360 0 Z" fill="#1080c0" />
  <path d="M 360 360 L 240 240 L 330 270 Z M 360 240 L 240 240 L 240 360 L 360 360 Z" fill="#1080c0" />
  <path d="M 0 360 L 120 240 L 90 330 Z M 120 360 L 120 240 L 0 240 L 0 360 Z" fill="#1080c0" />
  <path d="M 240 120 L 120 120 L 120 0 L 150 60 L 210 30 L 180 90 Z M 240 0 L 120 0 L 120 120 L 240 120 Z" fill="#1080c0" />
  <path d="M 240 240 L 240 120 L 360 120 L 300 150 L 330 210 L 270 180 Z M 360 240 L 360 120 L 240 120 L 240 240 Z" fill="#1080c0" />
  <path d="M 120 240 L 240 240 L 240 360 L 210 300 L 150 330 L 180 270 Z M 120 360 L 240 360 L 240 240 L 120 240 Z" fill="#1080c0" />
  <path d="M 120 120 L 120 240 L 0 240 L 60 210 L 30 150 L 90 180 Z M 0 120 L 0 240 L 120 240 L 120 120 Z" fill="#1080c0" />
</svg>
