<?xml version="1.0" standalone="no"?>
<!DOCTYPE svg PUBLIC
   "-//W3C//DTD SVG 1.1/EN"
   "http://www.w3.org/Graphics/SVG/1.1/DTD/svg11.dtd">

<svg width="600" height="600" version="1.1"
     xmlns="http://www.w3.org/2000/svg">
  <title>a boring SVG shape</title>
  <desc>
    Lua generator commit: 2472d776
    Generated from hex: b860095e dfa0ca95
    2 2 shape=1 turn=0 invert=1
    1 1 shape=12 turn=1 invert=0
    3 1 shape=12 turn=2 invert=0
    3 3 shape=12 turn=3 invert=0
    1 3 shape=12 turn=4 invert=0
    2 1 shape=3 turn=0 invert=0
    3 2 shape=3 turn=1 invert=0
    2 3 shape=3 turn=2 invert=0
    1 2 shape=3 turn=3 invert=0
    0 0 shape=6 turn=0 invert=1
    4 0 shape=6 turn=1 invert=1
    4 4 shape=6 turn=2 invert=1
    0 4 shape=6 turn=3 invert=1
    2 0 shape=6 turn=0 invert=1
    4 2 shape=6 turn=1 invert=1
    2 4 shape=6 turn=2 invert=1
    0 2 shape=6 turn=3 invert=1
    1 0 shape=4 turn=0 invert=0
    3 0 shape=4 turn=1 invert=0
    4 1 shape=4 turn=1 invert=0
    4 3 shape=4 turn=2 invert=0
    3 4 shape=4 turn=2 invert=0
    1 4 shape=4 turn=3 invert=0
    0 3 shape=4 turn=3 invert=0
    0 1 shape=4 turn=0 invert=0
  </desc>
  <path d="M 240 240 L 360 240 L 360 360 L 240 360 Z M 240 240 L 240 360 L 360 360 L 360 240 Z" fill="#b80880" />
  <path d="M 240 120 L 240 240 L 120 120 Z" fill="#b80880" />
  <path d="M 480 240 L 360 240 L 480 120 Z" fill="#b80880" />
  <path d="M 360 480 L 360 360 L 480 480 Z" fill="#b80880" />
  <path d="M 120 360 L 240 360 L 120 480 Z" fill="#b80880" />
  <path d="M 240 120 L 300 120 L 360 180 L 300 240 L 240 180 Z" fill="#b80880" />
  <path d="M 480 240 L 480 300 L 420 360 L 360 300 L 420 240 Z" fill="#b80880" />
  <path d="M 360 480 L 300 480 L 240 420 L 300 360 L 360 420 Z" fill="#b80880" />
  <path d="M 120 360 L 120 300 L 180 240 L 240 300 L 180 360 Z" fill="#b80880" />
  <path d="M 0 0 L 120 60 L 120 120 L 60 120 Z M 0 0 L 0 120 L 120 120 L 120 0 Z" fill="#b80880" />
  <path d="M 600 0 L 540 120 L 480 120 L 480 60 Z M 600 0 L 480 0 L 480 120 L 600 120 Z" fill="#b80880" />
  <path d="M 600 600 L 480 540 L 480 480 L 540 480 Z M 600 600 L 600 480 L 480 480 L 480 600 Z" fill="#b80880" />
  <path d="M 0 600 L 60 480 L 120 480 L 120 540 Z M 0 600 L 120 600 L 120 480 L 0 480 Z" fill="#b80880" />
  <path d="M 240 0 L 360 60 L 360 120 L 300 120 Z M 240 0 L 240 120 L 360 120 L 360 0 Z" fill="#b80880" />
  <path d="M 600 240 L 540 360 L 480 360 L 480 300 Z M 600 240 L 480 240 L 480 360 L 600 360 Z" fill="#b80880" />
  <path d="M 360 600 L 240 540 L 240 480 L 300 480 Z M 360 600 L 360 480 L 240 480 L 240 600 Z" fill="#b80880" />
  <path d="M 0 360 L 60 240 L 120 240 L 120 300 Z M 0 360 L 120 360 L 120 240 L 0 240 Z" fill="#b80880" />
  <path d="M 240 0 L 240 120 L 120 120 L 180 90 L 150 30 L 210 60 Z" fill="#b80880" />
  <path d="M 480 120 L 360 120 L 360 0 L 390 60 L 450 30 L 420 90 Z" fill="#b80880" />
  <path d="M 600 240 L 480 240 L 480 120 L 510 180 L 570 150 L 540 210 Z" fill="#b80880" />
  <path d="M 480 480 L 480 360 L 600 360 L 540 390 L 570 450 L 510 420 Z" fill="#b80880" />
  <path d="M 360 600 L 360 480 L 480 480 L 420 510 L 450 570 L 390 540 Z" fill="#b80880" />
  <path d="M 120 480 L 240 480 L 240 600 L 210 540 L 150 570 L 180 510 Z" fill="#b80880" />
  <path d="M 0 360 L 120 360 L 120 480 L 90 420 L 30 450 L 60 390 Z" fill="#b80880" />
  <path d="M 120 120 L 120 240 L 0 240 L 60 210 L 30 150 L 90 180 Z" fill="#b80880" />
</svg>
