<?xml version="1.0" standalone="no"?>
<!DOCTYPE svg PUBLIC
   "-//W3C//DTD SVG 1.1/EN"
   "http://www.w3.org/Graphics/SVG/1.1/DTD/svg11.dtd">

<svg width="480" height="480" version="1.1"
     xmlns="http://www.w3.org/2000/svg">
  <title>a boring SVG shape</title>
  <desc>
    Lua generator commit: 2472d776
    Generated from hex: f899ab86 0095edfa
    1 1 shape=7 turn=0 invert=0
    2 1 shape=7 turn=1 invert=0
    2 2 shape=7 turn=2 invert=0
    1 2 shape=7 turn=3 invert=0
    0 0 shape=8 turn=2 invert=1
    3 0 shape=8 turn=3 invert=1
    3 3 shape=8 turn=4 invert=1
    0 3 shape=8 turn=5 invert=1
    1 0 shape=7 turn=3 invert=0
    2 0 shape=5 turn=2 invert=0
    3 1 shape=7 turn=4 invert=0
    3 2 shape=5 turn=3 invert=0
    2 3 shape=7 turn=5 invert=0
    1 3 shape=5 turn=4 invert=0
    0 2 shape=7 turn=6 invert=0
    0 1 shape=5 turn=5 invert=0
  </desc>
  <path d="M 120 120 L 180 120 L 240 180 L 240 240 Z" fill="#f08090" />
  <path d="M 360 120 L 360 180 L 300 240 L 240 240 Z" fill="#f08090" />
  <path d="M 360 360 L 300 360 L 240 300 L 240 240 Z" fill="#f08090" />
  <path d="M 120 360 L 120 300 L 180 240 L 240 240 Z" fill="#f08090" />
  <path d="M 120 120 L 60 120 L 60 60 L 0 60 L 60 0 L 120 60 Z M 120 120 L 120 0 L 0 0 L 0 120 Z" fill="#f08090" />
  <path d="M 360 120 L 360 60 L 420 60 L 420 0 L 480 60 L 420 120 Z M 360 120 L 480 120 L 480 0 L 360 0 Z" fill="#f08090" />
  <path d="M 360 360 L 420 360 L 420 420 L 480 420 L 420 480 L 360 420 Z M 360 360 L 360 480 L 480 480 L 480 360 Z" fill="#f08090" />
  <path d="M 120 360 L 120 420 L 60 420 L 60 480 L 0 420 L 60 360 Z M 120 360 L 0 360 L 0 480 L 120 480 Z" fill="#f08090" />
  <path d="M 120 120 L 120 60 L 180 0 L 240 0 Z" fill="#f08090" />
  <path d="M 300 120 L 240 60 L 300 0 L 360 60 Z" fill="#f08090" />
  <path d="M 360 120 L 420 120 L 480 180 L 480 240 Z" fill="#f08090" />
  <path d="M 360 300 L 420 240 L 480 300 L 420 360 Z" fill="#f08090" />
  <path d="M 360 360 L 360 420 L 300 480 L 240 480 Z" fill="#f08090" />
  <path d="M 180 360 L 240 420 L 180 480 L 120 420 Z" fill="#f08090" />
  <path d="M 120 360 L 60 360 L 0 300 L 0 240 Z" fill="#f08090" />
  <path d="M 120 180 L 60 240 L 0 180 L 60 120 Z" fill="#f08090" />
</svg>
