<?xml version="1.0" standalone="no"?>
<!DOCTYPE svg PUBLIC
   "-//W3C//DTD SVG 1.1/EN"
   "http://www.w3.org/Graphics/SVG/1.1/DTD/svg11.dtd">

<svg width="600" height="600" version="1.1"
     xmlns="http://www.w3.org/2000/svg">
  <title>a boring SVG shape</title>
  <desc>
    Lua generator commit: 2472d776
    Generated from hex: 61430cf8 99ab8600
    2 2 shape=1 turn=0 invert=0
    1 1 shape=16 turn=0 invert=1
    3 1 shape=16 turn=1 invert=1
    3 3 shape=16 turn=2 invert=1
    1 3 shape=16 turn=3 invert=1
    2 1 shape=4 turn=2 invert=0
    3 2 shape=4 turn=3 invert=0
    2 3 shape=4 turn=4 invert=0
    1 2 shape=4 turn=5 invert=0
    0 0 shape=1 turn=0 invert=0
    4 0 shape=1 turn=1 invert=0
    4 4 shape=1 turn=2 invert=0
    0 4 shape=1 turn=3 invert=0
    2 0 shape=13 turn=0 invert=0
    4 2 shape=13 turn=1 invert=0
    2 4 shape=13 turn=2 invert=0
    0 2 shape=13 turn=3 invert=0
    1 0 shape=15 turn=1 invert=0
    3 0 shape=15 turn=2 invert=0
    4 1 shape=15 turn=2 invert=0
    4 3 shape=15 turn=3 invert=0
    3 4 shape=15 turn=3 invert=0
    1 4 shape=15 turn=4 invert=0
    0 3 shape=15 turn=4 invert=0
    0 1 shape=15 turn=1 invert=0
  </desc>
  <path d="M 240 240 L 360 240 L 360 360 L 240 360 Z" fill="#602808" />
  <path d="M 240 120 L 210 210 L 120 240 L 240 120 L 150 150 L 120 240 L 120 120 Z M 120 120 L 120 240 L 240 240 L 240 120 Z" fill="#602808" />
  <path d="M 480 240 L 390 210 L 360 120 L 480 240 L 450 150 L 360 120 L 480 120 Z M 480 120 L 360 120 L 360 240 L 480 240 Z" fill="#602808" />
  <path d="M 360 480 L 390 390 L 480 360 L 360 480 L 450 450 L 480 360 L 480 480 Z M 480 480 L 480 360 L 360 360 L 360 480 Z" fill="#602808" />
  <path d="M 120 360 L 210 390 L 240 480 L 120 360 L 150 450 L 240 480 L 120 480 Z M 120 480 L 240 480 L 240 360 L 120 360 Z" fill="#602808" />
  <path d="M 240 240 L 240 120 L 360 120 L 300 150 L 330 210 L 270 180 Z" fill="#602808" />
  <path d="M 360 240 L 480 240 L 480 360 L 450 300 L 390 330 L 420 270 Z" fill="#602808" />
  <path d="M 360 360 L 360 480 L 240 480 L 300 450 L 270 390 L 330 420 Z" fill="#602808" />
  <path d="M 240 360 L 120 360 L 120 240 L 150 300 L 210 270 L 180 330 Z" fill="#602808" />
  <path d="M 0 0 L 120 0 L 120 120 L 0 120 Z" fill="#602808" />
  <path d="M 600 0 L 600 120 L 480 120 L 480 0 Z" fill="#602808" />
  <path d="M 600 600 L 480 600 L 480 480 L 600 480 Z" fill="#602808" />
  <path d="M 0 600 L 0 480 L 120 480 L 120 600 Z" fill="#602808" />
  <path d="M 360 0 L 330 90 L 240 120 L 270 30 Z" fill="#602808" />
  <path d="M 600 360 L 510 330 L 480 240 L 570 270 Z" fill="#602808" />
  <path d="M 240 600 L 270 510 L 360 480 L 330 570 Z" fill="#602808" />
  <path d="M 0 240 L 90 270 L 120 360 L 30 330 Z" fill="#602808" />
  <path d="M 240 120 L 120 120 L 120 0 L 150 60 L 240 0 L 180 90 Z" fill="#602808" />
  <path d="M 360 120 L 360 0 L 480 0 L 420 30 L 480 120 L 390 60 Z" fill="#602808" />
  <path d="M 480 240 L 480 120 L 600 120 L 540 150 L 600 240 L 510 180 Z" fill="#602808" />
  <path d="M 480 360 L 600 360 L 600 480 L 570 420 L 480 480 L 540 390 Z" fill="#602808" />
  <path d="M 360 480 L 480 480 L 480 600 L 450 540 L 360 600 L 420 510 Z" fill="#602808" />
  <path d="M 240 480 L 240 600 L 120 600 L 180 570 L 120 480 L 210 540 Z" fill="#602808" />
  <path d="M 120 360 L 120 480 L 0 480 L 60 450 L 0 360 L 90 420 Z" fill="#602808" />
  <path d="M 120 240 L 0 240 L 0 120 L 30 180 L 120 120 L 60 210 Z" fill="#602808" />
</svg>
