<?xml version="1.0" standalone="no"?>
<!DOCTYPE svg PUBLIC
   "-//W3C//DTD SVG 1.1/EN"
   "http://www.w3.org/Graphics/SVG/1.1/DTD/svg11.dtd">

<svg width="600" height="600" version="1.1"
     xmlns="http://www.w3.org/2000/svg">
  <title>a boring SVG shape</title>
  <desc>
    Lua generator commit: 2472d776
    Generated from hex: cf899ab8 60095edf
    2 2 shape=1 turn=0 invert=0
    1 1 shape=8 turn=2 invert=1
    3 1 shape=8 turn=3 invert=1
    3 3 shape=8 turn=4 invert=1
    1 3 shape=8 turn=5 invert=1
    2 1 shape=7 turn=3 invert=0
    3 2 shape=7 turn=4 invert=0
    2 3 shape=7 turn=5 invert=0
    1 2 shape=7 turn=6 invert=0
    0 0 shape=16 turn=2 invert=1
    4 0 shape=16 turn=3 invert=1
    4 4 shape=16 turn=4 invert=1
    0 4 shape=16 turn=5 invert=1
    2 0 shape=14 turn=1 invert=1
    4 2 shape=14 turn=2 invert=1
    2 4 shape=14 turn=3 invert=1
    0 2 shape=14 turn=4 invert=1
    1 0 shape=6 turn=1 invert=0
    3 0 shape=6 turn=2 invert=0
    4 1 shape=6 turn=2 invert=0
    4 3 shape=6 turn=3 invert=0
    3 4 shape=6 turn=3 invert=0
    1 4 shape=6 turn=4 invert=0
    0 3 shape=6 turn=4 invert=0
    0 1 shape=6 turn=1 invert=0
  </desc>
  <path d="M 240 240 L 360 240 L 360 360 L 240 360 Z" fill="#c8f020" />
  <path d="M 240 240 L 180 240 L 180 180 L 120 180 L 180 120 L 240 180 Z M 240 240 L 240 120 L 120 120 L 120 240 Z" fill="#c8f020" />
  <path d="M 360 240 L 360 180 L 420 180 L 420 120 L 480 180 L 420 240 Z M 360 240 L 480 240 L 480 120 L 360 120 Z" fill="#c8f020" />
  <path d="M 360 360 L 420 360 L 420 420 L 480 420 L 420 480 L 360 420 Z M 360 360 L 360 480 L 480 480 L 480 360 Z" fill="#c8f020" />
  <path d="M 240 360 L 240 420 L 180 420 L 180 480 L 120 420 L 180 360 Z M 240 360 L 120 360 L 120 480 L 240 480 Z" fill="#c8f020" />
  <path d="M 240 240 L 240 180 L 300 120 L 360 120 Z" fill="#c8f020" />
  <path d="M 360 240 L 420 240 L 480 300 L 480 360 Z" fill="#c8f020" />
  <path d="M 360 360 L 360 420 L 300 480 L 240 480 Z" fill="#c8f020" />
  <path d="M 240 360 L 180 360 L 120 300 L 120 240 Z" fill="#c8f020" />
  <path d="M 0 120 L 30 30 L 120 0 L 0 120 L 90 90 L 120 0 L 120 120 Z M 120 120 L 120 0 L 0 0 L 0 120 Z" fill="#c8f020" />
  <path d="M 480 0 L 570 30 L 600 120 L 480 0 L 510 90 L 600 120 L 480 120 Z M 480 120 L 600 120 L 600 0 L 480 0 Z" fill="#c8f020" />
  <path d="M 600 480 L 570 570 L 480 600 L 600 480 L 510 510 L 480 600 L 480 480 Z M 480 480 L 480 600 L 600 600 L 600 480 Z" fill="#c8f020" />
  <path d="M 120 600 L 30 570 L 0 480 L 120 600 L 90 510 L 0 480 L 120 480 Z M 120 480 L 0 480 L 0 600 L 120 600 Z" fill="#c8f020" />
  <path d="M 360 0 L 360 120 L 330 30 L 240 0 Z M 360 0 L 240 0 L 240 120 L 360 120 Z" fill="#c8f020" />
  <path d="M 600 360 L 480 360 L 570 330 L 600 240 Z M 600 360 L 600 240 L 480 240 L 480 360 Z" fill="#c8f020" />
  <path d="M 240 600 L 240 480 L 270 570 L 360 600 Z M 240 600 L 360 600 L 360 480 L 240 480 Z" fill="#c8f020" />
  <path d="M 0 240 L 120 240 L 30 270 L 0 360 Z M 0 240 L 0 360 L 120 360 L 120 240 Z" fill="#c8f020" />
  <path d="M 240 0 L 180 120 L 120 120 L 120 60 Z" fill="#c8f020" />
  <path d="M 480 120 L 360 60 L 360 0 L 420 0 Z" fill="#c8f020" />
  <path d="M 600 240 L 480 180 L 480 120 L 540 120 Z" fill="#c8f020" />
  <path d="M 480 480 L 540 360 L 600 360 L 600 420 Z" fill="#c8f020" />
  <path d="M 360 600 L 420 480 L 480 480 L 480 540 Z" fill="#c8f020" />
  <path d="M 120 480 L 240 540 L 240 600 L 180 600 Z" fill="#c8f020" />
  <path d="M 0 360 L 120 420 L 120 480 L 60 480 Z" fill="#c8f020" />
  <path d="M 120 120 L 60 240 L 0 240 L 0 180 Z" fill="#c8f020" />
</svg>
