<?xml version="1.0" standalone="no"?>
<!DOCTYPE svg PUBLIC
   "-//W3C//DTD SVG 1.1/EN"
   "http://www.w3.org/Graphics/SVG/1.1/DTD/svg11.dtd">

<svg width="480" height="480" version="1.1"
     xmlns="http://www.w3.org/2000/svg">
  <title>a boring SVG shape</title>
  <desc>
    Lua generator commit: 2472d776
    Generated from hex: ab860095 edfa0ca9
    1 1 shape=6 turn=0 invert=1
    2 1 shape=6 turn=1 invert=1
    2 2 shape=6 turn=2 invert=1
    1 2 shape=6 turn=3 invert=1
    0 0 shape=2 turn=0 invert=0
    3 0 shape=2 turn=1 invert=0
    3 3 shape=2 turn=2 invert=0
    0 3 shape=2 turn=3 invert=0
    1 0 shape=9 turn=0 invert=1
    2 0 shape=9 turn=1 invert=1
    3 1 shape=9 turn=1 invert=1
    3 2 shape=9 turn=2 invert=1
    2 3 shape=9 turn=2 invert=1
    1 3 shape=9 turn=3 invert=1
    0 2 shape=9 turn=3 invert=1
    0 1 shape=9 turn=0 invert=1
  </desc>
  <path d="M 120 120 L 240 180 L 240 240 L 180 240 Z M 120 120 L 120 240 L 240 240 L 240 120 Z" fill="#a0b080" />
  <path d="M 360 120 L 300 240 L 240 240 L 240 180 Z M 360 120 L 240 120 L 240 240 L 360 240 Z" fill="#a0b080" />
  <path d="M 360 360 L 240 300 L 240 240 L 300 240 Z M 360 360 L 360 240 L 240 240 L 240 360 Z" fill="#a0b080" />
  <path d="M 120 360 L 180 240 L 240 240 L 240 300 Z M 120 360 L 240 360 L 240 240 L 120 240 Z" fill="#a0b080" />
  <path d="M 120 0 L 0 120 L 30 30 Z" fill="#a0b080" />
  <path d="M 480 120 L 360 0 L 450 30 Z" fill="#a0b080" />
  <path d="M 360 480 L 480 360 L 450 450 Z" fill="#a0b080" />
  <path d="M 0 360 L 120 480 L 30 450 Z" fill="#a0b080" />
  <path d="M 180 0 L 240 0 L 240 60 L 180 120 L 120 60 L 180 60 Z M 120 0 L 120 120 L 240 120 L 240 0 Z" fill="#a0b080" />
  <path d="M 360 60 L 360 120 L 300 120 L 240 60 L 300 0 L 300 60 Z M 360 0 L 240 0 L 240 120 L 360 120 Z" fill="#a0b080" />
  <path d="M 480 180 L 480 240 L 420 240 L 360 180 L 420 120 L 420 180 Z M 480 120 L 360 120 L 360 240 L 480 240 Z" fill="#a0b080" />
  <path d="M 420 360 L 360 360 L 360 300 L 420 240 L 480 300 L 420 300 Z M 480 360 L 480 240 L 360 240 L 360 360 Z" fill="#a0b080" />
  <path d="M 300 480 L 240 480 L 240 420 L 300 360 L 360 420 L 300 420 Z M 360 480 L 360 360 L 240 360 L 240 480 Z" fill="#a0b080" />
  <path d="M 120 420 L 120 360 L 180 360 L 240 420 L 180 480 L 180 420 Z M 120 480 L 240 480 L 240 360 L 120 360 Z" fill="#a0b080" />
  <path d="M 0 300 L 0 240 L 60 240 L 120 300 L 60 360 L 60 300 Z M 0 360 L 120 360 L 120 240 L 0 240 Z" fill="#a0b080" />
  <path d="M 60 120 L 120 120 L 120 180 L 60 240 L 0 180 L 60 180 Z M 0 120 L 0 240 L 120 240 L 120 120 Z" fill="#a0b080" />
</svg>
