<?xml version="1.0" standalone="no"?>
<!DOCTYPE svg PUBLIC
   "-//W3C//DTD SVG 1.1/EN"
   "http://www.w3.org/Graphics/SVG/1.1/DTD/svg11.dtd">

<svg width="600" height="600" version="1.1"
     xmlns="http://www.w3.org/2000/svg">
  <title>a boring SVG shape</title>
  <desc>
    Lua generator commit: 2472d776
    Generated from hex: feb45070 393ce6ec
    2 2 shape=1 turn=0 invert=0
    1 1 shape=15 turn=0 invert=0
    3 1 shape=15 turn=1 invert=0
    3 3 shape=15 turn=2 invert=0
    1 3 shape=15 turn=3 invert=0
    2 1 shape=5 turn=0 invert=1
    3 2 shape=5 turn=1 invert=1
    2 3 shape=5 turn=2 invert=1
    1 2 shape=5 turn=3 invert=1
    0 0 shape=13 turn=3 invert=0
    4 0 shape=13 turn=4 invert=0
    4 4 shape=13 turn=5 invert=0
    0 4 shape=13 turn=6 invert=0
    2 0 shape=14 turn=2 invert=0
    4 2 shape=14 turn=3 invert=0
    2 4 shape=14 turn=4 invert=0
    0 2 shape=14 turn=5 invert=0
    1 0 shape=4 turn=3 invert=1
    3 0 shape=4 turn=4 invert=1
    4 1 shape=4 turn=4 invert=1
    4 3 shape=4 turn=5 invert=1
    3 4 shape=4 turn=5 invert=1
    1 4 shape=4 turn=6 invert=1
    0 3 shape=4 turn=6 invert=1
    0 1 shape=4 turn=3 invert=1
  </desc>
  <path d="M 240 240 L 360 240 L 360 360 L 240 360 Z" fill="#f8d0d0" />
  <path d="M 240 120 L 240 240 L 120 240 L 180 210 L 120 120 L 210 180 Z" fill="#f8d0d0" />
  <path d="M 480 240 L 360 240 L 360 120 L 390 180 L 480 120 L 420 210 Z" fill="#f8d0d0" />
  <path d="M 360 480 L 360 360 L 480 360 L 420 390 L 480 480 L 390 420 Z" fill="#f8d0d0" />
  <path d="M 120 360 L 240 360 L 240 480 L 210 420 L 120 480 L 180 390 Z" fill="#f8d0d0" />
  <path d="M 300 120 L 360 180 L 300 240 L 240 180 Z M 240 120 L 240 240 L 360 240 L 360 120 Z" fill="#f8d0d0" />
  <path d="M 480 300 L 420 360 L 360 300 L 420 240 Z M 480 240 L 360 240 L 360 360 L 480 360 Z" fill="#f8d0d0" />
  <path d="M 300 480 L 240 420 L 300 360 L 360 420 Z M 360 480 L 360 360 L 240 360 L 240 480 Z" fill="#f8d0d0" />
  <path d="M 120 300 L 180 240 L 240 300 L 180 360 Z M 120 360 L 240 360 L 240 240 L 120 240 Z" fill="#f8d0d0" />
  <path d="M 0 0 L 90 30 L 120 120 L 30 90 Z" fill="#f8d0d0" />
  <path d="M 600 0 L 570 90 L 480 120 L 510 30 Z" fill="#f8d0d0" />
  <path d="M 600 600 L 510 570 L 480 480 L 570 510 Z" fill="#f8d0d0" />
  <path d="M 0 600 L 30 510 L 120 480 L 90 570 Z" fill="#f8d0d0" />
  <path d="M 360 120 L 240 120 L 330 90 L 360 0 Z" fill="#f8d0d0" />
  <path d="M 480 360 L 480 240 L 510 330 L 600 360 Z" fill="#f8d0d0" />
  <path d="M 240 480 L 360 480 L 270 510 L 240 600 Z" fill="#f8d0d0" />
  <path d="M 120 240 L 120 360 L 90 270 L 0 240 Z" fill="#f8d0d0" />
  <path d="M 120 0 L 240 0 L 240 120 L 210 60 L 150 90 L 180 30 Z M 120 120 L 240 120 L 240 0 L 120 0 Z" fill="#f8d0d0" />
  <path d="M 480 0 L 480 120 L 360 120 L 420 90 L 390 30 L 450 60 Z M 360 0 L 360 120 L 480 120 L 480 0 Z" fill="#f8d0d0" />
  <path d="M 600 120 L 600 240 L 480 240 L 540 210 L 510 150 L 570 180 Z M 480 120 L 480 240 L 600 240 L 600 120 Z" fill="#f8d0d0" />
  <path d="M 600 480 L 480 480 L 480 360 L 510 420 L 570 390 L 540 450 Z M 600 360 L 480 360 L 480 480 L 600 480 Z" fill="#f8d0d0" />
  <path d="M 480 600 L 360 600 L 360 480 L 390 540 L 450 510 L 420 570 Z M 480 480 L 360 480 L 360 600 L 480 600 Z" fill="#f8d0d0" />
  <path d="M 120 600 L 120 480 L 240 480 L 180 510 L 210 570 L 150 540 Z M 240 600 L 240 480 L 120 480 L 120 600 Z" fill="#f8d0d0" />
  <path d="M 0 480 L 0 360 L 120 360 L 60 390 L 90 450 L 30 420 Z M 120 480 L 120 360 L 0 360 L 0 480 Z" fill="#f8d0d0" />
  <path d="M 0 120 L 120 120 L 120 240 L 90 180 L 30 210 L 60 150 Z M 0 240 L 120 240 L 120 120 L 0 120 Z" fill="#f8d0d0" />
</svg>
