<?xml version="1.0" standalone="no"?>
<!DOCTYPE svg PUBLIC
   "-//W3C//DTD SVG 1.1/EN"
   "http://www.w3.org/Graphics/SVG/1.1/DTD/svg11.dtd">

<svg width="480" height="480" version="1.1"
     xmlns="http://www.w3.org/2000/svg">
  <title>a boring SVG shape</title>
  <desc>
    Lua generator commit: 2472d776
    Generated from hex: eb450703 93ce6ecc
    1 1 shape=4 turn=0 invert=0
    2 1 shape=4 turn=1 invert=0
    2 2 shape=4 turn=2 invert=0
    1 2 shape=4 turn=3 invert=0
    0 0 shape=15 turn=0 invert=0
    3 0 shape=15 turn=1 invert=0
    3 3 shape=15 turn=2 invert=0
    0 3 shape=15 turn=3 invert=0
    1 0 shape=5 turn=0 invert=1
    2 0 shape=11 turn=2 invert=1
    3 1 shape=5 turn=1 invert=1
    3 2 shape=11 turn=3 invert=1
    2 3 shape=5 turn=2 invert=1
    1 3 shape=11 turn=4 invert=1
    0 2 shape=5 turn=3 invert=1
    0 1 shape=11 turn=5 invert=1
  </desc>
  <path d="M 240 120 L 240 240 L 120 240 L 180 210 L 150 150 L 210 180 Z" fill="#e0b040" />
  <path d="M 360 240 L 240 240 L 240 120 L 270 180 L 330 150 L 300 210 Z" fill="#e0b040" />
  <path d="M 240 360 L 240 240 L 360 240 L 300 270 L 330 330 L 270 300 Z" fill="#e0b040" />
  <path d="M 120 240 L 240 240 L 240 360 L 210 300 L 150 330 L 180 270 Z" fill="#e0b040" />
  <path d="M 120 0 L 120 120 L 0 120 L 60 90 L 0 0 L 90 60 Z" fill="#e0b040" />
  <path d="M 480 120 L 360 120 L 360 0 L 390 60 L 480 0 L 420 90 Z" fill="#e0b040" />
  <path d="M 360 480 L 360 360 L 480 360 L 420 390 L 480 480 L 390 420 Z" fill="#e0b040" />
  <path d="M 0 360 L 120 360 L 120 480 L 90 420 L 0 480 L 60 390 Z" fill="#e0b040" />
  <path d="M 180 0 L 240 60 L 180 120 L 120 60 Z M 120 0 L 120 120 L 240 120 L 240 0 Z" fill="#e0b040" />
  <path d="M 360 120 L 300 120 L 300 60 L 360 60 Z M 360 120 L 360 0 L 240 0 L 240 120 Z" fill="#e0b040" />
  <path d="M 480 180 L 420 240 L 360 180 L 420 120 Z M 480 120 L 360 120 L 360 240 L 480 240 Z" fill="#e0b040" />
  <path d="M 360 360 L 360 300 L 420 300 L 420 360 Z M 360 360 L 480 360 L 480 240 L 360 240 Z" fill="#e0b040" />
  <path d="M 300 480 L 240 420 L 300 360 L 360 420 Z M 360 480 L 360 360 L 240 360 L 240 480 Z" fill="#e0b040" />
  <path d="M 120 360 L 180 360 L 180 420 L 120 420 Z M 120 360 L 120 480 L 240 480 L 240 360 Z" fill="#e0b040" />
  <path d="M 0 300 L 60 240 L 120 300 L 60 360 Z M 0 360 L 120 360 L 120 240 L 0 240 Z" fill="#e0b040" />
  <path d="M 120 120 L 120 180 L 60 180 L 60 120 Z M 120 120 L 0 120 L 0 240 L 120 240 Z" fill="#e0b040" />
</svg>
