<?xml version="1.0" standalone="no"?>
<!DOCTYPE svg PUBLIC
   "-//W3C//DTD SVG 1.1/EN"
   "http://www.w3.org/Graphics/SVG/1.1/DTD/svg11.dtd">

<svg width="600" height="600" version="1.1"
     xmlns="http://www.w3.org/2000/svg">
  <title>a boring SVG shape</title>
  <desc>
    Lua generator commit: 2472d776
    Generated from hex: 393ce6ec cc6f51b1
    2 2 shape=1 turn=0 invert=1
    1 1 shape=14 turn=2 invert=1
    3 1 shape=14 turn=3 invert=1
    3 3 shape=14 turn=4 invert=1
    1 3 shape=14 turn=5 invert=1
    2 1 shape=10 turn=1 invert=1
    3 2 shape=10 turn=2 invert=1
    2 3 shape=10 turn=3 invert=1
    1 2 shape=10 turn=4 invert=1
    0 0 shape=2 turn=1 invert=1
    4 0 shape=2 turn=2 invert=1
    4 4 shape=2 turn=3 invert=1
    0 4 shape=2 turn=4 invert=1
    2 0 shape=4 turn=1 invert=0
    4 2 shape=4 turn=2 invert=0
    2 4 shape=4 turn=3 invert=0
    0 2 shape=4 turn=4 invert=0
    1 0 shape=14 turn=1 invert=1
    3 0 shape=14 turn=2 invert=1
    4 1 shape=14 turn=2 invert=1
    4 3 shape=14 turn=3 invert=1
    3 4 shape=14 turn=3 invert=1
    1 4 shape=14 turn=4 invert=1
    0 3 shape=14 turn=4 invert=1
    0 1 shape=14 turn=1 invert=1
  </desc>
  <path d="M 240 240 L 360 240 L 360 360 L 240 360 Z M 240 240 L 240 360 L 360 360 L 360 240 Z" fill="#3820f0" />
  <path d="M 240 240 L 120 240 L 210 210 L 240 120 Z M 240 240 L 240 120 L 120 120 L 120 240 Z" fill="#3820f0" />
  <path d="M 360 240 L 360 120 L 390 210 L 480 240 Z M 360 240 L 480 240 L 480 120 L 360 120 Z" fill="#3820f0" />
  <path d="M 360 360 L 480 360 L 390 390 L 360 480 Z M 360 360 L 360 480 L 480 480 L 480 360 Z" fill="#3820f0" />
  <path d="M 240 360 L 240 480 L 210 390 L 120 360 Z M 240 360 L 120 360 L 120 480 L 240 480 Z" fill="#3820f0" />
  <path d="M 360 240 L 240 120 L 300 120 L 300 180 L 360 180 Z M 360 120 L 240 120 L 240 240 L 360 240 Z" fill="#3820f0" />
  <path d="M 360 360 L 480 240 L 480 300 L 420 300 L 420 360 Z M 480 360 L 480 240 L 360 240 L 360 360 Z" fill="#3820f0" />
  <path d="M 240 360 L 360 480 L 300 480 L 300 420 L 240 420 Z M 240 480 L 360 480 L 360 360 L 240 360 Z" fill="#3820f0" />
  <path d="M 240 240 L 120 360 L 120 300 L 180 300 L 180 240 Z M 120 240 L 120 360 L 240 360 L 240 240 Z" fill="#3820f0" />
  <path d="M 120 120 L 0 0 L 90 30 Z M 120 0 L 0 0 L 0 120 L 120 120 Z" fill="#3820f0" />
  <path d="M 480 120 L 600 0 L 570 90 Z M 600 120 L 600 0 L 480 0 L 480 120 Z" fill="#3820f0" />
  <path d="M 480 480 L 600 600 L 510 570 Z M 480 600 L 600 600 L 600 480 L 480 480 Z" fill="#3820f0" />
  <path d="M 120 480 L 0 600 L 30 510 Z M 0 480 L 0 600 L 120 600 L 120 480 Z" fill="#3820f0" />
  <path d="M 360 120 L 240 120 L 240 0 L 270 60 L 330 30 L 300 90 Z" fill="#3820f0" />
  <path d="M 480 360 L 480 240 L 600 240 L 540 270 L 570 330 L 510 300 Z" fill="#3820f0" />
  <path d="M 240 480 L 360 480 L 360 600 L 330 540 L 270 570 L 300 510 Z" fill="#3820f0" />
  <path d="M 120 240 L 120 360 L 0 360 L 60 330 L 30 270 L 90 300 Z" fill="#3820f0" />
  <path d="M 240 0 L 240 120 L 210 30 L 120 0 Z M 240 0 L 120 0 L 120 120 L 240 120 Z" fill="#3820f0" />
  <path d="M 480 120 L 360 120 L 450 90 L 480 0 Z M 480 120 L 480 0 L 360 0 L 360 120 Z" fill="#3820f0" />
  <path d="M 600 240 L 480 240 L 570 210 L 600 120 Z M 600 240 L 600 120 L 480 120 L 480 240 Z" fill="#3820f0" />
  <path d="M 480 480 L 480 360 L 510 450 L 600 480 Z M 480 480 L 600 480 L 600 360 L 480 360 Z" fill="#3820f0" />
  <path d="M 360 600 L 360 480 L 390 570 L 480 600 Z M 360 600 L 480 600 L 480 480 L 360 480 Z" fill="#3820f0" />
  <path d="M 120 480 L 240 480 L 150 510 L 120 600 Z M 120 480 L 120 600 L 240 600 L 240 480 Z" fill="#3820f0" />
  <path d="M 0 360 L 120 360 L 30 390 L 0 480 Z M 0 360 L 0 480 L 120 480 L 120 360 Z" fill="#3820f0" />
  <path d="M 120 120 L 120 240 L 90 150 L 0 120 Z M 120 120 L 0 120 L 0 240 L 120 240 Z" fill="#3820f0" />
</svg>
