<?xml version="1.0" standalone="no"?>
<!DOCTYPE svg PUBLIC
   "-//W3C//DTD SVG 1.1/EN"
   "http://www.w3.org/Graphics/SVG/1.1/DTD/svg11.dtd">

<svg width="600" height="600" version="1.1"
     xmlns="http://www.w3.org/2000/svg">
  <title>a boring SVG shape</title>
  <desc>
    Lua generator commit: 2472d776
    Generated from hex: 2befeb45 070393ce
    2 2 shape=5 turn=0 invert=1
    1 1 shape=9 turn=3 invert=0
    3 1 shape=9 turn=4 invert=0
    3 3 shape=9 turn=5 invert=0
    1 3 shape=9 turn=6 invert=0
    2 1 shape=11 turn=3 invert=1
    3 2 shape=11 turn=4 invert=1
    2 3 shape=11 turn=5 invert=1
    1 2 shape=11 turn=6 invert=1
    0 0 shape=15 turn=2 invert=0
    4 0 shape=15 turn=3 invert=0
    4 4 shape=15 turn=4 invert=0
    0 4 shape=15 turn=5 invert=0
    2 0 shape=8 turn=1 invert=0
    4 2 shape=8 turn=2 invert=0
    2 4 shape=8 turn=3 invert=0
    0 2 shape=8 turn=4 invert=0
    1 0 shape=15 turn=0 invert=0
    3 0 shape=15 turn=1 invert=0
    4 1 shape=15 turn=1 invert=0
    4 3 shape=15 turn=2 invert=0
    3 4 shape=15 turn=2 invert=0
    1 4 shape=15 turn=3 invert=0
    0 3 shape=15 turn=3 invert=0
    0 1 shape=15 turn=0 invert=0
  </desc>
  <path d="M 300 240 L 360 300 L 300 360 L 240 300 Z M 240 240 L 240 360 L 360 360 L 360 240 Z" fill="#2878b8" />
  <path d="M 120 180 L 120 120 L 180 120 L 240 180 L 180 240 L 180 180 Z" fill="#2878b8" />
  <path d="M 420 120 L 480 120 L 480 180 L 420 240 L 360 180 L 420 180 Z" fill="#2878b8" />
  <path d="M 480 420 L 480 480 L 420 480 L 360 420 L 420 360 L 420 420 Z" fill="#2878b8" />
  <path d="M 180 480 L 120 480 L 120 420 L 180 360 L 240 420 L 180 420 Z" fill="#2878b8" />
  <path d="M 240 240 L 240 180 L 300 180 L 300 240 Z M 240 240 L 360 240 L 360 120 L 240 120 Z" fill="#2878b8" />
  <path d="M 360 240 L 420 240 L 420 300 L 360 300 Z M 360 240 L 360 360 L 480 360 L 480 240 Z" fill="#2878b8" />
  <path d="M 360 360 L 360 420 L 300 420 L 300 360 Z M 360 360 L 240 360 L 240 480 L 360 480 Z" fill="#2878b8" />
  <path d="M 240 360 L 180 360 L 180 300 L 240 300 Z M 240 360 L 240 240 L 120 240 L 120 360 Z" fill="#2878b8" />
  <path d="M 0 120 L 0 0 L 120 0 L 60 30 L 120 120 L 30 60 Z" fill="#2878b8" />
  <path d="M 480 0 L 600 0 L 600 120 L 570 60 L 480 120 L 540 30 Z" fill="#2878b8" />
  <path d="M 600 480 L 600 600 L 480 600 L 540 570 L 480 480 L 570 540 Z" fill="#2878b8" />
  <path d="M 120 600 L 0 600 L 0 480 L 30 540 L 120 480 L 60 570 Z" fill="#2878b8" />
  <path d="M 360 0 L 360 60 L 300 60 L 300 120 L 240 60 L 300 0 Z" fill="#2878b8" />
  <path d="M 600 360 L 540 360 L 540 300 L 480 300 L 540 240 L 600 300 Z" fill="#2878b8" />
  <path d="M 240 600 L 240 540 L 300 540 L 300 480 L 360 540 L 300 600 Z" fill="#2878b8" />
  <path d="M 0 240 L 60 240 L 60 300 L 120 300 L 60 360 L 0 300 Z" fill="#2878b8" />
  <path d="M 240 0 L 240 120 L 120 120 L 180 90 L 120 0 L 210 60 Z" fill="#2878b8" />
  <path d="M 480 120 L 360 120 L 360 0 L 390 60 L 480 0 L 420 90 Z" fill="#2878b8" />
  <path d="M 600 240 L 480 240 L 480 120 L 510 180 L 600 120 L 540 210 Z" fill="#2878b8" />
  <path d="M 480 480 L 480 360 L 600 360 L 540 390 L 600 480 L 510 420 Z" fill="#2878b8" />
  <path d="M 360 600 L 360 480 L 480 480 L 420 510 L 480 600 L 390 540 Z" fill="#2878b8" />
  <path d="M 120 480 L 240 480 L 240 600 L 210 540 L 120 600 L 180 510 Z" fill="#2878b8" />
  <path d="M 0 360 L 120 360 L 120 480 L 90 420 L 0 480 L 60 390 Z" fill="#2878b8" />
  <path d="M 120 120 L 120 240 L 0 240 L 60 210 L 0 120 L 90 180 Z" fill="#2878b8" />
</svg>
