<?xml version="1.0" standalone="no"?>
<!DOCTYPE svg PUBLIC
   "-//W3C//DTD SVG 1.1/EN"
   "http://www.w3.org/Graphics/SVG/1.1/DTD/svg11.dtd">

<svg width="600" height="600" version="1.1"
     xmlns="http://www.w3.org/2000/svg">
  <title>a boring SVG shape</title>
  <desc>
    Lua generator commit: 2472d776
    Generated from hex: eb450703 93ce6ecc
    2 2 shape=5 turn=0 invert=0
    1 1 shape=1 turn=3 invert=0
    3 1 shape=1 turn=4 invert=0
    3 3 shape=1 turn=5 invert=0
    1 3 shape=1 turn=6 invert=0
    2 1 shape=2 turn=2 invert=0
    3 2 shape=2 turn=3 invert=0
    2 3 shape=2 turn=4 invert=0
    1 2 shape=2 turn=5 invert=0
    0 0 shape=13 turn=2 invert=0
    4 0 shape=13 turn=3 invert=0
    4 4 shape=13 turn=4 invert=0
    0 4 shape=13 turn=5 invert=0
    2 0 shape=14 turn=2 invert=1
    4 2 shape=14 turn=3 invert=1
    2 4 shape=14 turn=4 invert=1
    0 2 shape=14 turn=5 invert=1
    1 0 shape=10 turn=1 invert=1
    3 0 shape=10 turn=2 invert=1
    4 1 shape=10 turn=2 invert=1
    4 3 shape=10 turn=3 invert=1
    3 4 shape=10 turn=3 invert=1
    1 4 shape=10 turn=4 invert=1
    0 3 shape=10 turn=4 invert=1
    0 1 shape=10 turn=1 invert=1
  </desc>
  <path d="M 300 240 L 360 300 L 300 360 L 240 300 Z" fill="#e86810" />
  <path d="M 120 240 L 120 120 L 240 120 L 240 240 Z" fill="#e86810" />
  <path d="M 360 120 L 480 120 L 480 240 L 360 240 Z" fill="#e86810" />
  <path d="M 480 360 L 480 480 L 360 480 L 360 360 Z" fill="#e86810" />
  <path d="M 240 480 L 120 480 L 120 360 L 240 360 Z" fill="#e86810" />
  <path d="M 240 240 L 360 120 L 330 210 Z" fill="#e86810" />
  <path d="M 360 240 L 480 360 L 390 330 Z" fill="#e86810" />
  <path d="M 360 360 L 240 480 L 270 390 Z" fill="#e86810" />
  <path d="M 240 360 L 120 240 L 210 270 Z" fill="#e86810" />
  <path d="M 0 120 L 30 30 L 120 0 L 90 90 Z" fill="#e86810" />
  <path d="M 480 0 L 570 30 L 600 120 L 510 90 Z" fill="#e86810" />
  <path d="M 600 480 L 570 570 L 480 600 L 510 510 Z" fill="#e86810" />
  <path d="M 120 600 L 30 570 L 0 480 L 90 510 Z" fill="#e86810" />
  <path d="M 360 120 L 240 120 L 330 90 L 360 0 Z M 360 120 L 360 0 L 240 0 L 240 120 Z" fill="#e86810" />
  <path d="M 480 360 L 480 240 L 510 330 L 600 360 Z M 480 360 L 600 360 L 600 240 L 480 240 Z" fill="#e86810" />
  <path d="M 240 480 L 360 480 L 270 510 L 240 600 Z M 240 480 L 240 600 L 360 600 L 360 480 Z" fill="#e86810" />
  <path d="M 120 240 L 120 360 L 90 270 L 0 240 Z M 120 240 L 0 240 L 0 360 L 120 360 Z" fill="#e86810" />
  <path d="M 240 120 L 120 0 L 180 0 L 180 60 L 240 60 Z M 240 0 L 120 0 L 120 120 L 240 120 Z" fill="#e86810" />
  <path d="M 360 120 L 480 0 L 480 60 L 420 60 L 420 120 Z M 480 120 L 480 0 L 360 0 L 360 120 Z" fill="#e86810" />
  <path d="M 480 240 L 600 120 L 600 180 L 540 180 L 540 240 Z M 600 240 L 600 120 L 480 120 L 480 240 Z" fill="#e86810" />
  <path d="M 480 360 L 600 480 L 540 480 L 540 420 L 480 420 Z M 480 480 L 600 480 L 600 360 L 480 360 Z" fill="#e86810" />
  <path d="M 360 480 L 480 600 L 420 600 L 420 540 L 360 540 Z M 360 600 L 480 600 L 480 480 L 360 480 Z" fill="#e86810" />
  <path d="M 240 480 L 120 600 L 120 540 L 180 540 L 180 480 Z M 120 480 L 120 600 L 240 600 L 240 480 Z" fill="#e86810" />
  <path d="M 120 360 L 0 480 L 0 420 L 60 420 L 60 360 Z M 0 360 L 0 480 L 120 480 L 120 360 Z" fill="#e86810" />
  <path d="M 120 240 L 0 120 L 60 120 L 60 180 L 120 180 Z M 120 120 L 0 120 L 0 240 L 120 240 Z" fill="#e86810" />
</svg>
