<?xml version="1.0" standalone="no"?>
<!DOCTYPE svg PUBLIC
   "-//W3C//DTD SVG 1.1/EN"
   "http://www.w3.org/Graphics/SVG/1.1/DTD/svg11.dtd">

<svg width="480" height="480" version="1.1"
     xmlns="http://www.w3.org/2000/svg">
  <title>a boring SVG shape</title>
  <desc>
    Lua generator commit: 2472d776
    Generated from hex: 45070393 ce6eccc6
    1 1 shape=4 turn=0 invert=1
    2 1 shape=4 turn=1 invert=1
    2 2 shape=4 turn=2 invert=1
    1 2 shape=4 turn=3 invert=1
    0 0 shape=8 turn=0 invert=0
    3 0 shape=8 turn=1 invert=0
    3 3 shape=8 turn=2 invert=0
    0 3 shape=8 turn=3 invert=0
    1 0 shape=13 turn=0 invert=1
    2 0 shape=9 turn=1 invert=0
    3 1 shape=13 turn=1 invert=1
    3 2 shape=9 turn=2 invert=0
    2 3 shape=13 turn=2 invert=1
    1 3 shape=9 turn=3 invert=0
    0 2 shape=13 turn=3 invert=1
    0 1 shape=9 turn=4 invert=0
  </desc>
  <path d="M 240 120 L 240 240 L 120 240 L 180 210 L 150 150 L 210 180 Z M 120 120 L 120 240 L 240 240 L 240 120 Z" fill="#405000" />
  <path d="M 360 240 L 240 240 L 240 120 L 270 180 L 330 150 L 300 210 Z M 360 120 L 240 120 L 240 240 L 360 240 Z" fill="#405000" />
  <path d="M 240 360 L 240 240 L 360 240 L 300 270 L 330 330 L 270 300 Z M 360 360 L 360 240 L 240 240 L 240 360 Z" fill="#405000" />
  <path d="M 120 240 L 240 240 L 240 360 L 210 300 L 150 330 L 180 270 Z M 120 360 L 240 360 L 240 240 L 120 240 Z" fill="#405000" />
  <path d="M 0 0 L 60 0 L 60 60 L 120 60 L 60 120 L 0 60 Z" fill="#405000" />
  <path d="M 480 0 L 480 60 L 420 60 L 420 120 L 360 60 L 420 0 Z" fill="#405000" />
  <path d="M 480 480 L 420 480 L 420 420 L 360 420 L 420 360 L 480 420 Z" fill="#405000" />
  <path d="M 0 480 L 0 420 L 60 420 L 60 360 L 120 420 L 60 480 Z" fill="#405000" />
  <path d="M 240 0 L 210 90 L 120 120 L 150 30 Z M 120 0 L 120 120 L 240 120 L 240 0 Z" fill="#405000" />
  <path d="M 360 60 L 360 120 L 300 120 L 240 60 L 300 0 L 300 60 Z" fill="#405000" />
  <path d="M 480 240 L 390 210 L 360 120 L 450 150 Z M 480 120 L 360 120 L 360 240 L 480 240 Z" fill="#405000" />
  <path d="M 420 360 L 360 360 L 360 300 L 420 240 L 480 300 L 420 300 Z" fill="#405000" />
  <path d="M 240 480 L 270 390 L 360 360 L 330 450 Z M 360 480 L 360 360 L 240 360 L 240 480 Z" fill="#405000" />
  <path d="M 120 420 L 120 360 L 180 360 L 240 420 L 180 480 L 180 420 Z" fill="#405000" />
  <path d="M 0 240 L 90 270 L 120 360 L 30 330 Z M 0 360 L 120 360 L 120 240 L 0 240 Z" fill="#405000" />
  <path d="M 60 120 L 120 120 L 120 180 L 60 240 L 0 180 L 60 180 Z" fill="#405000" />
</svg>
