<?xml version="1.0" standalone="no"?>
<!DOCTYPE svg PUBLIC
   "-//W3C//DTD SVG 1.1/EN"
   "http://www.w3.org/Graphics/SVG/1.1/DTD/svg11.dtd">

<svg width="600" height="600" version="1.1"
     xmlns="http://www.w3.org/2000/svg">
  <title>a boring SVG shape</title>
  <desc>
    Lua generator commit: 2472d776
    Generated from hex: efeb4507 0393ce6e
    2 2 shape=5 turn=0 invert=1
    1 1 shape=1 turn=1 invert=0
    3 1 shape=1 turn=2 invert=0
    3 3 shape=1 turn=3 invert=0
    1 3 shape=1 turn=4 invert=0
    2 1 shape=2 turn=2 invert=1
    3 2 shape=2 turn=3 invert=1
    2 3 shape=2 turn=4 invert=1
    1 2 shape=2 turn=5 invert=1
    0 0 shape=15 turn=3 invert=0
    4 0 shape=15 turn=4 invert=0
    4 4 shape=15 turn=5 invert=0
    0 4 shape=15 turn=6 invert=0
    2 0 shape=13 turn=0 invert=1
    4 2 shape=13 turn=1 invert=1
    2 4 shape=13 turn=2 invert=1
    0 2 shape=13 turn=3 invert=1
    1 0 shape=16 turn=2 invert=0
    3 0 shape=16 turn=3 invert=0
    4 1 shape=16 turn=3 invert=0
    4 3 shape=16 turn=4 invert=0
    3 4 shape=16 turn=4 invert=0
    1 4 shape=16 turn=5 invert=0
    0 3 shape=16 turn=5 invert=0
    0 1 shape=16 turn=2 invert=0
  </desc>
  <path d="M 300 240 L 360 300 L 300 360 L 240 300 Z M 240 240 L 240 360 L 360 360 L 360 240 Z" fill="#e8f8a8" />
  <path d="M 240 120 L 240 240 L 120 240 L 120 120 Z" fill="#e8f8a8" />
  <path d="M 480 240 L 360 240 L 360 120 L 480 120 Z" fill="#e8f8a8" />
  <path d="M 360 480 L 360 360 L 480 360 L 480 480 Z" fill="#e8f8a8" />
  <path d="M 120 360 L 240 360 L 240 480 L 120 480 Z" fill="#e8f8a8" />
  <path d="M 240 240 L 360 120 L 330 210 Z M 360 240 L 360 120 L 240 120 L 240 240 Z" fill="#e8f8a8" />
  <path d="M 360 240 L 480 360 L 390 330 Z M 360 360 L 480 360 L 480 240 L 360 240 Z" fill="#e8f8a8" />
  <path d="M 360 360 L 240 480 L 270 390 Z M 240 360 L 240 480 L 360 480 L 360 360 Z" fill="#e8f8a8" />
  <path d="M 240 360 L 120 240 L 210 270 Z M 240 240 L 120 240 L 120 360 L 240 360 Z" fill="#e8f8a8" />
  <path d="M 0 0 L 120 0 L 120 120 L 90 60 L 0 120 L 60 30 Z" fill="#e8f8a8" />
  <path d="M 600 0 L 600 120 L 480 120 L 540 90 L 480 0 L 570 60 Z" fill="#e8f8a8" />
  <path d="M 600 600 L 480 600 L 480 480 L 510 540 L 600 480 L 540 570 Z" fill="#e8f8a8" />
  <path d="M 0 600 L 0 480 L 120 480 L 60 510 L 120 600 L 30 540 Z" fill="#e8f8a8" />
  <path d="M 360 0 L 330 90 L 240 120 L 270 30 Z M 240 0 L 240 120 L 360 120 L 360 0 Z" fill="#e8f8a8" />
  <path d="M 600 360 L 510 330 L 480 240 L 570 270 Z M 600 240 L 480 240 L 480 360 L 600 360 Z" fill="#e8f8a8" />
  <path d="M 240 600 L 270 510 L 360 480 L 330 570 Z M 360 600 L 360 480 L 240 480 L 240 600 Z" fill="#e8f8a8" />
  <path d="M 0 240 L 90 270 L 120 360 L 30 330 Z M 0 360 L 120 360 L 120 240 L 0 240 Z" fill="#e8f8a8" />
  <path d="M 120 120 L 150 30 L 240 0 L 120 120 L 210 90 L 240 0 L 240 120 Z" fill="#e8f8a8" />
  <path d="M 360 0 L 450 30 L 480 120 L 360 0 L 390 90 L 480 120 L 360 120 Z" fill="#e8f8a8" />
  <path d="M 480 120 L 570 150 L 600 240 L 480 120 L 510 210 L 600 240 L 480 240 Z" fill="#e8f8a8" />
  <path d="M 600 360 L 570 450 L 480 480 L 600 360 L 510 390 L 480 480 L 480 360 Z" fill="#e8f8a8" />
  <path d="M 480 480 L 450 570 L 360 600 L 480 480 L 390 510 L 360 600 L 360 480 Z" fill="#e8f8a8" />
  <path d="M 240 600 L 150 570 L 120 480 L 240 600 L 210 510 L 120 480 L 240 480 Z" fill="#e8f8a8" />
  <path d="M 120 480 L 30 450 L 0 360 L 120 480 L 90 390 L 0 360 L 120 360 Z" fill="#e8f8a8" />
  <path d="M 0 240 L 30 150 L 120 120 L 0 240 L 90 210 L 120 120 L 120 240 Z" fill="#e8f8a8" />
</svg>
