<?xml version="1.0" standalone="no"?>
<!DOCTYPE svg PUBLIC
   "-//W3C//DTD SVG 1.1/EN"
   "http://www.w3.org/Graphics/SVG/1.1/DTD/svg11.dtd">

<svg width="600" height="600" version="1.1"
     xmlns="http://www.w3.org/2000/svg">
  <title>a boring SVG shape</title>
  <desc>
    Lua generator commit: 2472d776
    Generated from hex: 6f2befeb 45070393
    2 2 shape=5 turn=0 invert=0
    1 1 shape=14 turn=3 invert=1
    3 1 shape=14 turn=4 invert=1
    3 3 shape=14 turn=5 invert=1
    1 3 shape=14 turn=6 invert=1
    2 1 shape=12 turn=3 invert=1
    3 2 shape=12 turn=4 invert=1
    2 3 shape=12 turn=5 invert=1
    1 2 shape=12 turn=6 invert=1
    0 0 shape=4 turn=0 invert=1
    4 0 shape=4 turn=1 invert=1
    4 4 shape=4 turn=2 invert=1
    0 4 shape=4 turn=3 invert=1
    2 0 shape=8 turn=0 invert=0
    4 2 shape=8 turn=1 invert=0
    2 4 shape=8 turn=2 invert=0
    0 2 shape=8 turn=3 invert=0
    1 0 shape=13 turn=0 invert=1
    3 0 shape=13 turn=1 invert=1
    4 1 shape=13 turn=1 invert=1
    4 3 shape=13 turn=2 invert=1
    3 4 shape=13 turn=2 invert=1
    1 4 shape=13 turn=3 invert=1
    0 3 shape=13 turn=3 invert=1
    0 1 shape=13 turn=0 invert=1
  </desc>
  <path d="M 300 240 L 360 300 L 300 360 L 240 300 Z" fill="#68e0a8" />
  <path d="M 120 240 L 120 120 L 150 210 L 240 240 Z M 120 240 L 240 240 L 240 120 L 120 120 Z" fill="#68e0a8" />
  <path d="M 360 120 L 480 120 L 390 150 L 360 240 Z M 360 120 L 360 240 L 480 240 L 480 120 Z" fill="#68e0a8" />
  <path d="M 480 360 L 480 480 L 450 390 L 360 360 Z M 480 360 L 360 360 L 360 480 L 480 480 Z" fill="#68e0a8" />
  <path d="M 240 480 L 120 480 L 210 450 L 240 360 Z M 240 480 L 240 360 L 120 360 L 120 480 Z" fill="#68e0a8" />
  <path d="M 240 240 L 240 120 L 360 240 Z M 240 240 L 360 240 L 360 120 L 240 120 Z" fill="#68e0a8" />
  <path d="M 360 240 L 480 240 L 360 360 Z M 360 240 L 360 360 L 480 360 L 480 240 Z" fill="#68e0a8" />
  <path d="M 360 360 L 360 480 L 240 360 Z M 360 360 L 240 360 L 240 480 L 360 480 Z" fill="#68e0a8" />
  <path d="M 240 360 L 120 360 L 240 240 Z M 240 360 L 240 240 L 120 240 L 120 360 Z" fill="#68e0a8" />
  <path d="M 120 0 L 120 120 L 0 120 L 60 90 L 30 30 L 90 60 Z M 0 0 L 0 120 L 120 120 L 120 0 Z" fill="#68e0a8" />
  <path d="M 600 120 L 480 120 L 480 0 L 510 60 L 570 30 L 540 90 Z M 600 0 L 480 0 L 480 120 L 600 120 Z" fill="#68e0a8" />
  <path d="M 480 600 L 480 480 L 600 480 L 540 510 L 570 570 L 510 540 Z M 600 600 L 600 480 L 480 480 L 480 600 Z" fill="#68e0a8" />
  <path d="M 0 480 L 120 480 L 120 600 L 90 540 L 30 570 L 60 510 Z M 0 600 L 120 600 L 120 480 L 0 480 Z" fill="#68e0a8" />
  <path d="M 240 0 L 300 0 L 300 60 L 360 60 L 300 120 L 240 60 Z" fill="#68e0a8" />
  <path d="M 600 240 L 600 300 L 540 300 L 540 360 L 480 300 L 540 240 Z" fill="#68e0a8" />
  <path d="M 360 600 L 300 600 L 300 540 L 240 540 L 300 480 L 360 540 Z" fill="#68e0a8" />
  <path d="M 0 360 L 0 300 L 60 300 L 60 240 L 120 300 L 60 360 Z" fill="#68e0a8" />
  <path d="M 240 0 L 210 90 L 120 120 L 150 30 Z M 120 0 L 120 120 L 240 120 L 240 0 Z" fill="#68e0a8" />
  <path d="M 480 120 L 390 90 L 360 0 L 450 30 Z M 480 0 L 360 0 L 360 120 L 480 120 Z" fill="#68e0a8" />
  <path d="M 600 240 L 510 210 L 480 120 L 570 150 Z M 600 120 L 480 120 L 480 240 L 600 240 Z" fill="#68e0a8" />
  <path d="M 480 480 L 510 390 L 600 360 L 570 450 Z M 600 480 L 600 360 L 480 360 L 480 480 Z" fill="#68e0a8" />
  <path d="M 360 600 L 390 510 L 480 480 L 450 570 Z M 480 600 L 480 480 L 360 480 L 360 600 Z" fill="#68e0a8" />
  <path d="M 120 480 L 210 510 L 240 600 L 150 570 Z M 120 600 L 240 600 L 240 480 L 120 480 Z" fill="#68e0a8" />
  <path d="M 0 360 L 90 390 L 120 480 L 30 450 Z M 0 480 L 120 480 L 120 360 L 0 360 Z" fill="#68e0a8" />
  <path d="M 120 120 L 90 210 L 0 240 L 30 150 Z M 0 120 L 0 240 L 120 240 L 120 120 Z" fill="#68e0a8" />
</svg>
