<?xml version="1.0" standalone="no"?>
<!DOCTYPE svg PUBLIC
   "-//W3C//DTD SVG 1.1/EN"
   "http://www.w3.org/Graphics/SVG/1.1/DTD/svg11.dtd">

<svg width="360" height="360" version="1.1"
     xmlns="http://www.w3.org/2000/svg">
  <title>a boring SVG shape</title>
  <desc>
    Lua generator commit: 2472d776
    Generated from hex: 0393ce6e ccc6f51b
    1 1 shape=1 turn=0 invert=1
    0 0 shape=14 turn=2 invert=0
    2 0 shape=14 turn=3 invert=0
    2 2 shape=14 turn=4 invert=0
    0 2 shape=14 turn=5 invert=0
    1 0 shape=4 turn=3 invert=1
    2 1 shape=4 turn=4 invert=1
    1 2 shape=4 turn=5 invert=1
    0 1 shape=4 turn=6 invert=1
  </desc>
  <path d="M 120 120 L 240 120 L 240 240 L 120 240 Z M 120 120 L 120 240 L 240 240 L 240 120 Z" fill="#007048" />
  <path d="M 120 120 L 0 120 L 90 90 L 120 0 Z" fill="#007048" />
  <path d="M 240 120 L 240 0 L 270 90 L 360 120 Z" fill="#007048" />
  <path d="M 240 240 L 360 240 L 270 270 L 240 360 Z" fill="#007048" />
  <path d="M 120 240 L 120 360 L 90 270 L 0 240 Z" fill="#007048" />
  <path d="M 120 0 L 240 0 L 240 120 L 210 60 L 150 90 L 180 30 Z M 120 120 L 240 120 L 240 0 L 120 0 Z" fill="#007048" />
  <path d="M 360 120 L 360 240 L 240 240 L 300 210 L 270 150 L 330 180 Z M 240 120 L 240 240 L 360 240 L 360 120 Z" fill="#007048" />
  <path d="M 240 360 L 120 360 L 120 240 L 150 300 L 210 270 L 180 330 Z M 240 240 L 120 240 L 120 360 L 240 360 Z" fill="#007048" />
  <path d="M 0 240 L 0 120 L 120 120 L 60 150 L 90 210 L 30 180 Z M 120 240 L 120 120 L 0 120 L 0 240 Z" fill="#007048" />
</svg>
