<?xml version="1.0" standalone="no"?>
<!DOCTYPE svg PUBLIC
   "-//W3C//DTD SVG 1.1/EN"
   "http://www.w3.org/Graphics/SVG/1.1/DTD/svg11.dtd">

<svg width="360" height="360" version="1.1"
     xmlns="http://www.w3.org/2000/svg">
  <title>a boring SVG shape</title>
  <desc>
    Lua generator commit: 2472d776
    Generated from hex: befeb450 70393ce6
    1 1 shape=1 turn=0 invert=0
    0 0 shape=11 turn=0 invert=0
    2 0 shape=11 turn=1 invert=0
    2 2 shape=11 turn=2 invert=0
    0 2 shape=11 turn=3 invert=0
    1 0 shape=14 turn=1 invert=0
    2 1 shape=14 turn=2 invert=0
    1 2 shape=14 turn=3 invert=0
    0 1 shape=14 turn=4 invert=0
  </desc>
  <path d="M 120 120 L 240 120 L 240 240 L 120 240 Z" fill="#b8d8f8" />
  <path d="M 0 0 L 60 0 L 60 60 L 0 60 Z" fill="#b8d8f8" />
  <path d="M 360 0 L 360 60 L 300 60 L 300 0 Z" fill="#b8d8f8" />
  <path d="M 360 360 L 300 360 L 300 300 L 360 300 Z" fill="#b8d8f8" />
  <path d="M 0 360 L 0 300 L 60 300 L 60 360 Z" fill="#b8d8f8" />
  <path d="M 240 0 L 240 120 L 210 30 L 120 0 Z" fill="#b8d8f8" />
  <path d="M 360 240 L 240 240 L 330 210 L 360 120 Z" fill="#b8d8f8" />
  <path d="M 120 360 L 120 240 L 150 330 L 240 360 Z" fill="#b8d8f8" />
  <path d="M 0 120 L 120 120 L 30 150 L 0 240 Z" fill="#b8d8f8" />
</svg>
