<?xml version="1.0" standalone="no"?>
<!DOCTYPE svg PUBLIC
   "-//W3C//DTD SVG 1.1/EN"
   "http://www.w3.org/Graphics/SVG/1.1/DTD/svg11.dtd">

<svg width="600" height="600" version="1.1"
     xmlns="http://www.w3.org/2000/svg">
  <title>a boring SVG shape</title>
  <desc>
    Lua generator commit: 2472d776
    Generated from hex: 8c1df3e0 041f472b
    2 2 shape=1 turn=0 invert=0
    1 1 shape=13 turn=3 invert=1
    3 1 shape=13 turn=4 invert=1
    3 3 shape=13 turn=5 invert=1
    1 3 shape=13 turn=6 invert=1
    2 1 shape=13 turn=3 invert=1
    3 2 shape=13 turn=4 invert=1
    2 3 shape=13 turn=5 invert=1
    1 2 shape=13 turn=6 invert=1
    0 0 shape=12 turn=1 invert=0
    4 0 shape=12 turn=2 invert=0
    4 4 shape=12 turn=3 invert=0
    0 4 shape=12 turn=4 invert=0
    2 0 shape=15 turn=0 invert=0
    4 2 shape=15 turn=1 invert=0
    2 4 shape=15 turn=2 invert=0
    0 2 shape=15 turn=3 invert=0
    1 0 shape=14 turn=3 invert=1
    3 0 shape=14 turn=4 invert=1
    4 1 shape=14 turn=4 invert=1
    4 3 shape=14 turn=5 invert=1
    3 4 shape=14 turn=5 invert=1
    1 4 shape=14 turn=6 invert=1
    0 3 shape=14 turn=6 invert=1
    0 1 shape=14 turn=3 invert=1
  </desc>
  <path d="M 240 240 L 360 240 L 360 360 L 240 360 Z" fill="#888070" />
  <path d="M 120 120 L 210 150 L 240 240 L 150 210 Z M 120 240 L 240 240 L 240 120 L 120 120 Z" fill="#888070" />
  <path d="M 480 120 L 450 210 L 360 240 L 390 150 Z M 360 120 L 360 240 L 480 240 L 480 120 Z" fill="#888070" />
  <path d="M 480 480 L 390 450 L 360 360 L 450 390 Z M 480 360 L 360 360 L 360 480 L 480 480 Z" fill="#888070" />
  <path d="M 120 480 L 150 390 L 240 360 L 210 450 Z M 240 480 L 240 360 L 120 360 L 120 480 Z" fill="#888070" />
  <path d="M 240 120 L 330 150 L 360 240 L 270 210 Z M 240 240 L 360 240 L 360 120 L 240 120 Z" fill="#888070" />
  <path d="M 480 240 L 450 330 L 360 360 L 390 270 Z M 360 240 L 360 360 L 480 360 L 480 240 Z" fill="#888070" />
  <path d="M 360 480 L 270 450 L 240 360 L 330 390 Z M 360 360 L 240 360 L 240 480 L 360 480 Z" fill="#888070" />
  <path d="M 120 360 L 150 270 L 240 240 L 210 330 Z M 240 360 L 240 240 L 120 240 L 120 360 Z" fill="#888070" />
  <path d="M 120 0 L 120 120 L 0 0 Z" fill="#888070" />
  <path d="M 600 120 L 480 120 L 600 0 Z" fill="#888070" />
  <path d="M 480 600 L 480 480 L 600 600 Z" fill="#888070" />
  <path d="M 0 480 L 120 480 L 0 600 Z" fill="#888070" />
  <path d="M 360 0 L 360 120 L 240 120 L 300 90 L 240 0 L 330 60 Z" fill="#888070" />
  <path d="M 600 360 L 480 360 L 480 240 L 510 300 L 600 240 L 540 330 Z" fill="#888070" />
  <path d="M 240 600 L 240 480 L 360 480 L 300 510 L 360 600 L 270 540 Z" fill="#888070" />
  <path d="M 0 240 L 120 240 L 120 360 L 90 300 L 0 360 L 60 270 Z" fill="#888070" />
  <path d="M 120 120 L 120 0 L 150 90 L 240 120 Z M 120 120 L 240 120 L 240 0 L 120 0 Z" fill="#888070" />
  <path d="M 360 0 L 480 0 L 390 30 L 360 120 Z M 360 0 L 360 120 L 480 120 L 480 0 Z" fill="#888070" />
  <path d="M 480 120 L 600 120 L 510 150 L 480 240 Z M 480 120 L 480 240 L 600 240 L 600 120 Z" fill="#888070" />
  <path d="M 600 360 L 600 480 L 570 390 L 480 360 Z M 600 360 L 480 360 L 480 480 L 600 480 Z" fill="#888070" />
  <path d="M 480 480 L 480 600 L 450 510 L 360 480 Z M 480 480 L 360 480 L 360 600 L 480 600 Z" fill="#888070" />
  <path d="M 240 600 L 120 600 L 210 570 L 240 480 Z M 240 600 L 240 480 L 120 480 L 120 600 Z" fill="#888070" />
  <path d="M 120 480 L 0 480 L 90 450 L 120 360 Z M 120 480 L 120 360 L 0 360 L 0 480 Z" fill="#888070" />
  <path d="M 0 240 L 0 120 L 30 210 L 120 240 Z M 0 240 L 120 240 L 120 120 L 0 120 Z" fill="#888070" />
</svg>
