<?xml version="1.0" standalone="no"?>
<!DOCTYPE svg PUBLIC
   "-//W3C//DTD SVG 1.1/EN"
   "http://www.w3.org/Graphics/SVG/1.1/DTD/svg11.dtd">

<svg width="360" height="360" version="1.1"
     xmlns="http://www.w3.org/2000/svg">
  <title>a boring SVG shape</title>
  <desc>
    Lua generator commit: 2472d776
    Generated from hex: 67e88c1d f3e0041f
    1 1 shape=5 turn=0 invert=1
    0 0 shape=4 turn=0 invert=0
    2 0 shape=4 turn=1 invert=0
    2 2 shape=4 turn=2 invert=0
    0 2 shape=4 turn=3 invert=0
    1 0 shape=4 turn=1 invert=0
    2 1 shape=4 turn=2 invert=0
    1 2 shape=4 turn=3 invert=0
    0 1 shape=4 turn=4 invert=0
  </desc>
  <path d="M 180 120 L 240 180 L 180 240 L 120 180 Z M 120 120 L 120 240 L 240 240 L 240 120 Z" fill="#60f8a0" />
  <path d="M 120 0 L 120 120 L 0 120 L 60 90 L 30 30 L 90 60 Z" fill="#60f8a0" />
  <path d="M 360 120 L 240 120 L 240 0 L 270 60 L 330 30 L 300 90 Z" fill="#60f8a0" />
  <path d="M 240 360 L 240 240 L 360 240 L 300 270 L 330 330 L 270 300 Z" fill="#60f8a0" />
  <path d="M 0 240 L 120 240 L 120 360 L 90 300 L 30 330 L 60 270 Z" fill="#60f8a0" />
  <path d="M 240 120 L 120 120 L 120 0 L 150 60 L 210 30 L 180 90 Z" fill="#60f8a0" />
  <path d="M 240 240 L 240 120 L 360 120 L 300 150 L 330 210 L 270 180 Z" fill="#60f8a0" />
  <path d="M 120 240 L 240 240 L 240 360 L 210 300 L 150 330 L 180 270 Z" fill="#60f8a0" />
  <path d="M 120 120 L 120 240 L 0 240 L 60 210 L 30 150 L 90 180 Z" fill="#60f8a0" />
</svg>
