<?xml version="1.0" standalone="no"?>
<!DOCTYPE svg PUBLIC
   "-//W3C//DTD SVG 1.1/EN"
   "http://www.w3.org/Graphics/SVG/1.1/DTD/svg11.dtd">

<svg width="600" height="600" version="1.1"
     xmlns="http://www.w3.org/2000/svg">
  <title>a boring SVG shape</title>
  <desc>
    Lua generator commit: 2472d776
    Generated from hex: 7e88c1df 3e0041f4
    2 2 shape=5 turn=0 invert=1
    1 1 shape=12 turn=1 invert=1
    3 1 shape=12 turn=2 invert=1
    3 3 shape=12 turn=3 invert=1
    1 3 shape=12 turn=4 invert=1
    2 1 shape=1 turn=1 invert=1
    3 2 shape=1 turn=2 invert=1
    2 3 shape=1 turn=3 invert=1
    1 2 shape=1 turn=4 invert=1
    0 0 shape=5 turn=3 invert=1
    4 0 shape=5 turn=4 invert=1
    4 4 shape=5 turn=5 invert=1
    0 4 shape=5 turn=6 invert=1
    2 0 shape=4 turn=0 invert=0
    4 2 shape=4 turn=1 invert=0
    2 4 shape=4 turn=2 invert=0
    0 2 shape=4 turn=3 invert=0
    1 0 shape=2 turn=0 invert=0
    3 0 shape=2 turn=1 invert=0
    4 1 shape=2 turn=1 invert=0
    4 3 shape=2 turn=2 invert=0
    3 4 shape=2 turn=2 invert=0
    1 4 shape=2 turn=3 invert=0
    0 3 shape=2 turn=3 invert=0
    0 1 shape=2 turn=0 invert=0
  </desc>
  <path d="M 300 240 L 360 300 L 300 360 L 240 300 Z M 240 240 L 240 360 L 360 360 L 360 240 Z" fill="#78d020" />
  <path d="M 240 120 L 240 240 L 120 120 Z M 240 120 L 120 120 L 120 240 L 240 240 Z" fill="#78d020" />
  <path d="M 480 240 L 360 240 L 480 120 Z M 480 240 L 480 120 L 360 120 L 360 240 Z" fill="#78d020" />
  <path d="M 360 480 L 360 360 L 480 480 Z M 360 480 L 480 480 L 480 360 L 360 360 Z" fill="#78d020" />
  <path d="M 120 360 L 240 360 L 120 480 Z M 120 360 L 120 480 L 240 480 L 240 360 Z" fill="#78d020" />
  <path d="M 360 120 L 360 240 L 240 240 L 240 120 Z M 360 120 L 240 120 L 240 240 L 360 240 Z" fill="#78d020" />
  <path d="M 480 360 L 360 360 L 360 240 L 480 240 Z M 480 360 L 480 240 L 360 240 L 360 360 Z" fill="#78d020" />
  <path d="M 240 480 L 240 360 L 360 360 L 360 480 Z M 240 480 L 360 480 L 360 360 L 240 360 Z" fill="#78d020" />
  <path d="M 120 240 L 240 240 L 240 360 L 120 360 Z M 120 240 L 120 360 L 240 360 L 240 240 Z" fill="#78d020" />
  <path d="M 0 60 L 60 0 L 120 60 L 60 120 Z M 0 120 L 120 120 L 120 0 L 0 0 Z" fill="#78d020" />
  <path d="M 540 0 L 600 60 L 540 120 L 480 60 Z M 480 0 L 480 120 L 600 120 L 600 0 Z" fill="#78d020" />
  <path d="M 600 540 L 540 600 L 480 540 L 540 480 Z M 600 480 L 480 480 L 480 600 L 600 600 Z" fill="#78d020" />
  <path d="M 60 600 L 0 540 L 60 480 L 120 540 Z M 120 600 L 120 480 L 0 480 L 0 600 Z" fill="#78d020" />
  <path d="M 360 0 L 360 120 L 240 120 L 300 90 L 270 30 L 330 60 Z" fill="#78d020" />
  <path d="M 600 360 L 480 360 L 480 240 L 510 300 L 570 270 L 540 330 Z" fill="#78d020" />
  <path d="M 240 600 L 240 480 L 360 480 L 300 510 L 330 570 L 270 540 Z" fill="#78d020" />
  <path d="M 0 240 L 120 240 L 120 360 L 90 300 L 30 330 L 60 270 Z" fill="#78d020" />
  <path d="M 240 0 L 120 120 L 150 30 Z" fill="#78d020" />
  <path d="M 480 120 L 360 0 L 450 30 Z" fill="#78d020" />
  <path d="M 600 240 L 480 120 L 570 150 Z" fill="#78d020" />
  <path d="M 480 480 L 600 360 L 570 450 Z" fill="#78d020" />
  <path d="M 360 600 L 480 480 L 450 570 Z" fill="#78d020" />
  <path d="M 120 480 L 240 600 L 150 570 Z" fill="#78d020" />
  <path d="M 0 360 L 120 480 L 30 450 Z" fill="#78d020" />
  <path d="M 120 120 L 0 240 L 30 150 Z" fill="#78d020" />
</svg>
