<?xml version="1.0" standalone="no"?>
<!DOCTYPE svg PUBLIC
   "-//W3C//DTD SVG 1.1/EN"
   "http://www.w3.org/Graphics/SVG/1.1/DTD/svg11.dtd">

<svg width="360" height="360" version="1.1"
     xmlns="http://www.w3.org/2000/svg">
  <title>a boring SVG shape</title>
  <desc>
    Lua generator commit: 2472d776
    Generated from hex: 8c1df3e0 041f472b
    1 1 shape=1 turn=0 invert=0
    0 0 shape=13 turn=3 invert=1
    2 0 shape=13 turn=4 invert=1
    2 2 shape=13 turn=5 invert=1
    0 2 shape=13 turn=6 invert=1
    1 0 shape=13 turn=3 invert=1
    2 1 shape=13 turn=4 invert=1
    1 2 shape=13 turn=5 invert=1
    0 1 shape=13 turn=6 invert=1
  </desc>
  <path d="M 120 120 L 240 120 L 240 240 L 120 240 Z" fill="#888070" />
  <path d="M 0 0 L 90 30 L 120 120 L 30 90 Z M 0 120 L 120 120 L 120 0 L 0 0 Z" fill="#888070" />
  <path d="M 360 0 L 330 90 L 240 120 L 270 30 Z M 240 0 L 240 120 L 360 120 L 360 0 Z" fill="#888070" />
  <path d="M 360 360 L 270 330 L 240 240 L 330 270 Z M 360 240 L 240 240 L 240 360 L 360 360 Z" fill="#888070" />
  <path d="M 0 360 L 30 270 L 120 240 L 90 330 Z M 120 360 L 120 240 L 0 240 L 0 360 Z" fill="#888070" />
  <path d="M 120 0 L 210 30 L 240 120 L 150 90 Z M 120 120 L 240 120 L 240 0 L 120 0 Z" fill="#888070" />
  <path d="M 360 120 L 330 210 L 240 240 L 270 150 Z M 240 120 L 240 240 L 360 240 L 360 120 Z" fill="#888070" />
  <path d="M 240 360 L 150 330 L 120 240 L 210 270 Z M 240 240 L 120 240 L 120 360 L 240 360 Z" fill="#888070" />
  <path d="M 0 240 L 30 150 L 120 120 L 90 210 Z M 120 240 L 120 120 L 0 120 L 0 240 Z" fill="#888070" />
</svg>
