<?xml version="1.0" standalone="no"?>
<!DOCTYPE svg PUBLIC
   "-//W3C//DTD SVG 1.1/EN"
   "http://www.w3.org/Graphics/SVG/1.1/DTD/svg11.dtd">

<svg width="600" height="600" version="1.1"
     xmlns="http://www.w3.org/2000/svg">
  <title>a boring SVG shape</title>
  <desc>
    Lua generator commit: 2472d776
    Generated from hex: be56bf79 467e88c1
    2 2 shape=5 turn=0 invert=0
    1 1 shape=16 turn=3 invert=0
    3 1 shape=16 turn=4 invert=0
    3 3 shape=16 turn=5 invert=0
    1 3 shape=16 turn=6 invert=0
    2 1 shape=16 turn=1 invert=0
    3 2 shape=16 turn=2 invert=0
    2 3 shape=16 turn=3 invert=0
    1 2 shape=16 turn=4 invert=0
    0 0 shape=2 turn=2 invert=0
    4 0 shape=2 turn=3 invert=0
    4 4 shape=2 turn=4 invert=0
    0 4 shape=2 turn=5 invert=0
    2 0 shape=2 turn=0 invert=1
    4 2 shape=2 turn=1 invert=1
    2 4 shape=2 turn=2 invert=1
    0 2 shape=2 turn=3 invert=1
    1 0 shape=11 turn=3 invert=1
    3 0 shape=11 turn=4 invert=1
    4 1 shape=11 turn=4 invert=1
    4 3 shape=11 turn=5 invert=1
    3 4 shape=11 turn=5 invert=1
    1 4 shape=11 turn=6 invert=1
    0 3 shape=11 turn=6 invert=1
    0 1 shape=11 turn=3 invert=1
  </desc>
  <path d="M 300 240 L 360 300 L 300 360 L 240 300 Z" fill="#b8c858" />
  <path d="M 120 120 L 210 150 L 240 240 L 120 120 L 150 210 L 240 240 L 120 240 Z" fill="#b8c858" />
  <path d="M 480 120 L 450 210 L 360 240 L 480 120 L 390 150 L 360 240 L 360 120 Z" fill="#b8c858" />
  <path d="M 480 480 L 390 450 L 360 360 L 480 480 L 450 390 L 360 360 L 480 360 Z" fill="#b8c858" />
  <path d="M 120 480 L 150 390 L 240 360 L 120 480 L 210 450 L 240 360 L 240 480 Z" fill="#b8c858" />
  <path d="M 360 240 L 270 210 L 240 120 L 360 240 L 330 150 L 240 120 L 360 120 Z" fill="#b8c858" />
  <path d="M 360 360 L 390 270 L 480 240 L 360 360 L 450 330 L 480 240 L 480 360 Z" fill="#b8c858" />
  <path d="M 240 360 L 330 390 L 360 480 L 240 360 L 270 450 L 360 480 L 240 480 Z" fill="#b8c858" />
  <path d="M 240 240 L 210 330 L 120 360 L 240 240 L 150 270 L 120 360 L 120 240 Z" fill="#b8c858" />
  <path d="M 0 120 L 120 0 L 90 90 Z" fill="#b8c858" />
  <path d="M 480 0 L 600 120 L 510 90 Z" fill="#b8c858" />
  <path d="M 600 480 L 480 600 L 510 510 Z" fill="#b8c858" />
  <path d="M 120 600 L 0 480 L 90 510 Z" fill="#b8c858" />
  <path d="M 360 0 L 240 120 L 270 30 Z M 240 0 L 240 120 L 360 120 L 360 0 Z" fill="#b8c858" />
  <path d="M 600 360 L 480 240 L 570 270 Z M 600 240 L 480 240 L 480 360 L 600 360 Z" fill="#b8c858" />
  <path d="M 240 600 L 360 480 L 330 570 Z M 360 600 L 360 480 L 240 480 L 240 600 Z" fill="#b8c858" />
  <path d="M 0 240 L 120 360 L 30 330 Z M 0 360 L 120 360 L 120 240 L 0 240 Z" fill="#b8c858" />
  <path d="M 120 120 L 120 60 L 180 60 L 180 120 Z M 120 120 L 240 120 L 240 0 L 120 0 Z" fill="#b8c858" />
  <path d="M 360 0 L 420 0 L 420 60 L 360 60 Z M 360 0 L 360 120 L 480 120 L 480 0 Z" fill="#b8c858" />
  <path d="M 480 120 L 540 120 L 540 180 L 480 180 Z M 480 120 L 480 240 L 600 240 L 600 120 Z" fill="#b8c858" />
  <path d="M 600 360 L 600 420 L 540 420 L 540 360 Z M 600 360 L 480 360 L 480 480 L 600 480 Z" fill="#b8c858" />
  <path d="M 480 480 L 480 540 L 420 540 L 420 480 Z M 480 480 L 360 480 L 360 600 L 480 600 Z" fill="#b8c858" />
  <path d="M 240 600 L 180 600 L 180 540 L 240 540 Z M 240 600 L 240 480 L 120 480 L 120 600 Z" fill="#b8c858" />
  <path d="M 120 480 L 60 480 L 60 420 L 120 420 Z M 120 480 L 120 360 L 0 360 L 0 480 Z" fill="#b8c858" />
  <path d="M 0 240 L 0 180 L 60 180 L 60 240 Z M 0 240 L 120 240 L 120 120 L 0 120 Z" fill="#b8c858" />
</svg>
