<?xml version="1.0" standalone="no"?>
<!DOCTYPE svg PUBLIC
   "-//W3C//DTD SVG 1.1/EN"
   "http://www.w3.org/Graphics/SVG/1.1/DTD/svg11.dtd">

<svg width="480" height="480" version="1.1"
     xmlns="http://www.w3.org/2000/svg">
  <title>a boring SVG shape</title>
  <desc>
    Lua generator commit: 2472d776
    Generated from hex: f79467e8 8c1df3e0
    1 1 shape=9 turn=3 invert=0
    2 1 shape=9 turn=4 invert=0
    2 2 shape=9 turn=5 invert=0
    1 2 shape=9 turn=6 invert=0
    0 0 shape=16 turn=2 invert=0
    3 0 shape=16 turn=3 invert=0
    3 3 shape=16 turn=4 invert=0
    0 3 shape=16 turn=5 invert=0
    1 0 shape=2 turn=2 invert=1
    2 0 shape=2 turn=3 invert=1
    3 1 shape=2 turn=3 invert=1
    3 2 shape=2 turn=4 invert=1
    2 3 shape=2 turn=4 invert=1
    1 3 shape=2 turn=5 invert=1
    0 2 shape=2 turn=5 invert=1
    0 1 shape=2 turn=2 invert=1
  </desc>
  <path d="M 120 180 L 120 120 L 180 120 L 240 180 L 180 240 L 180 180 Z" fill="#f07090" />
  <path d="M 300 120 L 360 120 L 360 180 L 300 240 L 240 180 L 300 180 Z" fill="#f07090" />
  <path d="M 360 300 L 360 360 L 300 360 L 240 300 L 300 240 L 300 300 Z" fill="#f07090" />
  <path d="M 180 360 L 120 360 L 120 300 L 180 240 L 240 300 L 180 300 Z" fill="#f07090" />
  <path d="M 0 120 L 30 30 L 120 0 L 0 120 L 90 90 L 120 0 L 120 120 Z" fill="#f07090" />
  <path d="M 360 0 L 450 30 L 480 120 L 360 0 L 390 90 L 480 120 L 360 120 Z" fill="#f07090" />
  <path d="M 480 360 L 450 450 L 360 480 L 480 360 L 390 390 L 360 480 L 360 360 Z" fill="#f07090" />
  <path d="M 120 480 L 30 450 L 0 360 L 120 480 L 90 390 L 0 360 L 120 360 Z" fill="#f07090" />
  <path d="M 120 120 L 240 0 L 210 90 Z M 240 120 L 240 0 L 120 0 L 120 120 Z" fill="#f07090" />
  <path d="M 240 0 L 360 120 L 270 90 Z M 240 120 L 360 120 L 360 0 L 240 0 Z" fill="#f07090" />
  <path d="M 360 120 L 480 240 L 390 210 Z M 360 240 L 480 240 L 480 120 L 360 120 Z" fill="#f07090" />
  <path d="M 480 240 L 360 360 L 390 270 Z M 360 240 L 360 360 L 480 360 L 480 240 Z" fill="#f07090" />
  <path d="M 360 360 L 240 480 L 270 390 Z M 240 360 L 240 480 L 360 480 L 360 360 Z" fill="#f07090" />
  <path d="M 240 480 L 120 360 L 210 390 Z M 240 360 L 120 360 L 120 480 L 240 480 Z" fill="#f07090" />
  <path d="M 120 360 L 0 240 L 90 270 Z M 120 240 L 0 240 L 0 360 L 120 360 Z" fill="#f07090" />
  <path d="M 0 240 L 120 120 L 90 210 Z M 120 240 L 120 120 L 0 120 L 0 240 Z" fill="#f07090" />
</svg>
