<?xml version="1.0" standalone="no"?>
<!DOCTYPE svg PUBLIC
   "-//W3C//DTD SVG 1.1/EN"
   "http://www.w3.org/Graphics/SVG/1.1/DTD/svg11.dtd">

<svg width="600" height="600" version="1.1"
     xmlns="http://www.w3.org/2000/svg">
  <title>a boring SVG shape</title>
  <desc>
    Lua generator commit: 2472d776
    Generated from hex: dbe56bf7 9467e88c
    2 2 shape=5 turn=0 invert=1
    1 1 shape=15 turn=3 invert=1
    3 1 shape=15 turn=4 invert=1
    3 3 shape=15 turn=5 invert=1
    1 3 shape=15 turn=6 invert=1
    2 1 shape=11 turn=2 invert=1
    3 2 shape=11 turn=3 invert=1
    2 3 shape=11 turn=4 invert=1
    1 2 shape=11 turn=5 invert=1
    0 0 shape=13 turn=0 invert=0
    4 0 shape=13 turn=1 invert=0
    4 4 shape=13 turn=2 invert=0
    0 4 shape=13 turn=3 invert=0
    2 0 shape=2 turn=2 invert=1
    4 2 shape=2 turn=3 invert=1
    2 4 shape=2 turn=4 invert=1
    0 2 shape=2 turn=5 invert=1
    1 0 shape=16 turn=0 invert=1
    3 0 shape=16 turn=1 invert=1
    4 1 shape=16 turn=1 invert=1
    4 3 shape=16 turn=2 invert=1
    3 4 shape=16 turn=2 invert=1
    1 4 shape=16 turn=3 invert=1
    0 3 shape=16 turn=3 invert=1
    0 1 shape=16 turn=0 invert=1
  </desc>
  <path d="M 300 240 L 360 300 L 300 360 L 240 300 Z M 240 240 L 240 360 L 360 360 L 360 240 Z" fill="#d87890" />
  <path d="M 120 120 L 240 120 L 240 240 L 210 180 L 120 240 L 180 150 Z M 120 240 L 240 240 L 240 120 L 120 120 Z" fill="#d87890" />
  <path d="M 480 120 L 480 240 L 360 240 L 420 210 L 360 120 L 450 180 Z M 360 120 L 360 240 L 480 240 L 480 120 Z" fill="#d87890" />
  <path d="M 480 480 L 360 480 L 360 360 L 390 420 L 480 360 L 420 450 Z M 480 360 L 360 360 L 360 480 L 480 480 Z" fill="#d87890" />
  <path d="M 120 480 L 120 360 L 240 360 L 180 390 L 240 480 L 150 420 Z M 240 480 L 240 360 L 120 360 L 120 480 Z" fill="#d87890" />
  <path d="M 360 240 L 300 240 L 300 180 L 360 180 Z M 360 240 L 360 120 L 240 120 L 240 240 Z" fill="#d87890" />
  <path d="M 360 360 L 360 300 L 420 300 L 420 360 Z M 360 360 L 480 360 L 480 240 L 360 240 Z" fill="#d87890" />
  <path d="M 240 360 L 300 360 L 300 420 L 240 420 Z M 240 360 L 240 480 L 360 480 L 360 360 Z" fill="#d87890" />
  <path d="M 240 240 L 240 300 L 180 300 L 180 240 Z M 240 240 L 120 240 L 120 360 L 240 360 Z" fill="#d87890" />
  <path d="M 120 0 L 90 90 L 0 120 L 30 30 Z" fill="#d87890" />
  <path d="M 600 120 L 510 90 L 480 0 L 570 30 Z" fill="#d87890" />
  <path d="M 480 600 L 510 510 L 600 480 L 570 570 Z" fill="#d87890" />
  <path d="M 0 480 L 90 510 L 120 600 L 30 570 Z" fill="#d87890" />
  <path d="M 240 120 L 360 0 L 330 90 Z M 360 120 L 360 0 L 240 0 L 240 120 Z" fill="#d87890" />
  <path d="M 480 240 L 600 360 L 510 330 Z M 480 360 L 600 360 L 600 240 L 480 240 Z" fill="#d87890" />
  <path d="M 360 480 L 240 600 L 270 510 Z M 240 480 L 240 600 L 360 600 L 360 480 Z" fill="#d87890" />
  <path d="M 120 360 L 0 240 L 90 270 Z M 120 240 L 0 240 L 0 360 L 120 360 Z" fill="#d87890" />
  <path d="M 240 0 L 210 90 L 120 120 L 240 0 L 150 30 L 120 120 L 120 0 Z M 120 0 L 120 120 L 240 120 L 240 0 Z" fill="#d87890" />
  <path d="M 480 120 L 390 90 L 360 0 L 480 120 L 450 30 L 360 0 L 480 0 Z M 480 0 L 360 0 L 360 120 L 480 120 Z" fill="#d87890" />
  <path d="M 600 240 L 510 210 L 480 120 L 600 240 L 570 150 L 480 120 L 600 120 Z M 600 120 L 480 120 L 480 240 L 600 240 Z" fill="#d87890" />
  <path d="M 480 480 L 510 390 L 600 360 L 480 480 L 570 450 L 600 360 L 600 480 Z M 600 480 L 600 360 L 480 360 L 480 480 Z" fill="#d87890" />
  <path d="M 360 600 L 390 510 L 480 480 L 360 600 L 450 570 L 480 480 L 480 600 Z M 480 600 L 480 480 L 360 480 L 360 600 Z" fill="#d87890" />
  <path d="M 120 480 L 210 510 L 240 600 L 120 480 L 150 570 L 240 600 L 120 600 Z M 120 600 L 240 600 L 240 480 L 120 480 Z" fill="#d87890" />
  <path d="M 0 360 L 90 390 L 120 480 L 0 360 L 30 450 L 120 480 L 0 480 Z M 0 480 L 120 480 L 120 360 L 0 360 Z" fill="#d87890" />
  <path d="M 120 120 L 90 210 L 0 240 L 120 120 L 30 150 L 0 240 L 0 120 Z M 0 120 L 0 240 L 120 240 L 120 120 Z" fill="#d87890" />
</svg>
