<?xml version="1.0" standalone="no"?>
<!DOCTYPE svg PUBLIC
   "-//W3C//DTD SVG 1.1/EN"
   "http://www.w3.org/Graphics/SVG/1.1/DTD/svg11.dtd">

<svg width="600" height="600" version="1.1"
     xmlns="http://www.w3.org/2000/svg">
  <title>a boring SVG shape</title>
  <desc>
    Lua generator commit: 2472d776
    Generated from hex: 67e88c1d f3e0041f
    2 2 shape=5 turn=0 invert=1
    1 1 shape=4 turn=0 invert=0
    3 1 shape=4 turn=1 invert=0
    3 3 shape=4 turn=2 invert=0
    1 3 shape=4 turn=3 invert=0
    2 1 shape=4 turn=1 invert=0
    3 2 shape=4 turn=2 invert=0
    2 3 shape=4 turn=3 invert=0
    1 2 shape=4 turn=4 invert=0
    0 0 shape=16 turn=0 invert=1
    4 0 shape=16 turn=1 invert=1
    4 4 shape=16 turn=2 invert=1
    0 4 shape=16 turn=3 invert=1
    2 0 shape=9 turn=0 invert=0
    4 2 shape=9 turn=1 invert=0
    2 4 shape=9 turn=2 invert=0
    0 2 shape=9 turn=3 invert=0
    1 0 shape=1 turn=0 invert=0
    3 0 shape=1 turn=1 invert=0
    4 1 shape=1 turn=1 invert=0
    4 3 shape=1 turn=2 invert=0
    3 4 shape=1 turn=2 invert=0
    1 4 shape=1 turn=3 invert=0
    0 3 shape=1 turn=3 invert=0
    0 1 shape=1 turn=0 invert=0
  </desc>
  <path d="M 300 240 L 360 300 L 300 360 L 240 300 Z M 240 240 L 240 360 L 360 360 L 360 240 Z" fill="#60f8a0" />
  <path d="M 240 120 L 240 240 L 120 240 L 180 210 L 150 150 L 210 180 Z" fill="#60f8a0" />
  <path d="M 480 240 L 360 240 L 360 120 L 390 180 L 450 150 L 420 210 Z" fill="#60f8a0" />
  <path d="M 360 480 L 360 360 L 480 360 L 420 390 L 450 450 L 390 420 Z" fill="#60f8a0" />
  <path d="M 120 360 L 240 360 L 240 480 L 210 420 L 150 450 L 180 390 Z" fill="#60f8a0" />
  <path d="M 360 240 L 240 240 L 240 120 L 270 180 L 330 150 L 300 210 Z" fill="#60f8a0" />
  <path d="M 360 360 L 360 240 L 480 240 L 420 270 L 450 330 L 390 300 Z" fill="#60f8a0" />
  <path d="M 240 360 L 360 360 L 360 480 L 330 420 L 270 450 L 300 390 Z" fill="#60f8a0" />
  <path d="M 240 240 L 240 360 L 120 360 L 180 330 L 150 270 L 210 300 Z" fill="#60f8a0" />
  <path d="M 120 0 L 90 90 L 0 120 L 120 0 L 30 30 L 0 120 L 0 0 Z M 0 0 L 0 120 L 120 120 L 120 0 Z" fill="#60f8a0" />
  <path d="M 600 120 L 510 90 L 480 0 L 600 120 L 570 30 L 480 0 L 600 0 Z M 600 0 L 480 0 L 480 120 L 600 120 Z" fill="#60f8a0" />
  <path d="M 480 600 L 510 510 L 600 480 L 480 600 L 570 570 L 600 480 L 600 600 Z M 600 600 L 600 480 L 480 480 L 480 600 Z" fill="#60f8a0" />
  <path d="M 0 480 L 90 510 L 120 600 L 0 480 L 30 570 L 120 600 L 0 600 Z M 0 600 L 120 600 L 120 480 L 0 480 Z" fill="#60f8a0" />
  <path d="M 300 0 L 360 0 L 360 60 L 300 120 L 240 60 L 300 60 Z" fill="#60f8a0" />
  <path d="M 600 300 L 600 360 L 540 360 L 480 300 L 540 240 L 540 300 Z" fill="#60f8a0" />
  <path d="M 300 600 L 240 600 L 240 540 L 300 480 L 360 540 L 300 540 Z" fill="#60f8a0" />
  <path d="M 0 300 L 0 240 L 60 240 L 120 300 L 60 360 L 60 300 Z" fill="#60f8a0" />
  <path d="M 120 0 L 240 0 L 240 120 L 120 120 Z" fill="#60f8a0" />
  <path d="M 480 0 L 480 120 L 360 120 L 360 0 Z" fill="#60f8a0" />
  <path d="M 600 120 L 600 240 L 480 240 L 480 120 Z" fill="#60f8a0" />
  <path d="M 600 480 L 480 480 L 480 360 L 600 360 Z" fill="#60f8a0" />
  <path d="M 480 600 L 360 600 L 360 480 L 480 480 Z" fill="#60f8a0" />
  <path d="M 120 600 L 120 480 L 240 480 L 240 600 Z" fill="#60f8a0" />
  <path d="M 0 480 L 0 360 L 120 360 L 120 480 Z" fill="#60f8a0" />
  <path d="M 0 120 L 120 120 L 120 240 L 0 240 Z" fill="#60f8a0" />
</svg>
