<?xml version="1.0" standalone="no"?>
<!DOCTYPE svg PUBLIC
   "-//W3C//DTD SVG 1.1/EN"
   "http://www.w3.org/Graphics/SVG/1.1/DTD/svg11.dtd">

<svg width="480" height="480" version="1.1"
     xmlns="http://www.w3.org/2000/svg">
  <title>a boring SVG shape</title>
  <desc>
    Lua generator commit: 2472d776
    Generated from hex: c1df3e00 41f472b6
    1 1 shape=1 turn=0 invert=0
    2 1 shape=1 turn=1 invert=0
    2 2 shape=1 turn=2 invert=0
    1 2 shape=1 turn=3 invert=0
    0 0 shape=13 turn=3 invert=1
    3 0 shape=13 turn=4 invert=1
    3 3 shape=13 turn=5 invert=1
    0 3 shape=13 turn=6 invert=1
    1 0 shape=13 turn=3 invert=1
    2 0 shape=13 turn=4 invert=1
    3 1 shape=13 turn=4 invert=1
    3 2 shape=13 turn=5 invert=1
    2 3 shape=13 turn=5 invert=1
    1 3 shape=13 turn=6 invert=1
    0 2 shape=13 turn=6 invert=1
    0 1 shape=13 turn=3 invert=1
  </desc>
  <path d="M 120 120 L 240 120 L 240 240 L 120 240 Z" fill="#c010d0" />
  <path d="M 360 120 L 360 240 L 240 240 L 240 120 Z" fill="#c010d0" />
  <path d="M 360 360 L 240 360 L 240 240 L 360 240 Z" fill="#c010d0" />
  <path d="M 120 360 L 120 240 L 240 240 L 240 360 Z" fill="#c010d0" />
  <path d="M 0 0 L 90 30 L 120 120 L 30 90 Z M 0 120 L 120 120 L 120 0 L 0 0 Z" fill="#c010d0" />
  <path d="M 480 0 L 450 90 L 360 120 L 390 30 Z M 360 0 L 360 120 L 480 120 L 480 0 Z" fill="#c010d0" />
  <path d="M 480 480 L 390 450 L 360 360 L 450 390 Z M 480 360 L 360 360 L 360 480 L 480 480 Z" fill="#c010d0" />
  <path d="M 0 480 L 30 390 L 120 360 L 90 450 Z M 120 480 L 120 360 L 0 360 L 0 480 Z" fill="#c010d0" />
  <path d="M 120 0 L 210 30 L 240 120 L 150 90 Z M 120 120 L 240 120 L 240 0 L 120 0 Z" fill="#c010d0" />
  <path d="M 360 0 L 330 90 L 240 120 L 270 30 Z M 240 0 L 240 120 L 360 120 L 360 0 Z" fill="#c010d0" />
  <path d="M 480 120 L 450 210 L 360 240 L 390 150 Z M 360 120 L 360 240 L 480 240 L 480 120 Z" fill="#c010d0" />
  <path d="M 480 360 L 390 330 L 360 240 L 450 270 Z M 480 240 L 360 240 L 360 360 L 480 360 Z" fill="#c010d0" />
  <path d="M 360 480 L 270 450 L 240 360 L 330 390 Z M 360 360 L 240 360 L 240 480 L 360 480 Z" fill="#c010d0" />
  <path d="M 120 480 L 150 390 L 240 360 L 210 450 Z M 240 480 L 240 360 L 120 360 L 120 480 Z" fill="#c010d0" />
  <path d="M 0 360 L 30 270 L 120 240 L 90 330 Z M 120 360 L 120 240 L 0 240 L 0 360 Z" fill="#c010d0" />
  <path d="M 0 120 L 90 150 L 120 240 L 30 210 Z M 0 240 L 120 240 L 120 120 L 0 120 Z" fill="#c010d0" />
</svg>
