<?xml version="1.0" standalone="no"?>
<!DOCTYPE svg PUBLIC
   "-//W3C//DTD SVG 1.1/EN"
   "http://www.w3.org/Graphics/SVG/1.1/DTD/svg11.dtd">

<svg width="480" height="480" version="1.1"
     xmlns="http://www.w3.org/2000/svg">
  <title>a boring SVG shape</title>
  <desc>
    Lua generator commit: 2472d776
    Generated from hex: e88c1df3 e0041f47
    1 1 shape=4 turn=3 invert=1
    2 1 shape=4 turn=4 invert=1
    2 2 shape=4 turn=5 invert=1
    1 2 shape=4 turn=6 invert=1
    0 0 shape=12 turn=1 invert=1
    3 0 shape=12 turn=2 invert=1
    3 3 shape=12 turn=3 invert=1
    0 3 shape=12 turn=4 invert=1
    1 0 shape=1 turn=1 invert=1
    2 0 shape=5 turn=2 invert=0
    3 1 shape=1 turn=2 invert=1
    3 2 shape=5 turn=3 invert=0
    2 3 shape=1 turn=3 invert=1
    1 3 shape=5 turn=4 invert=0
    0 2 shape=1 turn=4 invert=1
    0 1 shape=5 turn=5 invert=0
  </desc>
  <path d="M 120 120 L 240 120 L 240 240 L 210 180 L 150 210 L 180 150 Z M 120 240 L 240 240 L 240 120 L 120 120 Z" fill="#e08080" />
  <path d="M 360 120 L 360 240 L 240 240 L 300 210 L 270 150 L 330 180 Z M 240 120 L 240 240 L 360 240 L 360 120 Z" fill="#e08080" />
  <path d="M 360 360 L 240 360 L 240 240 L 270 300 L 330 270 L 300 330 Z M 360 240 L 240 240 L 240 360 L 360 360 Z" fill="#e08080" />
  <path d="M 120 360 L 120 240 L 240 240 L 180 270 L 210 330 L 150 300 Z M 240 360 L 240 240 L 120 240 L 120 360 Z" fill="#e08080" />
  <path d="M 120 0 L 120 120 L 0 0 Z M 120 0 L 0 0 L 0 120 L 120 120 Z" fill="#e08080" />
  <path d="M 480 120 L 360 120 L 480 0 Z M 480 120 L 480 0 L 360 0 L 360 120 Z" fill="#e08080" />
  <path d="M 360 480 L 360 360 L 480 480 Z M 360 480 L 480 480 L 480 360 L 360 360 Z" fill="#e08080" />
  <path d="M 0 360 L 120 360 L 0 480 Z M 0 360 L 0 480 L 120 480 L 120 360 Z" fill="#e08080" />
  <path d="M 240 0 L 240 120 L 120 120 L 120 0 Z M 240 0 L 120 0 L 120 120 L 240 120 Z" fill="#e08080" />
  <path d="M 300 120 L 240 60 L 300 0 L 360 60 Z" fill="#e08080" />
  <path d="M 480 240 L 360 240 L 360 120 L 480 120 Z M 480 240 L 480 120 L 360 120 L 360 240 Z" fill="#e08080" />
  <path d="M 360 300 L 420 240 L 480 300 L 420 360 Z" fill="#e08080" />
  <path d="M 240 480 L 240 360 L 360 360 L 360 480 Z M 240 480 L 360 480 L 360 360 L 240 360 Z" fill="#e08080" />
  <path d="M 180 360 L 240 420 L 180 480 L 120 420 Z" fill="#e08080" />
  <path d="M 0 240 L 120 240 L 120 360 L 0 360 Z M 0 240 L 0 360 L 120 360 L 120 240 Z" fill="#e08080" />
  <path d="M 120 180 L 60 240 L 0 180 L 60 120 Z" fill="#e08080" />
</svg>
