<?xml version="1.0" standalone="no"?>
<!DOCTYPE svg PUBLIC
   "-//W3C//DTD SVG 1.1/EN"
   "http://www.w3.org/Graphics/SVG/1.1/DTD/svg11.dtd">

<svg width="600" height="600" version="1.1"
     xmlns="http://www.w3.org/2000/svg">
  <title>a boring SVG shape</title>
  <desc>
    Lua generator commit: 2472d776
    Generated from hex: 9467e88c 1df3e004
    2 2 shape=1 turn=0 invert=1
    1 1 shape=2 turn=0 invert=1
    3 1 shape=2 turn=1 invert=1
    3 3 shape=2 turn=2 invert=1
    1 3 shape=2 turn=3 invert=1
    2 1 shape=11 turn=3 invert=1
    3 2 shape=11 turn=4 invert=1
    2 3 shape=11 turn=5 invert=1
    1 2 shape=11 turn=6 invert=1
    0 0 shape=5 turn=0 invert=0
    4 0 shape=5 turn=1 invert=0
    4 4 shape=5 turn=2 invert=0
    0 4 shape=5 turn=3 invert=0
    2 0 shape=1 turn=2 invert=0
    4 2 shape=1 turn=3 invert=0
    2 4 shape=1 turn=4 invert=0
    0 2 shape=1 turn=5 invert=0
    1 0 shape=16 turn=2 invert=0
    3 0 shape=16 turn=3 invert=0
    4 1 shape=16 turn=3 invert=0
    4 3 shape=16 turn=4 invert=0
    3 4 shape=16 turn=4 invert=0
    1 4 shape=16 turn=5 invert=0
    0 3 shape=16 turn=5 invert=0
    0 1 shape=16 turn=2 invert=0
  </desc>
  <path d="M 240 240 L 360 240 L 360 360 L 240 360 Z M 240 240 L 240 360 L 360 360 L 360 240 Z" fill="#908898" />
  <path d="M 240 120 L 120 240 L 150 150 Z M 120 120 L 120 240 L 240 240 L 240 120 Z" fill="#908898" />
  <path d="M 480 240 L 360 120 L 450 150 Z M 480 120 L 360 120 L 360 240 L 480 240 Z" fill="#908898" />
  <path d="M 360 480 L 480 360 L 450 450 Z M 480 480 L 480 360 L 360 360 L 360 480 Z" fill="#908898" />
  <path d="M 120 360 L 240 480 L 150 450 Z M 120 480 L 240 480 L 240 360 L 120 360 Z" fill="#908898" />
  <path d="M 240 240 L 240 180 L 300 180 L 300 240 Z M 240 240 L 360 240 L 360 120 L 240 120 Z" fill="#908898" />
  <path d="M 360 240 L 420 240 L 420 300 L 360 300 Z M 360 240 L 360 360 L 480 360 L 480 240 Z" fill="#908898" />
  <path d="M 360 360 L 360 420 L 300 420 L 300 360 Z M 360 360 L 240 360 L 240 480 L 360 480 Z" fill="#908898" />
  <path d="M 240 360 L 180 360 L 180 300 L 240 300 Z M 240 360 L 240 240 L 120 240 L 120 360 Z" fill="#908898" />
  <path d="M 60 0 L 120 60 L 60 120 L 0 60 Z" fill="#908898" />
  <path d="M 600 60 L 540 120 L 480 60 L 540 0 Z" fill="#908898" />
  <path d="M 540 600 L 480 540 L 540 480 L 600 540 Z" fill="#908898" />
  <path d="M 0 540 L 60 480 L 120 540 L 60 600 Z" fill="#908898" />
  <path d="M 360 120 L 240 120 L 240 0 L 360 0 Z" fill="#908898" />
  <path d="M 480 360 L 480 240 L 600 240 L 600 360 Z" fill="#908898" />
  <path d="M 240 480 L 360 480 L 360 600 L 240 600 Z" fill="#908898" />
  <path d="M 120 240 L 120 360 L 0 360 L 0 240 Z" fill="#908898" />
  <path d="M 120 120 L 150 30 L 240 0 L 120 120 L 210 90 L 240 0 L 240 120 Z" fill="#908898" />
  <path d="M 360 0 L 450 30 L 480 120 L 360 0 L 390 90 L 480 120 L 360 120 Z" fill="#908898" />
  <path d="M 480 120 L 570 150 L 600 240 L 480 120 L 510 210 L 600 240 L 480 240 Z" fill="#908898" />
  <path d="M 600 360 L 570 450 L 480 480 L 600 360 L 510 390 L 480 480 L 480 360 Z" fill="#908898" />
  <path d="M 480 480 L 450 570 L 360 600 L 480 480 L 390 510 L 360 600 L 360 480 Z" fill="#908898" />
  <path d="M 240 600 L 150 570 L 120 480 L 240 600 L 210 510 L 120 480 L 240 480 Z" fill="#908898" />
  <path d="M 120 480 L 30 450 L 0 360 L 120 480 L 90 390 L 0 360 L 120 360 Z" fill="#908898" />
  <path d="M 0 240 L 30 150 L 120 120 L 0 240 L 90 210 L 120 120 L 120 240 Z" fill="#908898" />
</svg>
