<?xml version="1.0" standalone="no"?>
<!DOCTYPE svg PUBLIC
   "-//W3C//DTD SVG 1.1/EN"
   "http://www.w3.org/Graphics/SVG/1.1/DTD/svg11.dtd">

<svg width="600" height="600" version="1.1"
     xmlns="http://www.w3.org/2000/svg">
  <title>a boring SVG shape</title>
  <desc>
    Lua generator commit: 2472d776
    Generated from hex: 88c1df3e 0041f472
    2 2 shape=1 turn=0 invert=1
    1 1 shape=8 turn=3 invert=0
    3 1 shape=8 turn=4 invert=0
    3 3 shape=8 turn=5 invert=0
    1 3 shape=8 turn=6 invert=0
    2 1 shape=8 turn=3 invert=1
    3 2 shape=8 turn=4 invert=1
    2 3 shape=8 turn=5 invert=1
    1 2 shape=8 turn=6 invert=1
    0 0 shape=3 turn=3 invert=1
    4 0 shape=3 turn=4 invert=1
    4 4 shape=3 turn=5 invert=1
    0 4 shape=3 turn=6 invert=1
    2 0 shape=9 turn=3 invert=0
    4 2 shape=9 turn=4 invert=0
    2 4 shape=9 turn=5 invert=0
    0 2 shape=9 turn=6 invert=0
    1 0 shape=8 turn=0 invert=0
    3 0 shape=8 turn=1 invert=0
    4 1 shape=8 turn=1 invert=0
    4 3 shape=8 turn=2 invert=0
    3 4 shape=8 turn=2 invert=0
    1 4 shape=8 turn=3 invert=0
    0 3 shape=8 turn=3 invert=0
    0 1 shape=8 turn=0 invert=0
  </desc>
  <path d="M 240 240 L 360 240 L 360 360 L 240 360 Z M 240 240 L 240 360 L 360 360 L 360 240 Z" fill="#881800" />
  <path d="M 120 240 L 120 180 L 180 180 L 180 120 L 240 180 L 180 240 Z" fill="#881800" />
  <path d="M 360 120 L 420 120 L 420 180 L 480 180 L 420 240 L 360 180 Z" fill="#881800" />
  <path d="M 480 360 L 480 420 L 420 420 L 420 480 L 360 420 L 420 360 Z" fill="#881800" />
  <path d="M 240 480 L 180 480 L 180 420 L 120 420 L 180 360 L 240 420 Z" fill="#881800" />
  <path d="M 240 240 L 240 180 L 300 180 L 300 120 L 360 180 L 300 240 Z M 240 240 L 360 240 L 360 120 L 240 120 Z" fill="#881800" />
  <path d="M 360 240 L 420 240 L 420 300 L 480 300 L 420 360 L 360 300 Z M 360 240 L 360 360 L 480 360 L 480 240 Z" fill="#881800" />
  <path d="M 360 360 L 360 420 L 300 420 L 300 480 L 240 420 L 300 360 Z M 360 360 L 240 360 L 240 480 L 360 480 Z" fill="#881800" />
  <path d="M 240 360 L 180 360 L 180 300 L 120 300 L 180 240 L 240 300 Z M 240 360 L 240 240 L 120 240 L 120 360 Z" fill="#881800" />
  <path d="M 0 120 L 0 60 L 60 0 L 120 60 L 60 120 Z M 0 120 L 120 120 L 120 0 L 0 0 Z" fill="#881800" />
  <path d="M 480 0 L 540 0 L 600 60 L 540 120 L 480 60 Z M 480 0 L 480 120 L 600 120 L 600 0 Z" fill="#881800" />
  <path d="M 600 480 L 600 540 L 540 600 L 480 540 L 540 480 Z M 600 480 L 480 480 L 480 600 L 600 600 Z" fill="#881800" />
  <path d="M 120 600 L 60 600 L 0 540 L 60 480 L 120 540 Z M 120 600 L 120 480 L 0 480 L 0 600 Z" fill="#881800" />
  <path d="M 240 60 L 240 0 L 300 0 L 360 60 L 300 120 L 300 60 Z" fill="#881800" />
  <path d="M 540 240 L 600 240 L 600 300 L 540 360 L 480 300 L 540 300 Z" fill="#881800" />
  <path d="M 360 540 L 360 600 L 300 600 L 240 540 L 300 480 L 300 540 Z" fill="#881800" />
  <path d="M 60 360 L 0 360 L 0 300 L 60 240 L 120 300 L 60 300 Z" fill="#881800" />
  <path d="M 120 0 L 180 0 L 180 60 L 240 60 L 180 120 L 120 60 Z" fill="#881800" />
  <path d="M 480 0 L 480 60 L 420 60 L 420 120 L 360 60 L 420 0 Z" fill="#881800" />
  <path d="M 600 120 L 600 180 L 540 180 L 540 240 L 480 180 L 540 120 Z" fill="#881800" />
  <path d="M 600 480 L 540 480 L 540 420 L 480 420 L 540 360 L 600 420 Z" fill="#881800" />
  <path d="M 480 600 L 420 600 L 420 540 L 360 540 L 420 480 L 480 540 Z" fill="#881800" />
  <path d="M 120 600 L 120 540 L 180 540 L 180 480 L 240 540 L 180 600 Z" fill="#881800" />
  <path d="M 0 480 L 0 420 L 60 420 L 60 360 L 120 420 L 60 480 Z" fill="#881800" />
  <path d="M 0 120 L 60 120 L 60 180 L 120 180 L 60 240 L 0 180 Z" fill="#881800" />
</svg>
