<?xml version="1.0" standalone="no"?>
<!DOCTYPE svg PUBLIC
   "-//W3C//DTD SVG 1.1/EN"
   "http://www.w3.org/Graphics/SVG/1.1/DTD/svg11.dtd">

<svg width="480" height="480" version="1.1"
     xmlns="http://www.w3.org/2000/svg">
  <title>a boring SVG shape</title>
  <desc>
    Lua generator commit: 2472d776
    Generated from hex: bf79467e 88c1df3e
    1 1 shape=15 turn=3 invert=1
    2 1 shape=15 turn=4 invert=1
    2 2 shape=15 turn=5 invert=1
    1 2 shape=15 turn=6 invert=1
    0 0 shape=13 turn=0 invert=0
    3 0 shape=13 turn=1 invert=0
    3 3 shape=13 turn=2 invert=0
    0 3 shape=13 turn=3 invert=0
    1 0 shape=6 turn=3 invert=0
    2 0 shape=6 turn=4 invert=0
    3 1 shape=6 turn=4 invert=0
    3 2 shape=6 turn=5 invert=0
    2 3 shape=6 turn=5 invert=0
    1 3 shape=6 turn=6 invert=0
    0 2 shape=6 turn=6 invert=0
    0 1 shape=6 turn=3 invert=0
  </desc>
  <path d="M 120 120 L 240 120 L 240 240 L 210 180 L 120 240 L 180 150 Z M 120 240 L 240 240 L 240 120 L 120 120 Z" fill="#b0f070" />
  <path d="M 360 120 L 360 240 L 240 240 L 300 210 L 240 120 L 330 180 Z M 240 120 L 240 240 L 360 240 L 360 120 Z" fill="#b0f070" />
  <path d="M 360 360 L 240 360 L 240 240 L 270 300 L 360 240 L 300 330 Z M 360 240 L 240 240 L 240 360 L 360 360 Z" fill="#b0f070" />
  <path d="M 120 360 L 120 240 L 240 240 L 180 270 L 240 360 L 150 300 Z M 240 360 L 240 240 L 120 240 L 120 360 Z" fill="#b0f070" />
  <path d="M 120 0 L 90 90 L 0 120 L 30 30 Z" fill="#b0f070" />
  <path d="M 480 120 L 390 90 L 360 0 L 450 30 Z" fill="#b0f070" />
  <path d="M 360 480 L 390 390 L 480 360 L 450 450 Z" fill="#b0f070" />
  <path d="M 0 360 L 90 390 L 120 480 L 30 450 Z" fill="#b0f070" />
  <path d="M 120 120 L 180 0 L 240 0 L 240 60 Z" fill="#b0f070" />
  <path d="M 240 0 L 360 60 L 360 120 L 300 120 Z" fill="#b0f070" />
  <path d="M 360 120 L 480 180 L 480 240 L 420 240 Z" fill="#b0f070" />
  <path d="M 480 240 L 420 360 L 360 360 L 360 300 Z" fill="#b0f070" />
  <path d="M 360 360 L 300 480 L 240 480 L 240 420 Z" fill="#b0f070" />
  <path d="M 240 480 L 120 420 L 120 360 L 180 360 Z" fill="#b0f070" />
  <path d="M 120 360 L 0 300 L 0 240 L 60 240 Z" fill="#b0f070" />
  <path d="M 0 240 L 60 120 L 120 120 L 120 180 Z" fill="#b0f070" />
</svg>
