<?xml version="1.0" standalone="no"?>
<!DOCTYPE svg PUBLIC
   "-//W3C//DTD SVG 1.1/EN"
   "http://www.w3.org/Graphics/SVG/1.1/DTD/svg11.dtd">

<svg width="360" height="360" version="1.1"
     xmlns="http://www.w3.org/2000/svg">
  <title>a boring SVG shape</title>
  <desc>
    Lua generator commit: 2472d776
    Generated from hex: c1df3e00 41f472b6
    1 1 shape=1 turn=0 invert=0
    0 0 shape=1 turn=2 invert=0
    2 0 shape=1 turn=3 invert=0
    2 2 shape=1 turn=4 invert=0
    0 2 shape=1 turn=5 invert=0
    1 0 shape=16 turn=2 invert=0
    2 1 shape=16 turn=3 invert=0
    1 2 shape=16 turn=4 invert=0
    0 1 shape=16 turn=5 invert=0
  </desc>
  <path d="M 120 120 L 240 120 L 240 240 L 120 240 Z" fill="#c03878" />
  <path d="M 120 120 L 0 120 L 0 0 L 120 0 Z" fill="#c03878" />
  <path d="M 240 120 L 240 0 L 360 0 L 360 120 Z" fill="#c03878" />
  <path d="M 240 240 L 360 240 L 360 360 L 240 360 Z" fill="#c03878" />
  <path d="M 120 240 L 120 360 L 0 360 L 0 240 Z" fill="#c03878" />
  <path d="M 120 120 L 150 30 L 240 0 L 120 120 L 210 90 L 240 0 L 240 120 Z" fill="#c03878" />
  <path d="M 240 120 L 330 150 L 360 240 L 240 120 L 270 210 L 360 240 L 240 240 Z" fill="#c03878" />
  <path d="M 240 240 L 210 330 L 120 360 L 240 240 L 150 270 L 120 360 L 120 240 Z" fill="#c03878" />
  <path d="M 120 240 L 30 210 L 0 120 L 120 240 L 90 150 L 0 120 L 120 120 Z" fill="#c03878" />
</svg>
