<?xml version="1.0" standalone="no"?>
<!DOCTYPE svg PUBLIC
   "-//W3C//DTD SVG 1.1/EN"
   "http://www.w3.org/Graphics/SVG/1.1/DTD/svg11.dtd">

<svg width="480" height="480" version="1.1"
     xmlns="http://www.w3.org/2000/svg">
  <title>a boring SVG shape</title>
  <desc>
    Lua generator commit: 2472d776
    Generated from hex: 2033236c 314895cf
    1 1 shape=13 turn=3 invert=0
    2 1 shape=13 turn=4 invert=0
    2 2 shape=13 turn=5 invert=0
    1 2 shape=13 turn=6 invert=0
    0 0 shape=7 turn=2 invert=0
    3 0 shape=7 turn=3 invert=0
    3 3 shape=7 turn=4 invert=0
    0 3 shape=7 turn=5 invert=0
    1 0 shape=13 turn=2 invert=0
    2 0 shape=2 turn=0 invert=0
    3 1 shape=13 turn=3 invert=0
    3 2 shape=2 turn=1 invert=0
    2 3 shape=13 turn=4 invert=0
    1 3 shape=2 turn=2 invert=0
    0 2 shape=13 turn=5 invert=0
    0 1 shape=2 turn=3 invert=0
  </desc>
  <path d="M 120 120 L 210 150 L 240 240 L 150 210 Z" fill="#200030" />
  <path d="M 360 120 L 330 210 L 240 240 L 270 150 Z" fill="#200030" />
  <path d="M 360 360 L 270 330 L 240 240 L 330 270 Z" fill="#200030" />
  <path d="M 120 360 L 150 270 L 240 240 L 210 330 Z" fill="#200030" />
  <path d="M 120 120 L 60 120 L 0 60 L 0 0 Z" fill="#200030" />
  <path d="M 360 120 L 360 60 L 420 0 L 480 0 Z" fill="#200030" />
  <path d="M 360 360 L 420 360 L 480 420 L 480 480 Z" fill="#200030" />
  <path d="M 120 360 L 120 420 L 60 480 L 0 480 Z" fill="#200030" />
  <path d="M 120 120 L 150 30 L 240 0 L 210 90 Z" fill="#200030" />
  <path d="M 360 0 L 240 120 L 270 30 Z" fill="#200030" />
  <path d="M 360 120 L 450 150 L 480 240 L 390 210 Z" fill="#200030" />
  <path d="M 480 360 L 360 240 L 450 270 Z" fill="#200030" />
  <path d="M 360 360 L 330 450 L 240 480 L 270 390 Z" fill="#200030" />
  <path d="M 120 480 L 240 360 L 210 450 Z" fill="#200030" />
  <path d="M 120 360 L 30 330 L 0 240 L 90 270 Z" fill="#200030" />
  <path d="M 0 120 L 120 240 L 30 210 Z" fill="#200030" />
</svg>
