<?xml version="1.0" standalone="no"?>
<!DOCTYPE svg PUBLIC
   "-//W3C//DTD SVG 1.1/EN"
   "http://www.w3.org/Graphics/SVG/1.1/DTD/svg11.dtd">

<svg width="600" height="600" version="1.1"
     xmlns="http://www.w3.org/2000/svg">
  <title>a boring SVG shape</title>
  <desc>
    Lua generator commit: 2472d776
    Generated from hex: beb95c4d 2033236c
    2 2 shape=5 turn=0 invert=1
    1 1 shape=10 turn=0 invert=0
    3 1 shape=10 turn=1 invert=0
    3 3 shape=10 turn=2 invert=0
    1 3 shape=10 turn=3 invert=0
    2 1 shape=8 turn=2 invert=1
    3 2 shape=8 turn=3 invert=1
    2 3 shape=8 turn=4 invert=1
    1 2 shape=8 turn=5 invert=1
    0 0 shape=13 turn=3 invert=0
    4 0 shape=13 turn=4 invert=0
    4 4 shape=13 turn=5 invert=0
    0 4 shape=13 turn=6 invert=0
    2 0 shape=7 turn=2 invert=0
    4 2 shape=7 turn=3 invert=0
    2 4 shape=7 turn=4 invert=0
    0 2 shape=7 turn=5 invert=0
    1 0 shape=13 turn=2 invert=0
    3 0 shape=13 turn=3 invert=0
    4 1 shape=13 turn=3 invert=0
    4 3 shape=13 turn=4 invert=0
    3 4 shape=13 turn=4 invert=0
    1 4 shape=13 turn=5 invert=0
    0 3 shape=13 turn=5 invert=0
    0 1 shape=13 turn=2 invert=0
  </desc>
  <path d="M 300 240 L 360 300 L 300 360 L 240 300 Z M 240 240 L 240 360 L 360 360 L 360 240 Z" fill="#b8d0e0" />
  <path d="M 240 120 L 120 240 L 120 180 L 180 180 L 180 120 Z" fill="#b8d0e0" />
  <path d="M 480 240 L 360 120 L 420 120 L 420 180 L 480 180 Z" fill="#b8d0e0" />
  <path d="M 360 480 L 480 360 L 480 420 L 420 420 L 420 480 Z" fill="#b8d0e0" />
  <path d="M 120 360 L 240 480 L 180 480 L 180 420 L 120 420 Z" fill="#b8d0e0" />
  <path d="M 360 240 L 300 240 L 300 180 L 240 180 L 300 120 L 360 180 Z M 360 240 L 360 120 L 240 120 L 240 240 Z" fill="#b8d0e0" />
  <path d="M 360 360 L 360 300 L 420 300 L 420 240 L 480 300 L 420 360 Z M 360 360 L 480 360 L 480 240 L 360 240 Z" fill="#b8d0e0" />
  <path d="M 240 360 L 300 360 L 300 420 L 360 420 L 300 480 L 240 420 Z M 240 360 L 240 480 L 360 480 L 360 360 Z" fill="#b8d0e0" />
  <path d="M 240 240 L 240 300 L 180 300 L 180 360 L 120 300 L 180 240 Z M 240 240 L 120 240 L 120 360 L 240 360 Z" fill="#b8d0e0" />
  <path d="M 0 0 L 90 30 L 120 120 L 30 90 Z" fill="#b8d0e0" />
  <path d="M 600 0 L 570 90 L 480 120 L 510 30 Z" fill="#b8d0e0" />
  <path d="M 600 600 L 510 570 L 480 480 L 570 510 Z" fill="#b8d0e0" />
  <path d="M 0 600 L 30 510 L 120 480 L 90 570 Z" fill="#b8d0e0" />
  <path d="M 360 120 L 300 120 L 240 60 L 240 0 Z" fill="#b8d0e0" />
  <path d="M 480 360 L 480 300 L 540 240 L 600 240 Z" fill="#b8d0e0" />
  <path d="M 240 480 L 300 480 L 360 540 L 360 600 Z" fill="#b8d0e0" />
  <path d="M 120 240 L 120 300 L 60 360 L 0 360 Z" fill="#b8d0e0" />
  <path d="M 120 120 L 150 30 L 240 0 L 210 90 Z" fill="#b8d0e0" />
  <path d="M 360 0 L 450 30 L 480 120 L 390 90 Z" fill="#b8d0e0" />
  <path d="M 480 120 L 570 150 L 600 240 L 510 210 Z" fill="#b8d0e0" />
  <path d="M 600 360 L 570 450 L 480 480 L 510 390 Z" fill="#b8d0e0" />
  <path d="M 480 480 L 450 570 L 360 600 L 390 510 Z" fill="#b8d0e0" />
  <path d="M 240 600 L 150 570 L 120 480 L 210 510 Z" fill="#b8d0e0" />
  <path d="M 120 480 L 30 450 L 0 360 L 90 390 Z" fill="#b8d0e0" />
  <path d="M 0 240 L 30 150 L 120 120 L 90 210 Z" fill="#b8d0e0" />
</svg>
