<?xml version="1.0" standalone="no"?>
<!DOCTYPE svg PUBLIC
   "-//W3C//DTD SVG 1.1/EN"
   "http://www.w3.org/Graphics/SVG/1.1/DTD/svg11.dtd">

<svg width="600" height="600" version="1.1"
     xmlns="http://www.w3.org/2000/svg">
  <title>a boring SVG shape</title>
  <desc>
    Lua generator commit: 2472d776
    Generated from hex: eb95c4d2 033236c3
    2 2 shape=1 turn=0 invert=0
    1 1 shape=11 turn=0 invert=1
    3 1 shape=11 turn=1 invert=1
    3 3 shape=11 turn=2 invert=1
    1 3 shape=11 turn=3 invert=1
    2 1 shape=2 turn=3 invert=1
    3 2 shape=2 turn=4 invert=1
    2 3 shape=2 turn=5 invert=1
    1 2 shape=2 turn=6 invert=1
    0 0 shape=4 turn=2 invert=0
    4 0 shape=4 turn=3 invert=0
    4 4 shape=4 turn=4 invert=0
    0 4 shape=4 turn=5 invert=0
    2 0 shape=14 turn=3 invert=0
    4 2 shape=14 turn=4 invert=0
    2 4 shape=14 turn=5 invert=0
    0 2 shape=14 turn=6 invert=0
    1 0 shape=9 turn=2 invert=0
    3 0 shape=9 turn=3 invert=0
    4 1 shape=9 turn=3 invert=0
    4 3 shape=9 turn=4 invert=0
    3 4 shape=9 turn=4 invert=0
    1 4 shape=9 turn=5 invert=0
    0 3 shape=9 turn=5 invert=0
    0 1 shape=9 turn=2 invert=0
  </desc>
  <path d="M 240 240 L 360 240 L 360 360 L 240 360 Z" fill="#e87050" />
  <path d="M 120 120 L 180 120 L 180 180 L 120 180 Z M 120 120 L 120 240 L 240 240 L 240 120 Z" fill="#e87050" />
  <path d="M 480 120 L 480 180 L 420 180 L 420 120 Z M 480 120 L 360 120 L 360 240 L 480 240 Z" fill="#e87050" />
  <path d="M 480 480 L 420 480 L 420 420 L 480 420 Z M 480 480 L 480 360 L 360 360 L 360 480 Z" fill="#e87050" />
  <path d="M 120 480 L 120 420 L 180 420 L 180 480 Z M 120 480 L 240 480 L 240 360 L 120 360 Z" fill="#e87050" />
  <path d="M 240 120 L 360 240 L 270 210 Z M 240 240 L 360 240 L 360 120 L 240 120 Z" fill="#e87050" />
  <path d="M 480 240 L 360 360 L 390 270 Z M 360 240 L 360 360 L 480 360 L 480 240 Z" fill="#e87050" />
  <path d="M 360 480 L 240 360 L 330 390 Z M 360 360 L 240 360 L 240 480 L 360 480 Z" fill="#e87050" />
  <path d="M 120 360 L 240 240 L 210 330 Z M 240 360 L 240 240 L 120 240 L 120 360 Z" fill="#e87050" />
  <path d="M 0 120 L 0 0 L 120 0 L 60 30 L 90 90 L 30 60 Z" fill="#e87050" />
  <path d="M 480 0 L 600 0 L 600 120 L 570 60 L 510 90 L 540 30 Z" fill="#e87050" />
  <path d="M 600 480 L 600 600 L 480 600 L 540 570 L 510 510 L 570 540 Z" fill="#e87050" />
  <path d="M 120 600 L 0 600 L 0 480 L 30 540 L 90 510 L 60 570 Z" fill="#e87050" />
  <path d="M 240 120 L 240 0 L 270 90 L 360 120 Z" fill="#e87050" />
  <path d="M 480 240 L 600 240 L 510 270 L 480 360 Z" fill="#e87050" />
  <path d="M 360 480 L 360 600 L 330 510 L 240 480 Z" fill="#e87050" />
  <path d="M 120 360 L 0 360 L 90 330 L 120 240 Z" fill="#e87050" />
  <path d="M 180 120 L 120 120 L 120 60 L 180 0 L 240 60 L 180 60 Z" fill="#e87050" />
  <path d="M 360 60 L 360 0 L 420 0 L 480 60 L 420 120 L 420 60 Z" fill="#e87050" />
  <path d="M 480 180 L 480 120 L 540 120 L 600 180 L 540 240 L 540 180 Z" fill="#e87050" />
  <path d="M 540 360 L 600 360 L 600 420 L 540 480 L 480 420 L 540 420 Z" fill="#e87050" />
  <path d="M 420 480 L 480 480 L 480 540 L 420 600 L 360 540 L 420 540 Z" fill="#e87050" />
  <path d="M 240 540 L 240 600 L 180 600 L 120 540 L 180 480 L 180 540 Z" fill="#e87050" />
  <path d="M 120 420 L 120 480 L 60 480 L 0 420 L 60 360 L 60 420 Z" fill="#e87050" />
  <path d="M 60 240 L 0 240 L 0 180 L 60 120 L 120 180 L 60 180 Z" fill="#e87050" />
</svg>
