<?xml version="1.0" standalone="no"?>
<!DOCTYPE svg PUBLIC
   "-//W3C//DTD SVG 1.1/EN"
   "http://www.w3.org/Graphics/SVG/1.1/DTD/svg11.dtd">

<svg width="480" height="480" version="1.1"
     xmlns="http://www.w3.org/2000/svg">
  <title>a boring SVG shape</title>
  <desc>
    Lua generator commit: 2472d776
    Generated from hex: cbbeb95c 4d203323
    1 1 shape=13 turn=2 invert=1
    2 1 shape=13 turn=3 invert=1
    2 2 shape=13 turn=4 invert=1
    1 2 shape=13 turn=5 invert=1
    0 0 shape=3 turn=3 invert=1
    3 0 shape=3 turn=4 invert=1
    3 3 shape=3 turn=5 invert=1
    0 3 shape=3 turn=6 invert=1
    1 0 shape=11 turn=3 invert=1
    2 0 shape=11 turn=4 invert=1
    3 1 shape=11 turn=4 invert=1
    3 2 shape=11 turn=5 invert=1
    2 3 shape=11 turn=5 invert=1
    1 3 shape=11 turn=6 invert=1
    0 2 shape=11 turn=6 invert=1
    0 1 shape=11 turn=3 invert=1
  </desc>
  <path d="M 120 240 L 150 150 L 240 120 L 210 210 Z M 240 240 L 240 120 L 120 120 L 120 240 Z" fill="#c0b0b0" />
  <path d="M 240 120 L 330 150 L 360 240 L 270 210 Z M 240 240 L 360 240 L 360 120 L 240 120 Z" fill="#c0b0b0" />
  <path d="M 360 240 L 330 330 L 240 360 L 270 270 Z M 240 240 L 240 360 L 360 360 L 360 240 Z" fill="#c0b0b0" />
  <path d="M 240 360 L 150 330 L 120 240 L 210 270 Z M 240 240 L 120 240 L 120 360 L 240 360 Z" fill="#c0b0b0" />
  <path d="M 0 120 L 0 60 L 60 0 L 120 60 L 60 120 Z M 0 120 L 120 120 L 120 0 L 0 0 Z" fill="#c0b0b0" />
  <path d="M 360 0 L 420 0 L 480 60 L 420 120 L 360 60 Z M 360 0 L 360 120 L 480 120 L 480 0 Z" fill="#c0b0b0" />
  <path d="M 480 360 L 480 420 L 420 480 L 360 420 L 420 360 Z M 480 360 L 360 360 L 360 480 L 480 480 Z" fill="#c0b0b0" />
  <path d="M 120 480 L 60 480 L 0 420 L 60 360 L 120 420 Z M 120 480 L 120 360 L 0 360 L 0 480 Z" fill="#c0b0b0" />
  <path d="M 120 120 L 120 60 L 180 60 L 180 120 Z M 120 120 L 240 120 L 240 0 L 120 0 Z" fill="#c0b0b0" />
  <path d="M 240 0 L 300 0 L 300 60 L 240 60 Z M 240 0 L 240 120 L 360 120 L 360 0 Z" fill="#c0b0b0" />
  <path d="M 360 120 L 420 120 L 420 180 L 360 180 Z M 360 120 L 360 240 L 480 240 L 480 120 Z" fill="#c0b0b0" />
  <path d="M 480 240 L 480 300 L 420 300 L 420 240 Z M 480 240 L 360 240 L 360 360 L 480 360 Z" fill="#c0b0b0" />
  <path d="M 360 360 L 360 420 L 300 420 L 300 360 Z M 360 360 L 240 360 L 240 480 L 360 480 Z" fill="#c0b0b0" />
  <path d="M 240 480 L 180 480 L 180 420 L 240 420 Z M 240 480 L 240 360 L 120 360 L 120 480 Z" fill="#c0b0b0" />
  <path d="M 120 360 L 60 360 L 60 300 L 120 300 Z M 120 360 L 120 240 L 0 240 L 0 360 Z" fill="#c0b0b0" />
  <path d="M 0 240 L 0 180 L 60 180 L 60 240 Z M 0 240 L 120 240 L 120 120 L 0 120 Z" fill="#c0b0b0" />
</svg>
