<?xml version="1.0" standalone="no"?>
<!DOCTYPE svg PUBLIC
   "-//W3C//DTD SVG 1.1/EN"
   "http://www.w3.org/Graphics/SVG/1.1/DTD/svg11.dtd">

<svg width="600" height="600" version="1.1"
     xmlns="http://www.w3.org/2000/svg">
  <title>a boring SVG shape</title>
  <desc>
    Lua generator commit: 2472d776
    Generated from hex: c4d20332 36c31489
    2 2 shape=1 turn=0 invert=0
    1 1 shape=7 turn=3 invert=0
    3 1 shape=7 turn=4 invert=0
    3 3 shape=7 turn=5 invert=0
    1 3 shape=7 turn=6 invert=0
    2 1 shape=1 turn=0 invert=0
    3 2 shape=1 turn=1 invert=0
    2 3 shape=1 turn=2 invert=0
    1 2 shape=1 turn=3 invert=0
    0 0 shape=10 turn=0 invert=0
    4 0 shape=10 turn=1 invert=0
    4 4 shape=10 turn=2 invert=0
    0 4 shape=10 turn=3 invert=0
    2 0 shape=10 turn=1 invert=0
    4 2 shape=10 turn=2 invert=0
    2 4 shape=10 turn=3 invert=0
    0 2 shape=10 turn=4 invert=0
    1 0 shape=13 turn=0 invert=0
    3 0 shape=13 turn=1 invert=0
    4 1 shape=13 turn=1 invert=0
    4 3 shape=13 turn=2 invert=0
    3 4 shape=13 turn=2 invert=0
    1 4 shape=13 turn=3 invert=0
    0 3 shape=13 turn=3 invert=0
    0 1 shape=13 turn=0 invert=0
  </desc>
  <path d="M 240 240 L 360 240 L 360 360 L 240 360 Z" fill="#c09848" />
  <path d="M 120 240 L 120 180 L 180 120 L 240 120 Z" fill="#c09848" />
  <path d="M 360 120 L 420 120 L 480 180 L 480 240 Z" fill="#c09848" />
  <path d="M 480 360 L 480 420 L 420 480 L 360 480 Z" fill="#c09848" />
  <path d="M 240 480 L 180 480 L 120 420 L 120 360 Z" fill="#c09848" />
  <path d="M 240 120 L 360 120 L 360 240 L 240 240 Z" fill="#c09848" />
  <path d="M 480 240 L 480 360 L 360 360 L 360 240 Z" fill="#c09848" />
  <path d="M 360 480 L 240 480 L 240 360 L 360 360 Z" fill="#c09848" />
  <path d="M 120 360 L 120 240 L 240 240 L 240 360 Z" fill="#c09848" />
  <path d="M 120 0 L 0 120 L 0 60 L 60 60 L 60 0 Z" fill="#c09848" />
  <path d="M 600 120 L 480 0 L 540 0 L 540 60 L 600 60 Z" fill="#c09848" />
  <path d="M 480 600 L 600 480 L 600 540 L 540 540 L 540 600 Z" fill="#c09848" />
  <path d="M 0 480 L 120 600 L 60 600 L 60 540 L 0 540 Z" fill="#c09848" />
  <path d="M 360 120 L 240 0 L 300 0 L 300 60 L 360 60 Z" fill="#c09848" />
  <path d="M 480 360 L 600 240 L 600 300 L 540 300 L 540 360 Z" fill="#c09848" />
  <path d="M 240 480 L 360 600 L 300 600 L 300 540 L 240 540 Z" fill="#c09848" />
  <path d="M 120 240 L 0 360 L 0 300 L 60 300 L 60 240 Z" fill="#c09848" />
  <path d="M 240 0 L 210 90 L 120 120 L 150 30 Z" fill="#c09848" />
  <path d="M 480 120 L 390 90 L 360 0 L 450 30 Z" fill="#c09848" />
  <path d="M 600 240 L 510 210 L 480 120 L 570 150 Z" fill="#c09848" />
  <path d="M 480 480 L 510 390 L 600 360 L 570 450 Z" fill="#c09848" />
  <path d="M 360 600 L 390 510 L 480 480 L 450 570 Z" fill="#c09848" />
  <path d="M 120 480 L 210 510 L 240 600 L 150 570 Z" fill="#c09848" />
  <path d="M 0 360 L 90 390 L 120 480 L 30 450 Z" fill="#c09848" />
  <path d="M 120 120 L 90 210 L 0 240 L 30 150 Z" fill="#c09848" />
</svg>
