<?xml version="1.0" standalone="no"?>
<!DOCTYPE svg PUBLIC
   "-//W3C//DTD SVG 1.1/EN"
   "http://www.w3.org/Graphics/SVG/1.1/DTD/svg11.dtd">

<svg width="600" height="600" version="1.1"
     xmlns="http://www.w3.org/2000/svg">
  <title>a boring SVG shape</title>
  <desc>
    Lua generator commit: 2472d776
    Generated from hex: b95c4d20 33236c31
    2 2 shape=1 turn=0 invert=0
    1 1 shape=5 turn=1 invert=0
    3 1 shape=5 turn=2 invert=0
    3 3 shape=5 turn=3 invert=0
    1 3 shape=5 turn=4 invert=0
    2 1 shape=4 turn=0 invert=1
    3 2 shape=4 turn=1 invert=1
    2 3 shape=4 turn=2 invert=1
    1 2 shape=4 turn=3 invert=1
    0 0 shape=2 turn=1 invert=1
    4 0 shape=2 turn=2 invert=1
    4 4 shape=2 turn=3 invert=1
    0 4 shape=2 turn=4 invert=1
    2 0 shape=9 turn=2 invert=1
    4 2 shape=9 turn=3 invert=1
    2 4 shape=9 turn=4 invert=1
    0 2 shape=9 turn=5 invert=1
    1 0 shape=14 turn=0 invert=0
    3 0 shape=14 turn=1 invert=0
    4 1 shape=14 turn=1 invert=0
    4 3 shape=14 turn=2 invert=0
    3 4 shape=14 turn=2 invert=0
    1 4 shape=14 turn=3 invert=0
    0 3 shape=14 turn=3 invert=0
    0 1 shape=14 turn=0 invert=0
  </desc>
  <path d="M 240 240 L 360 240 L 360 360 L 240 360 Z" fill="#b82870" />
  <path d="M 240 180 L 180 240 L 120 180 L 180 120 Z" fill="#b82870" />
  <path d="M 420 240 L 360 180 L 420 120 L 480 180 Z" fill="#b82870" />
  <path d="M 360 420 L 420 360 L 480 420 L 420 480 Z" fill="#b82870" />
  <path d="M 180 360 L 240 420 L 180 480 L 120 420 Z" fill="#b82870" />
  <path d="M 360 120 L 360 240 L 240 240 L 300 210 L 270 150 L 330 180 Z M 240 120 L 240 240 L 360 240 L 360 120 Z" fill="#b82870" />
  <path d="M 480 360 L 360 360 L 360 240 L 390 300 L 450 270 L 420 330 Z M 480 240 L 360 240 L 360 360 L 480 360 Z" fill="#b82870" />
  <path d="M 240 480 L 240 360 L 360 360 L 300 390 L 330 450 L 270 420 Z M 360 480 L 360 360 L 240 360 L 240 480 Z" fill="#b82870" />
  <path d="M 120 240 L 240 240 L 240 360 L 210 300 L 150 330 L 180 270 Z M 120 360 L 240 360 L 240 240 L 120 240 Z" fill="#b82870" />
  <path d="M 120 120 L 0 0 L 90 30 Z M 120 0 L 0 0 L 0 120 L 120 120 Z" fill="#b82870" />
  <path d="M 480 120 L 600 0 L 570 90 Z M 600 120 L 600 0 L 480 0 L 480 120 Z" fill="#b82870" />
  <path d="M 480 480 L 600 600 L 510 570 Z M 480 600 L 600 600 L 600 480 L 480 480 Z" fill="#b82870" />
  <path d="M 120 480 L 0 600 L 30 510 Z M 0 480 L 0 600 L 120 600 L 120 480 Z" fill="#b82870" />
  <path d="M 300 120 L 240 120 L 240 60 L 300 0 L 360 60 L 300 60 Z M 360 120 L 360 0 L 240 0 L 240 120 Z" fill="#b82870" />
  <path d="M 480 300 L 480 240 L 540 240 L 600 300 L 540 360 L 540 300 Z M 480 360 L 600 360 L 600 240 L 480 240 Z" fill="#b82870" />
  <path d="M 300 480 L 360 480 L 360 540 L 300 600 L 240 540 L 300 540 Z M 240 480 L 240 600 L 360 600 L 360 480 Z" fill="#b82870" />
  <path d="M 120 300 L 120 360 L 60 360 L 0 300 L 60 240 L 60 300 Z M 120 240 L 0 240 L 0 360 L 120 360 Z" fill="#b82870" />
  <path d="M 120 0 L 240 0 L 150 30 L 120 120 Z" fill="#b82870" />
  <path d="M 480 0 L 480 120 L 450 30 L 360 0 Z" fill="#b82870" />
  <path d="M 600 120 L 600 240 L 570 150 L 480 120 Z" fill="#b82870" />
  <path d="M 600 480 L 480 480 L 570 450 L 600 360 Z" fill="#b82870" />
  <path d="M 480 600 L 360 600 L 450 570 L 480 480 Z" fill="#b82870" />
  <path d="M 120 600 L 120 480 L 150 570 L 240 600 Z" fill="#b82870" />
  <path d="M 0 480 L 0 360 L 30 450 L 120 480 Z" fill="#b82870" />
  <path d="M 0 120 L 120 120 L 30 150 L 0 240 Z" fill="#b82870" />
</svg>
