<?xml version="1.0" standalone="no"?>
<!DOCTYPE svg PUBLIC
   "-//W3C//DTD SVG 1.1/EN"
   "http://www.w3.org/Graphics/SVG/1.1/DTD/svg11.dtd">

<svg width="600" height="600" version="1.1"
     xmlns="http://www.w3.org/2000/svg">
  <title>a boring SVG shape</title>
  <desc>
    Lua generator commit: 2472d776
    Generated from hex: 2033236c 314895cf
    2 2 shape=1 turn=0 invert=1
    1 1 shape=14 turn=3 invert=0
    3 1 shape=14 turn=4 invert=0
    3 3 shape=14 turn=5 invert=0
    1 3 shape=14 turn=6 invert=0
    2 1 shape=9 turn=2 invert=0
    3 2 shape=9 turn=3 invert=0
    2 3 shape=9 turn=4 invert=0
    1 2 shape=9 turn=5 invert=0
    0 0 shape=16 turn=2 invert=0
    4 0 shape=16 turn=3 invert=0
    4 4 shape=16 turn=4 invert=0
    0 4 shape=16 turn=5 invert=0
    2 0 shape=12 turn=1 invert=0
    4 2 shape=12 turn=2 invert=0
    2 4 shape=12 turn=3 invert=0
    0 2 shape=12 turn=4 invert=0
    1 0 shape=3 turn=1 invert=0
    3 0 shape=3 turn=2 invert=0
    4 1 shape=3 turn=2 invert=0
    4 3 shape=3 turn=3 invert=0
    3 4 shape=3 turn=3 invert=0
    1 4 shape=3 turn=4 invert=0
    0 3 shape=3 turn=4 invert=0
    0 1 shape=3 turn=1 invert=0
  </desc>
  <path d="M 240 240 L 360 240 L 360 360 L 240 360 Z M 240 240 L 240 360 L 360 360 L 360 240 Z" fill="#2000c8" />
  <path d="M 120 240 L 120 120 L 150 210 L 240 240 Z" fill="#2000c8" />
  <path d="M 360 120 L 480 120 L 390 150 L 360 240 Z" fill="#2000c8" />
  <path d="M 480 360 L 480 480 L 450 390 L 360 360 Z" fill="#2000c8" />
  <path d="M 240 480 L 120 480 L 210 450 L 240 360 Z" fill="#2000c8" />
  <path d="M 300 240 L 240 240 L 240 180 L 300 120 L 360 180 L 300 180 Z" fill="#2000c8" />
  <path d="M 360 300 L 360 240 L 420 240 L 480 300 L 420 360 L 420 300 Z" fill="#2000c8" />
  <path d="M 300 360 L 360 360 L 360 420 L 300 480 L 240 420 L 300 420 Z" fill="#2000c8" />
  <path d="M 240 300 L 240 360 L 180 360 L 120 300 L 180 240 L 180 300 Z" fill="#2000c8" />
  <path d="M 0 120 L 30 30 L 120 0 L 0 120 L 90 90 L 120 0 L 120 120 Z" fill="#2000c8" />
  <path d="M 480 0 L 570 30 L 600 120 L 480 0 L 510 90 L 600 120 L 480 120 Z" fill="#2000c8" />
  <path d="M 600 480 L 570 570 L 480 600 L 600 480 L 510 510 L 480 600 L 480 480 Z" fill="#2000c8" />
  <path d="M 120 600 L 30 570 L 0 480 L 120 600 L 90 510 L 0 480 L 120 480 Z" fill="#2000c8" />
  <path d="M 360 0 L 360 120 L 240 0 Z" fill="#2000c8" />
  <path d="M 600 360 L 480 360 L 600 240 Z" fill="#2000c8" />
  <path d="M 240 600 L 240 480 L 360 600 Z" fill="#2000c8" />
  <path d="M 0 240 L 120 240 L 0 360 Z" fill="#2000c8" />
  <path d="M 240 0 L 240 60 L 180 120 L 120 60 L 180 0 Z" fill="#2000c8" />
  <path d="M 480 120 L 420 120 L 360 60 L 420 0 L 480 60 Z" fill="#2000c8" />
  <path d="M 600 240 L 540 240 L 480 180 L 540 120 L 600 180 Z" fill="#2000c8" />
  <path d="M 480 480 L 480 420 L 540 360 L 600 420 L 540 480 Z" fill="#2000c8" />
  <path d="M 360 600 L 360 540 L 420 480 L 480 540 L 420 600 Z" fill="#2000c8" />
  <path d="M 120 480 L 180 480 L 240 540 L 180 600 L 120 540 Z" fill="#2000c8" />
  <path d="M 0 360 L 60 360 L 120 420 L 60 480 L 0 420 Z" fill="#2000c8" />
  <path d="M 120 120 L 120 180 L 60 240 L 0 180 L 60 120 Z" fill="#2000c8" />
</svg>
