<?xml version="1.0" standalone="no"?>
<!DOCTYPE svg PUBLIC
   "-//W3C//DTD SVG 1.1/EN"
   "http://www.w3.org/Graphics/SVG/1.1/DTD/svg11.dtd">

<svg width="480" height="480" version="1.1"
     xmlns="http://www.w3.org/2000/svg">
  <title>a boring SVG shape</title>
  <desc>
    Lua generator commit: 2472d776
    Generated from hex: 150075dd 3bacbacb
    1 1 shape=14 turn=2 invert=1
    2 1 shape=14 turn=3 invert=1
    2 2 shape=14 turn=4 invert=1
    1 2 shape=14 turn=5 invert=1
    0 0 shape=12 turn=3 invert=0
    3 0 shape=12 turn=4 invert=0
    3 3 shape=12 turn=5 invert=0
    0 3 shape=12 turn=6 invert=0
    1 0 shape=2 turn=0 invert=0
    2 0 shape=9 turn=1 invert=0
    3 1 shape=2 turn=1 invert=0
    3 2 shape=9 turn=2 invert=0
    2 3 shape=2 turn=2 invert=0
    1 3 shape=9 turn=3 invert=0
    0 2 shape=2 turn=3 invert=0
    0 1 shape=9 turn=4 invert=0
  </desc>
  <path d="M 240 240 L 120 240 L 210 210 L 240 120 Z M 240 240 L 240 120 L 120 120 L 120 240 Z" fill="#105000" />
  <path d="M 240 240 L 240 120 L 270 210 L 360 240 Z M 240 240 L 360 240 L 360 120 L 240 120 Z" fill="#105000" />
  <path d="M 240 240 L 360 240 L 270 270 L 240 360 Z M 240 240 L 240 360 L 360 360 L 360 240 Z" fill="#105000" />
  <path d="M 240 240 L 240 360 L 210 270 L 120 240 Z M 240 240 L 120 240 L 120 360 L 240 360 Z" fill="#105000" />
  <path d="M 0 120 L 0 0 L 120 120 Z" fill="#105000" />
  <path d="M 360 0 L 480 0 L 360 120 Z" fill="#105000" />
  <path d="M 480 360 L 480 480 L 360 360 Z" fill="#105000" />
  <path d="M 120 480 L 0 480 L 120 360 Z" fill="#105000" />
  <path d="M 240 0 L 120 120 L 150 30 Z" fill="#105000" />
  <path d="M 360 60 L 360 120 L 300 120 L 240 60 L 300 0 L 300 60 Z" fill="#105000" />
  <path d="M 480 240 L 360 120 L 450 150 Z" fill="#105000" />
  <path d="M 420 360 L 360 360 L 360 300 L 420 240 L 480 300 L 420 300 Z" fill="#105000" />
  <path d="M 240 480 L 360 360 L 330 450 Z" fill="#105000" />
  <path d="M 120 420 L 120 360 L 180 360 L 240 420 L 180 480 L 180 420 Z" fill="#105000" />
  <path d="M 0 240 L 120 360 L 30 330 Z" fill="#105000" />
  <path d="M 60 120 L 120 120 L 120 180 L 60 240 L 0 180 L 60 180 Z" fill="#105000" />
</svg>
