<?xml version="1.0" standalone="no"?>
<!DOCTYPE svg PUBLIC
   "-//W3C//DTD SVG 1.1/EN"
   "http://www.w3.org/Graphics/SVG/1.1/DTD/svg11.dtd">

<svg width="360" height="360" version="1.1"
     xmlns="http://www.w3.org/2000/svg">
  <title>a boring SVG shape</title>
  <desc>
    Lua generator commit: 2472d776
    Generated from hex: f91460e1 498c0150
    1 1 shape=5 turn=0 invert=0
    0 0 shape=13 turn=0 invert=1
    2 0 shape=13 turn=1 invert=1
    2 2 shape=13 turn=2 invert=1
    0 2 shape=13 turn=3 invert=1
    1 0 shape=9 turn=0 invert=1
    2 1 shape=9 turn=1 invert=1
    1 2 shape=9 turn=2 invert=1
    0 1 shape=9 turn=3 invert=1
  </desc>
  <path d="M 180 120 L 240 180 L 180 240 L 120 180 Z" fill="#f82050" />
  <path d="M 120 0 L 90 90 L 0 120 L 30 30 Z M 0 0 L 0 120 L 120 120 L 120 0 Z" fill="#f82050" />
  <path d="M 360 120 L 270 90 L 240 0 L 330 30 Z M 360 0 L 240 0 L 240 120 L 360 120 Z" fill="#f82050" />
  <path d="M 240 360 L 270 270 L 360 240 L 330 330 Z M 360 360 L 360 240 L 240 240 L 240 360 Z" fill="#f82050" />
  <path d="M 0 240 L 90 270 L 120 360 L 30 330 Z M 0 360 L 120 360 L 120 240 L 0 240 Z" fill="#f82050" />
  <path d="M 180 0 L 240 0 L 240 60 L 180 120 L 120 60 L 180 60 Z M 120 0 L 120 120 L 240 120 L 240 0 Z" fill="#f82050" />
  <path d="M 360 180 L 360 240 L 300 240 L 240 180 L 300 120 L 300 180 Z M 360 120 L 240 120 L 240 240 L 360 240 Z" fill="#f82050" />
  <path d="M 180 360 L 120 360 L 120 300 L 180 240 L 240 300 L 180 300 Z M 240 360 L 240 240 L 120 240 L 120 360 Z" fill="#f82050" />
  <path d="M 0 180 L 0 120 L 60 120 L 120 180 L 60 240 L 60 180 Z M 0 240 L 120 240 L 120 120 L 0 120 Z" fill="#f82050" />
</svg>
