<?xml version="1.0" standalone="no"?>
<!DOCTYPE svg PUBLIC
   "-//W3C//DTD SVG 1.1/EN"
   "http://www.w3.org/Graphics/SVG/1.1/DTD/svg11.dtd">

<svg width="480" height="480" version="1.1"
     xmlns="http://www.w3.org/2000/svg">
  <title>a boring SVG shape</title>
  <desc>
    Lua generator commit: 2472d776
    Generated from hex: 60e1498c 0150075d
    1 1 shape=13 turn=0 invert=0
    2 1 shape=13 turn=1 invert=0
    2 2 shape=13 turn=2 invert=0
    1 2 shape=13 turn=3 invert=0
    0 0 shape=4 turn=0 invert=1
    3 0 shape=4 turn=1 invert=1
    3 3 shape=4 turn=2 invert=1
    0 3 shape=4 turn=3 invert=1
    1 0 shape=6 turn=0 invert=0
    2 0 shape=6 turn=1 invert=0
    3 1 shape=6 turn=1 invert=0
    3 2 shape=6 turn=2 invert=0
    2 3 shape=6 turn=2 invert=0
    1 3 shape=6 turn=3 invert=0
    0 2 shape=6 turn=3 invert=0
    0 1 shape=6 turn=0 invert=0
  </desc>
  <path d="M 240 120 L 210 210 L 120 240 L 150 150 Z" fill="#6000e0" />
  <path d="M 360 240 L 270 210 L 240 120 L 330 150 Z" fill="#6000e0" />
  <path d="M 240 360 L 270 270 L 360 240 L 330 330 Z" fill="#6000e0" />
  <path d="M 120 240 L 210 270 L 240 360 L 150 330 Z" fill="#6000e0" />
  <path d="M 120 0 L 120 120 L 0 120 L 60 90 L 30 30 L 90 60 Z M 0 0 L 0 120 L 120 120 L 120 0 Z" fill="#6000e0" />
  <path d="M 480 120 L 360 120 L 360 0 L 390 60 L 450 30 L 420 90 Z M 480 0 L 360 0 L 360 120 L 480 120 Z" fill="#6000e0" />
  <path d="M 360 480 L 360 360 L 480 360 L 420 390 L 450 450 L 390 420 Z M 480 480 L 480 360 L 360 360 L 360 480 Z" fill="#6000e0" />
  <path d="M 0 360 L 120 360 L 120 480 L 90 420 L 30 450 L 60 390 Z M 0 480 L 120 480 L 120 360 L 0 360 Z" fill="#6000e0" />
  <path d="M 120 0 L 240 60 L 240 120 L 180 120 Z" fill="#6000e0" />
  <path d="M 360 0 L 300 120 L 240 120 L 240 60 Z" fill="#6000e0" />
  <path d="M 480 120 L 420 240 L 360 240 L 360 180 Z" fill="#6000e0" />
  <path d="M 480 360 L 360 300 L 360 240 L 420 240 Z" fill="#6000e0" />
  <path d="M 360 480 L 240 420 L 240 360 L 300 360 Z" fill="#6000e0" />
  <path d="M 120 480 L 180 360 L 240 360 L 240 420 Z" fill="#6000e0" />
  <path d="M 0 360 L 60 240 L 120 240 L 120 300 Z" fill="#6000e0" />
  <path d="M 0 120 L 120 180 L 120 240 L 60 240 Z" fill="#6000e0" />
</svg>
