<?xml version="1.0" standalone="no"?>
<!DOCTYPE svg PUBLIC
   "-//W3C//DTD SVG 1.1/EN"
   "http://www.w3.org/Graphics/SVG/1.1/DTD/svg11.dtd">

<svg width="480" height="480" version="1.1"
     xmlns="http://www.w3.org/2000/svg">
  <title>a boring SVG shape</title>
  <desc>
    Lua generator commit: 2472d776
    Generated from hex: 1460e149 8c015007
    1 1 shape=10 turn=2 invert=0
    2 1 shape=10 turn=3 invert=0
    2 2 shape=10 turn=4 invert=0
    1 2 shape=10 turn=5 invert=0
    0 0 shape=3 turn=2 invert=0
    3 0 shape=3 turn=3 invert=0
    3 3 shape=3 turn=4 invert=0
    0 3 shape=3 turn=5 invert=0
    1 0 shape=4 turn=0 invert=0
    2 0 shape=4 turn=1 invert=0
    3 1 shape=4 turn=1 invert=0
    3 2 shape=4 turn=2 invert=0
    2 3 shape=4 turn=2 invert=0
    1 3 shape=4 turn=3 invert=0
    0 2 shape=4 turn=3 invert=0
    0 1 shape=4 turn=4 invert=0
  </desc>
  <path d="M 120 240 L 240 120 L 240 180 L 180 180 L 180 240 Z" fill="#104060" />
  <path d="M 240 120 L 360 240 L 300 240 L 300 180 L 240 180 Z" fill="#104060" />
  <path d="M 360 240 L 240 360 L 240 300 L 300 300 L 300 240 Z" fill="#104060" />
  <path d="M 240 360 L 120 240 L 180 240 L 180 300 L 240 300 Z" fill="#104060" />
  <path d="M 120 120 L 60 120 L 0 60 L 60 0 L 120 60 Z" fill="#104060" />
  <path d="M 360 120 L 360 60 L 420 0 L 480 60 L 420 120 Z" fill="#104060" />
  <path d="M 360 360 L 420 360 L 480 420 L 420 480 L 360 420 Z" fill="#104060" />
  <path d="M 120 360 L 120 420 L 60 480 L 0 420 L 60 360 Z" fill="#104060" />
  <path d="M 240 0 L 240 120 L 120 120 L 180 90 L 150 30 L 210 60 Z" fill="#104060" />
  <path d="M 360 120 L 240 120 L 240 0 L 270 60 L 330 30 L 300 90 Z" fill="#104060" />
  <path d="M 480 240 L 360 240 L 360 120 L 390 180 L 450 150 L 420 210 Z" fill="#104060" />
  <path d="M 360 360 L 360 240 L 480 240 L 420 270 L 450 330 L 390 300 Z" fill="#104060" />
  <path d="M 240 480 L 240 360 L 360 360 L 300 390 L 330 450 L 270 420 Z" fill="#104060" />
  <path d="M 120 360 L 240 360 L 240 480 L 210 420 L 150 450 L 180 390 Z" fill="#104060" />
  <path d="M 0 240 L 120 240 L 120 360 L 90 300 L 30 330 L 60 270 Z" fill="#104060" />
  <path d="M 120 120 L 120 240 L 0 240 L 60 210 L 30 150 L 90 180 Z" fill="#104060" />
</svg>
