<?xml version="1.0" standalone="no"?>
<!DOCTYPE svg PUBLIC
   "-//W3C//DTD SVG 1.1/EN"
   "http://www.w3.org/Graphics/SVG/1.1/DTD/svg11.dtd">

<svg width="360" height="360" version="1.1"
     xmlns="http://www.w3.org/2000/svg">
  <title>a boring SVG shape</title>
  <desc>
    Lua generator commit: 2472d776
    Generated from hex: 91460e14 98c01500
    1 1 shape=1 turn=0 invert=1
    0 0 shape=3 turn=2 invert=0
    2 0 shape=3 turn=3 invert=0
    2 2 shape=3 turn=4 invert=0
    0 2 shape=3 turn=5 invert=0
    1 0 shape=4 turn=0 invert=0
    2 1 shape=4 turn=1 invert=0
    1 2 shape=4 turn=2 invert=0
    0 1 shape=4 turn=3 invert=0
  </desc>
  <path d="M 120 120 L 240 120 L 240 240 L 120 240 Z M 120 120 L 120 240 L 240 240 L 240 120 Z" fill="#902818" />
  <path d="M 120 120 L 60 120 L 0 60 L 60 0 L 120 60 Z" fill="#902818" />
  <path d="M 240 120 L 240 60 L 300 0 L 360 60 L 300 120 Z" fill="#902818" />
  <path d="M 240 240 L 300 240 L 360 300 L 300 360 L 240 300 Z" fill="#902818" />
  <path d="M 120 240 L 120 300 L 60 360 L 0 300 L 60 240 Z" fill="#902818" />
  <path d="M 240 0 L 240 120 L 120 120 L 180 90 L 150 30 L 210 60 Z" fill="#902818" />
  <path d="M 360 240 L 240 240 L 240 120 L 270 180 L 330 150 L 300 210 Z" fill="#902818" />
  <path d="M 120 360 L 120 240 L 240 240 L 180 270 L 210 330 L 150 300 Z" fill="#902818" />
  <path d="M 0 120 L 120 120 L 120 240 L 90 180 L 30 210 L 60 150 Z" fill="#902818" />
</svg>
