<?xml version="1.0" standalone="no"?>
<!DOCTYPE svg PUBLIC
   "-//W3C//DTD SVG 1.1/EN"
   "http://www.w3.org/Graphics/SVG/1.1/DTD/svg11.dtd">

<svg width="600" height="600" version="1.1"
     xmlns="http://www.w3.org/2000/svg">
  <title>a boring SVG shape</title>
  <desc>
    Lua generator commit: 2472d776
    Generated from hex: 0e1498c0 150075dd
    2 2 shape=1 turn=0 invert=0
    1 1 shape=9 turn=0 invert=1
    3 1 shape=9 turn=1 invert=1
    3 3 shape=9 turn=2 invert=1
    1 3 shape=9 turn=3 invert=1
    2 1 shape=7 turn=1 invert=0
    3 2 shape=7 turn=2 invert=0
    2 3 shape=7 turn=3 invert=0
    1 2 shape=7 turn=4 invert=0
    0 0 shape=14 turn=2 invert=1
    4 0 shape=14 turn=3 invert=1
    4 4 shape=14 turn=4 invert=1
    0 4 shape=14 turn=5 invert=1
    2 0 shape=12 turn=3 invert=0
    4 2 shape=12 turn=4 invert=0
    2 4 shape=12 turn=5 invert=0
    0 2 shape=12 turn=6 invert=0
    1 0 shape=2 turn=0 invert=0
    3 0 shape=2 turn=1 invert=0
    4 1 shape=2 turn=1 invert=0
    4 3 shape=2 turn=2 invert=0
    3 4 shape=2 turn=2 invert=0
    1 4 shape=2 turn=3 invert=0
    0 3 shape=2 turn=3 invert=0
    0 1 shape=2 turn=0 invert=0
  </desc>
  <path d="M 240 240 L 360 240 L 360 360 L 240 360 Z" fill="#08c050" />
  <path d="M 180 120 L 240 120 L 240 180 L 180 240 L 120 180 L 180 180 Z M 120 120 L 120 240 L 240 240 L 240 120 Z" fill="#08c050" />
  <path d="M 480 180 L 480 240 L 420 240 L 360 180 L 420 120 L 420 180 Z M 480 120 L 360 120 L 360 240 L 480 240 Z" fill="#08c050" />
  <path d="M 420 480 L 360 480 L 360 420 L 420 360 L 480 420 L 420 420 Z M 480 480 L 480 360 L 360 360 L 360 480 Z" fill="#08c050" />
  <path d="M 120 420 L 120 360 L 180 360 L 240 420 L 180 480 L 180 420 Z M 120 480 L 240 480 L 240 360 L 120 360 Z" fill="#08c050" />
  <path d="M 360 120 L 360 180 L 300 240 L 240 240 Z" fill="#08c050" />
  <path d="M 480 360 L 420 360 L 360 300 L 360 240 Z" fill="#08c050" />
  <path d="M 240 480 L 240 420 L 300 360 L 360 360 Z" fill="#08c050" />
  <path d="M 120 240 L 180 240 L 240 300 L 240 360 Z" fill="#08c050" />
  <path d="M 120 120 L 0 120 L 90 90 L 120 0 Z M 120 120 L 120 0 L 0 0 L 0 120 Z" fill="#08c050" />
  <path d="M 480 120 L 480 0 L 510 90 L 600 120 Z M 480 120 L 600 120 L 600 0 L 480 0 Z" fill="#08c050" />
  <path d="M 480 480 L 600 480 L 510 510 L 480 600 Z M 480 480 L 480 600 L 600 600 L 600 480 Z" fill="#08c050" />
  <path d="M 120 480 L 120 600 L 90 510 L 0 480 Z M 120 480 L 0 480 L 0 600 L 120 600 Z" fill="#08c050" />
  <path d="M 240 120 L 240 0 L 360 120 Z" fill="#08c050" />
  <path d="M 480 240 L 600 240 L 480 360 Z" fill="#08c050" />
  <path d="M 360 480 L 360 600 L 240 480 Z" fill="#08c050" />
  <path d="M 120 360 L 0 360 L 120 240 Z" fill="#08c050" />
  <path d="M 240 0 L 120 120 L 150 30 Z" fill="#08c050" />
  <path d="M 480 120 L 360 0 L 450 30 Z" fill="#08c050" />
  <path d="M 600 240 L 480 120 L 570 150 Z" fill="#08c050" />
  <path d="M 480 480 L 600 360 L 570 450 Z" fill="#08c050" />
  <path d="M 360 600 L 480 480 L 450 570 Z" fill="#08c050" />
  <path d="M 120 480 L 240 600 L 150 570 Z" fill="#08c050" />
  <path d="M 0 360 L 120 480 L 30 450 Z" fill="#08c050" />
  <path d="M 120 120 L 0 240 L 30 150 Z" fill="#08c050" />
</svg>
