<?xml version="1.0" standalone="no"?>
<!DOCTYPE svg PUBLIC
   "-//W3C//DTD SVG 1.1/EN"
   "http://www.w3.org/Graphics/SVG/1.1/DTD/svg11.dtd">

<svg width="480" height="480" version="1.1"
     xmlns="http://www.w3.org/2000/svg">
  <title>a boring SVG shape</title>
  <desc>
    Lua generator commit: 2472d776
    Generated from hex: e1498c01 50075dd3
    1 1 shape=2 turn=0 invert=0
    2 1 shape=2 turn=1 invert=0
    2 2 shape=2 turn=2 invert=0
    1 2 shape=2 turn=3 invert=0
    0 0 shape=9 turn=0 invert=1
    3 0 shape=9 turn=1 invert=1
    3 3 shape=9 turn=2 invert=1
    0 3 shape=9 turn=3 invert=1
    1 0 shape=7 turn=1 invert=0
    2 0 shape=11 turn=0 invert=0
    3 1 shape=7 turn=2 invert=0
    3 2 shape=11 turn=1 invert=0
    2 3 shape=7 turn=3 invert=0
    1 3 shape=11 turn=2 invert=0
    0 2 shape=7 turn=4 invert=0
    0 1 shape=11 turn=3 invert=0
  </desc>
  <path d="M 240 120 L 120 240 L 150 150 Z" fill="#e01040" />
  <path d="M 360 240 L 240 120 L 330 150 Z" fill="#e01040" />
  <path d="M 240 360 L 360 240 L 330 330 Z" fill="#e01040" />
  <path d="M 120 240 L 240 360 L 150 330 Z" fill="#e01040" />
  <path d="M 60 0 L 120 0 L 120 60 L 60 120 L 0 60 L 60 60 Z M 0 0 L 0 120 L 120 120 L 120 0 Z" fill="#e01040" />
  <path d="M 480 60 L 480 120 L 420 120 L 360 60 L 420 0 L 420 60 Z M 480 0 L 360 0 L 360 120 L 480 120 Z" fill="#e01040" />
  <path d="M 420 480 L 360 480 L 360 420 L 420 360 L 480 420 L 420 420 Z M 480 480 L 480 360 L 360 360 L 360 480 Z" fill="#e01040" />
  <path d="M 0 420 L 0 360 L 60 360 L 120 420 L 60 480 L 60 420 Z M 0 480 L 120 480 L 120 360 L 0 360 Z" fill="#e01040" />
  <path d="M 240 0 L 240 60 L 180 120 L 120 120 Z" fill="#e01040" />
  <path d="M 240 0 L 300 0 L 300 60 L 240 60 Z" fill="#e01040" />
  <path d="M 480 240 L 420 240 L 360 180 L 360 120 Z" fill="#e01040" />
  <path d="M 480 240 L 480 300 L 420 300 L 420 240 Z" fill="#e01040" />
  <path d="M 240 480 L 240 420 L 300 360 L 360 360 Z" fill="#e01040" />
  <path d="M 240 480 L 180 480 L 180 420 L 240 420 Z" fill="#e01040" />
  <path d="M 0 240 L 60 240 L 120 300 L 120 360 Z" fill="#e01040" />
  <path d="M 0 240 L 0 180 L 60 180 L 60 240 Z" fill="#e01040" />
</svg>
