<?xml version="1.0" standalone="no"?>
<!DOCTYPE svg PUBLIC
   "-//W3C//DTD SVG 1.1/EN"
   "http://www.w3.org/Graphics/SVG/1.1/DTD/svg11.dtd">

<svg width="600" height="600" version="1.1"
     xmlns="http://www.w3.org/2000/svg">
  <title>a boring SVG shape</title>
  <desc>
    Lua generator commit: 2472d776
    Generated from hex: 50075dd3 bacbacbf
    2 2 shape=5 turn=0 invert=0
    1 1 shape=11 turn=1 invert=1
    3 1 shape=11 turn=2 invert=1
    3 3 shape=11 turn=3 invert=1
    1 3 shape=11 turn=4 invert=1
    2 1 shape=8 turn=2 invert=1
    3 2 shape=8 turn=3 invert=1
    2 3 shape=8 turn=4 invert=1
    1 2 shape=8 turn=5 invert=1
    0 0 shape=16 turn=1 invert=1
    4 0 shape=16 turn=2 invert=1
    4 4 shape=16 turn=3 invert=1
    0 4 shape=16 turn=4 invert=1
    2 0 shape=10 turn=2 invert=1
    4 2 shape=10 turn=3 invert=1
    2 4 shape=10 turn=4 invert=1
    0 2 shape=10 turn=5 invert=1
    1 0 shape=15 turn=1 invert=0
    3 0 shape=15 turn=2 invert=0
    4 1 shape=15 turn=2 invert=0
    4 3 shape=15 turn=3 invert=0
    3 4 shape=15 turn=3 invert=0
    1 4 shape=15 turn=4 invert=0
    0 3 shape=15 turn=4 invert=0
    0 1 shape=15 turn=1 invert=0
  </desc>
  <path d="M 300 240 L 360 300 L 300 360 L 240 300 Z" fill="#500018" />
  <path d="M 240 120 L 240 180 L 180 180 L 180 120 Z M 240 120 L 120 120 L 120 240 L 240 240 Z" fill="#500018" />
  <path d="M 480 240 L 420 240 L 420 180 L 480 180 Z M 480 240 L 480 120 L 360 120 L 360 240 Z" fill="#500018" />
  <path d="M 360 480 L 360 420 L 420 420 L 420 480 Z M 360 480 L 480 480 L 480 360 L 360 360 Z" fill="#500018" />
  <path d="M 120 360 L 180 360 L 180 420 L 120 420 Z M 120 360 L 120 480 L 240 480 L 240 360 Z" fill="#500018" />
  <path d="M 360 240 L 300 240 L 300 180 L 240 180 L 300 120 L 360 180 Z M 360 240 L 360 120 L 240 120 L 240 240 Z" fill="#500018" />
  <path d="M 360 360 L 360 300 L 420 300 L 420 240 L 480 300 L 420 360 Z M 360 360 L 480 360 L 480 240 L 360 240 Z" fill="#500018" />
  <path d="M 240 360 L 300 360 L 300 420 L 360 420 L 300 480 L 240 420 Z M 240 360 L 240 480 L 360 480 L 360 360 Z" fill="#500018" />
  <path d="M 240 240 L 240 300 L 180 300 L 180 360 L 120 300 L 180 240 Z M 240 240 L 120 240 L 120 360 L 240 360 Z" fill="#500018" />
  <path d="M 120 120 L 30 90 L 0 0 L 120 120 L 90 30 L 0 0 L 120 0 Z M 120 0 L 0 0 L 0 120 L 120 120 Z" fill="#500018" />
  <path d="M 480 120 L 510 30 L 600 0 L 480 120 L 570 90 L 600 0 L 600 120 Z M 600 120 L 600 0 L 480 0 L 480 120 Z" fill="#500018" />
  <path d="M 480 480 L 570 510 L 600 600 L 480 480 L 510 570 L 600 600 L 480 600 Z M 480 600 L 600 600 L 600 480 L 480 480 Z" fill="#500018" />
  <path d="M 120 480 L 90 570 L 0 600 L 120 480 L 30 510 L 0 600 L 0 480 Z M 0 480 L 0 600 L 120 600 L 120 480 Z" fill="#500018" />
  <path d="M 240 120 L 360 0 L 360 60 L 300 60 L 300 120 Z M 360 120 L 360 0 L 240 0 L 240 120 Z" fill="#500018" />
  <path d="M 480 240 L 600 360 L 540 360 L 540 300 L 480 300 Z M 480 360 L 600 360 L 600 240 L 480 240 Z" fill="#500018" />
  <path d="M 360 480 L 240 600 L 240 540 L 300 540 L 300 480 Z M 240 480 L 240 600 L 360 600 L 360 480 Z" fill="#500018" />
  <path d="M 120 360 L 0 240 L 60 240 L 60 300 L 120 300 Z M 120 240 L 0 240 L 0 360 L 120 360 Z" fill="#500018" />
  <path d="M 240 120 L 120 120 L 120 0 L 150 60 L 240 0 L 180 90 Z" fill="#500018" />
  <path d="M 360 120 L 360 0 L 480 0 L 420 30 L 480 120 L 390 60 Z" fill="#500018" />
  <path d="M 480 240 L 480 120 L 600 120 L 540 150 L 600 240 L 510 180 Z" fill="#500018" />
  <path d="M 480 360 L 600 360 L 600 480 L 570 420 L 480 480 L 540 390 Z" fill="#500018" />
  <path d="M 360 480 L 480 480 L 480 600 L 450 540 L 360 600 L 420 510 Z" fill="#500018" />
  <path d="M 240 480 L 240 600 L 120 600 L 180 570 L 120 480 L 210 540 Z" fill="#500018" />
  <path d="M 120 360 L 120 480 L 0 480 L 60 450 L 0 360 L 90 420 Z" fill="#500018" />
  <path d="M 120 240 L 0 240 L 0 120 L 30 180 L 120 120 L 60 210 Z" fill="#500018" />
</svg>
