<?xml version="1.0" standalone="no"?>
<!DOCTYPE svg PUBLIC
   "-//W3C//DTD SVG 1.1/EN"
   "http://www.w3.org/Graphics/SVG/1.1/DTD/svg11.dtd">

<svg width="480" height="480" version="1.1"
     xmlns="http://www.w3.org/2000/svg">
  <title>a boring SVG shape</title>
  <desc>
    Lua generator commit: 2472d776
    Generated from hex: 50075dd3 bacbacbf
    1 1 shape=4 turn=2 invert=1
    2 1 shape=4 turn=3 invert=1
    2 2 shape=4 turn=4 invert=1
    1 2 shape=4 turn=5 invert=1
    0 0 shape=12 turn=1 invert=1
    3 0 shape=12 turn=2 invert=1
    3 3 shape=12 turn=3 invert=1
    0 3 shape=12 turn=4 invert=1
    1 0 shape=14 turn=0 invert=1
    2 0 shape=1 turn=0 invert=0
    3 1 shape=14 turn=1 invert=1
    3 2 shape=1 turn=1 invert=0
    2 3 shape=14 turn=2 invert=1
    1 3 shape=1 turn=2 invert=0
    0 2 shape=14 turn=3 invert=1
    0 1 shape=1 turn=3 invert=0
  </desc>
  <path d="M 120 240 L 120 120 L 240 120 L 180 150 L 210 210 L 150 180 Z M 240 240 L 240 120 L 120 120 L 120 240 Z" fill="#500000" />
  <path d="M 240 120 L 360 120 L 360 240 L 330 180 L 270 210 L 300 150 Z M 240 240 L 360 240 L 360 120 L 240 120 Z" fill="#500000" />
  <path d="M 360 240 L 360 360 L 240 360 L 300 330 L 270 270 L 330 300 Z M 240 240 L 240 360 L 360 360 L 360 240 Z" fill="#500000" />
  <path d="M 240 360 L 120 360 L 120 240 L 150 300 L 210 270 L 180 330 Z M 240 240 L 120 240 L 120 360 L 240 360 Z" fill="#500000" />
  <path d="M 120 0 L 120 120 L 0 0 Z M 120 0 L 0 0 L 0 120 L 120 120 Z" fill="#500000" />
  <path d="M 480 120 L 360 120 L 480 0 Z M 480 120 L 480 0 L 360 0 L 360 120 Z" fill="#500000" />
  <path d="M 360 480 L 360 360 L 480 480 Z M 360 480 L 480 480 L 480 360 L 360 360 Z" fill="#500000" />
  <path d="M 0 360 L 120 360 L 0 480 Z M 0 360 L 0 480 L 120 480 L 120 360 Z" fill="#500000" />
  <path d="M 120 0 L 240 0 L 150 30 L 120 120 Z M 120 0 L 120 120 L 240 120 L 240 0 Z" fill="#500000" />
  <path d="M 240 0 L 360 0 L 360 120 L 240 120 Z" fill="#500000" />
  <path d="M 480 120 L 480 240 L 450 150 L 360 120 Z M 480 120 L 360 120 L 360 240 L 480 240 Z" fill="#500000" />
  <path d="M 480 240 L 480 360 L 360 360 L 360 240 Z" fill="#500000" />
  <path d="M 360 480 L 240 480 L 330 450 L 360 360 Z M 360 480 L 360 360 L 240 360 L 240 480 Z" fill="#500000" />
  <path d="M 240 480 L 120 480 L 120 360 L 240 360 Z" fill="#500000" />
  <path d="M 0 360 L 0 240 L 30 330 L 120 360 Z M 0 360 L 120 360 L 120 240 L 0 240 Z" fill="#500000" />
  <path d="M 0 240 L 0 120 L 120 120 L 120 240 Z" fill="#500000" />
</svg>
